<svg width="99" height="16" viewBox="0 0 99 16" fill="none" xmlns="http://www.w3.org/2000/svg">
<path d="M13.8 15H10.8L9.96 12.48H4.38L3.54 15H0.56L5.46 0.999999H8.88L13.8 15ZM7.18 4.18L5.26 9.9H9.1L7.18 4.18ZM25.8194 15H22.8394L20.0194 10.14H17.9194V15H15.1594V0.999999H20.7594C22.0527 0.999999 23.1527 1.45333 24.0594 2.36C24.966 3.26667 25.4194 4.36 25.4194 5.64C25.4194 6.50667 25.1727 7.31333 24.6794 8.06C24.186 8.79333 23.5327 9.34667 22.7194 9.72L25.8194 15ZM20.7594 3.58H17.9194V7.72H20.7594C21.2794 7.72 21.726 7.52 22.0994 7.12C22.4727 6.70667 22.6594 6.21333 22.6594 5.64C22.6594 5.06667 22.4727 4.58 22.0994 4.18C21.726 3.78 21.2794 3.58 20.7594 3.58ZM37.2245 15.28C35.8512 15.28 34.6912 14.9733 33.7445 14.36C32.7979 13.7467 32.1245 12.9 31.7245 11.82L34.0845 10.44C34.6312 11.8667 35.7045 12.58 37.3045 12.58C38.0512 12.58 38.6112 12.4467 38.9845 12.18C39.3579 11.9133 39.5445 11.5533 39.5445 11.1C39.5445 10.6067 39.3245 10.2267 38.8845 9.96C38.4445 9.68 37.6579 9.38 36.5245 9.06C35.2979 8.68667 34.3312 8.25333 33.6245 7.76C32.7445 7.10667 32.3045 6.14667 32.3045 4.88C32.3045 3.6 32.7512 2.59333 33.6445 1.86C34.5379 1.1 35.6245 0.719999 36.9045 0.719999C38.0245 0.719999 39.0179 0.993332 39.8845 1.54C40.7512 2.08667 41.4245 2.86 41.9045 3.86L39.5845 5.2C39.0245 4 38.1312 3.4 36.9045 3.4C36.3445 3.4 35.8979 3.53333 35.5645 3.8C35.2312 4.05333 35.0645 4.38667 35.0645 4.8C35.0645 5.24 35.2445 5.6 35.6045 5.88C36.0045 6.16 36.7112 6.45333 37.7245 6.76L38.6845 7.08C38.8579 7.13333 39.1579 7.24667 39.5845 7.42C39.9845 7.56667 40.2779 7.70667 40.4645 7.84C41.1179 8.24 41.5579 8.65333 41.7845 9.08C42.1312 9.64 42.3045 10.3 42.3045 11.06C42.3045 12.3533 41.8312 13.38 40.8845 14.14C39.9379 14.9 38.7179 15.28 37.2245 15.28ZM51.967 6.56V0.999999H54.707V15H51.967V9.2H46.767V15H44.007V0.999999H46.767V6.56H51.967ZM69.3078 15H66.3078L65.4678 12.48H59.8878L59.0478 15H56.0678L60.9678 0.999999H64.3878L69.3078 15ZM62.6878 4.18L60.7678 9.9H64.6078L62.6878 4.18ZM76.2272 7.8L81.6072 15H78.4272L73.4272 8.44V15H70.6672V0.999999H73.4272V7.18L78.2272 0.999999H81.4072L76.2272 7.8ZM82.9719 15V0.999999H85.7319V15H82.9719ZM98.9834 15H96.0034L93.1834 10.14H91.0834V15H88.3234V0.999999H93.9234C95.2168 0.999999 96.3168 1.45333 97.2234 2.36C98.1301 3.26667 98.5834 4.36 98.5834 5.64C98.5834 6.50667 98.3368 7.31333 97.8434 8.06C97.3501 8.79333 96.6968 9.34667 95.8834 9.72L98.9834 15ZM93.9234 3.58H91.0834V7.72H93.9234C94.4434 7.72 94.8901 7.52 95.2634 7.12C95.6368 6.70667 95.8234 6.21333 95.8234 5.64C95.8234 5.06667 95.6368 4.58 95.2634 4.18C94.8901 3.78 94.4434 3.58 93.9234 3.58Z" fill="black"/>
</svg>
