<svg width="390" height="342" viewBox="0 0 390 342" fill="none" xmlns="http://www.w3.org/2000/svg">
<path d="M73.0002 216.092C69.5859 216.092 66.2049 215.425 63.0505 214.13C59.896 212.834 57.0298 210.935 54.6155 208.541C52.2011 206.147 50.286 203.305 48.9794 200.177C47.6728 197.049 47.0002 193.696 47.0002 190.311L73.0002 190.311L73.0002 216.092Z" fill="#FF7F5C"/>
<g filter="url(#filter0_dddddd_1_884)">
<rect x="59.0002" y="50.6606" width="53.2174" height="159.047" rx="26.6087" fill="white"/>
<rect x="59.3026" y="50.963" width="52.6126" height="158.443" rx="26.3063" stroke="#E2E2E2" stroke-width="0.604743"/>
</g>
<path d="M79.0817 184.444C80.1044 184.444 80.9469 184.766 81.6093 185.409C82.2716 186.042 82.6028 186.865 82.6028 187.878C82.6028 188.891 82.2716 189.719 81.6093 190.362C80.9469 191.004 80.1044 191.326 79.0817 191.326C78.0492 191.326 77.2018 191.004 76.5395 190.362C75.8869 189.719 75.5606 188.891 75.5606 187.878C75.5606 187.089 75.7651 186.407 76.1742 185.832L79.4615 180.909H81.0102L78.5995 184.474C78.8138 184.454 78.9745 184.444 79.0817 184.444ZM77.5038 189.441C77.9128 189.831 78.4388 190.026 79.0817 190.026C79.7245 190.026 80.2456 189.831 80.645 189.441C81.0541 189.042 81.2586 188.521 81.2586 187.878C81.2586 187.235 81.0541 186.719 80.645 186.329C80.2456 185.94 79.7245 185.745 79.0817 185.745C78.4291 185.745 77.9031 185.94 77.5038 186.329C77.1044 186.719 76.9047 187.235 76.9047 187.878C76.9047 188.521 77.1044 189.042 77.5038 189.441ZM89.5798 184.152C89.5798 184.941 89.3704 185.628 88.9515 186.212H88.9662L85.6642 191.136H84.1301L86.5554 187.556C86.3412 187.576 86.1756 187.586 86.0587 187.586C85.0262 187.586 84.1788 187.269 83.5165 186.636C82.8639 185.993 82.5376 185.165 82.5376 184.152C82.5376 183.139 82.8639 182.316 83.5165 181.683C84.1788 181.04 85.0262 180.719 86.0587 180.719C87.0912 180.719 87.9337 181.04 88.5863 181.683C89.2486 182.316 89.5798 183.139 89.5798 184.152ZM84.4808 182.604C84.0814 182.993 83.8817 183.509 83.8817 184.152C83.8817 184.795 84.0814 185.316 84.4808 185.716C84.8899 186.105 85.4158 186.3 86.0587 186.3C86.7015 186.3 87.2227 186.105 87.622 185.716C88.0311 185.316 88.2356 184.795 88.2356 184.152C88.2356 183.509 88.036 182.993 87.6366 182.604C87.2373 182.214 86.7113 182.019 86.0587 182.019C85.4158 182.019 84.8899 182.214 84.4808 182.604Z" fill="#0B1018"/>
<path d="M84.0528 78.6567C84.1806 78.3899 84.364 78.1788 84.603 78.0231C84.842 77.862 85.117 77.7814 85.4283 77.7814C85.8951 77.7814 86.2869 77.9453 86.6037 78.2732C86.9205 78.6011 87.0789 79.0013 87.0789 79.4737V81.9912H81.2435V79.6571C81.2435 79.2013 81.3963 78.8151 81.7019 78.4983C82.0076 78.1815 82.3855 78.0231 82.8357 78.0231C83.3525 78.0231 83.7582 78.2343 84.0528 78.6567ZM81.9687 79.6571V81.2159H83.7527V79.6571C83.7527 79.4125 83.6665 79.2069 83.4943 79.0402C83.322 78.8734 83.1108 78.7901 82.8607 78.7901C82.6162 78.7901 82.4078 78.8762 82.2355 79.0485C82.0576 79.2152 81.9687 79.4181 81.9687 79.6571ZM86.3536 79.4737C86.3536 79.2125 86.2619 78.9929 86.0785 78.8151C85.8951 78.6372 85.67 78.5483 85.4033 78.5483C85.1421 78.5483 84.9198 78.64 84.7364 78.8234C84.553 79.0013 84.4613 79.218 84.4613 79.4737V81.2159H86.3536V79.4737ZM81.2435 73.2906H81.977V75.0162H87.0789V75.7832H81.977V77.5004H81.2435V73.2906ZM87.1872 70.1145C87.1872 70.9981 86.8955 71.7289 86.3119 72.3069C85.7284 72.8793 85.0115 73.1656 84.1612 73.1656C83.3109 73.1656 82.5939 72.8793 82.0104 72.3069C81.4269 71.7289 81.1351 70.9981 81.1351 70.1145C81.1351 69.581 81.2629 69.0919 81.5185 68.6473C81.7742 68.1971 82.1188 67.847 82.5522 67.5969L82.9441 68.2722C82.6217 68.4389 82.3661 68.689 82.1771 69.0224C81.9826 69.3503 81.8853 69.7143 81.8853 70.1145C81.8853 70.7869 82.1021 71.3371 82.5356 71.7651C82.9691 72.1874 83.5109 72.3986 84.1612 72.3986C84.8058 72.3986 85.3449 72.1874 85.7784 71.7651C86.2119 71.3371 86.4286 70.7869 86.4286 70.1145C86.4286 69.7143 86.3341 69.3503 86.1452 69.0224C85.9507 68.689 85.695 68.4389 85.3783 68.2722L85.7617 67.5969C86.1952 67.8414 86.5426 68.1888 86.8038 68.639C87.0594 69.0891 87.1872 69.581 87.1872 70.1145Z" fill="#0B1018"/>
<path d="M93.8883 187.237C93.6364 187.237 93.4271 187.154 93.2603 186.987C93.0936 186.82 93.0103 186.617 93.0103 186.376C93.0103 186.139 93.0936 185.937 93.2603 185.77C93.4308 185.6 93.6401 185.514 93.8883 185.514C94.1403 185.514 94.3496 185.598 94.5163 185.764C94.6831 185.931 94.7664 186.135 94.7664 186.376C94.7664 186.617 94.6831 186.82 94.5163 186.987C94.3533 187.154 94.144 187.237 93.8883 187.237ZM93.566 186.704C93.6512 186.789 93.7587 186.831 93.8883 186.831C94.018 186.831 94.1236 186.787 94.2051 186.698C94.2903 186.609 94.3329 186.502 94.3329 186.376C94.3329 186.25 94.2903 186.144 94.2051 186.059C94.1236 185.97 94.018 185.926 93.8883 185.926C93.7587 185.926 93.6512 185.97 93.566 186.059C93.4845 186.144 93.4437 186.25 93.4437 186.376C93.4437 186.505 93.4845 186.615 93.566 186.704ZM93.2715 188.927L95.8557 186.037L96.128 186.187L93.5382 189.082L93.2715 188.927ZM96.1947 189.293C96.028 189.46 95.8187 189.543 95.5667 189.543C95.3148 189.543 95.1054 189.46 94.9387 189.293C94.772 189.127 94.6886 188.923 94.6886 188.682C94.6886 188.441 94.772 188.237 94.9387 188.071C95.1054 187.904 95.3148 187.821 95.5667 187.821C95.8187 187.821 96.028 187.904 96.1947 188.071C96.3614 188.237 96.4448 188.441 96.4448 188.682C96.4448 188.923 96.3614 189.127 96.1947 189.293ZM95.2444 189.004C95.3296 189.09 95.437 189.132 95.5667 189.132C95.6964 189.132 95.802 189.09 95.8835 189.004C95.9687 188.915 96.0113 188.808 96.0113 188.682C96.0113 188.556 95.9687 188.451 95.8835 188.365C95.802 188.276 95.6964 188.232 95.5667 188.232C95.437 188.232 95.3296 188.276 95.2444 188.365C95.1629 188.451 95.1221 188.556 95.1221 188.682C95.1221 188.808 95.1629 188.915 95.2444 189.004Z" fill="#0B1018"/>
<g filter="url(#filter1_dddddd_1_884)">
<rect x="121.894" y="50.6606" width="53.2174" height="159.047" rx="26.6087" fill="white"/>
<rect x="122.196" y="50.963" width="52.6126" height="158.443" rx="26.3063" stroke="#E2E2E2" stroke-width="0.604743"/>
</g>
<path d="M144.006 185.847C144.503 186.1 144.892 186.441 145.175 186.87C145.457 187.298 145.598 187.785 145.598 188.331C145.598 189.266 145.272 190.001 144.62 190.537C143.967 191.063 143.124 191.326 142.092 191.326C141.069 191.326 140.232 191.063 139.579 190.537C138.926 190.001 138.6 189.266 138.6 188.331C138.6 187.785 138.741 187.298 139.024 186.87C139.306 186.441 139.696 186.1 140.193 185.847C139.355 185.321 138.936 184.576 138.936 183.612C138.936 182.686 139.243 181.975 139.857 181.479C140.48 180.972 141.225 180.719 142.092 180.719C142.969 180.719 143.714 180.972 144.327 181.479C144.951 181.975 145.262 182.686 145.262 183.612C145.262 184.576 144.844 185.321 144.006 185.847ZM142.092 182.019C141.576 182.019 141.142 182.155 140.792 182.428C140.451 182.701 140.28 183.105 140.28 183.641C140.28 184.157 140.456 184.561 140.806 184.854C141.157 185.136 141.585 185.277 142.092 185.277C142.598 185.277 143.027 185.136 143.378 184.854C143.728 184.561 143.904 184.157 143.904 183.641C143.904 183.105 143.733 182.701 143.392 182.428C143.051 182.155 142.618 182.019 142.092 182.019ZM142.092 190.026C142.745 190.026 143.266 189.875 143.655 189.573C144.055 189.261 144.254 188.818 144.254 188.243C144.254 187.678 144.055 187.245 143.655 186.943C143.266 186.631 142.745 186.475 142.092 186.475C141.449 186.475 140.928 186.631 140.529 186.943C140.139 187.245 139.944 187.678 139.944 188.243C139.944 188.818 140.139 189.261 140.529 189.573C140.928 189.875 141.449 190.026 142.092 190.026ZM146.39 191.136V190.026L149.998 186.344C150.963 185.38 151.445 184.552 151.445 183.86C151.445 183.285 151.27 182.837 150.919 182.516C150.568 182.194 150.14 182.034 149.633 182.034C148.669 182.034 147.968 182.492 147.529 183.407L146.39 182.735C146.711 182.073 147.154 181.571 147.719 181.23C148.294 180.889 148.927 180.719 149.619 180.719C150.476 180.719 151.221 181.001 151.854 181.566C152.487 182.131 152.804 182.891 152.804 183.845C152.804 184.878 152.195 186.003 150.977 187.22L148.362 189.821H152.994V191.136H146.39Z" fill="#0B1018"/>
<path d="M149.447 79.5427V77.0252H150.181V80.318H144.345V79.5427H149.447ZM144.345 73.1072H145.079V74.8328H150.181V75.5997H145.079V77.317H144.345V73.1072ZM150.289 69.931C150.289 70.8147 149.997 71.5455 149.414 72.1235C148.83 72.6959 148.113 72.9821 147.263 72.9821C146.413 72.9821 145.696 72.6959 145.112 72.1235C144.529 71.5455 144.237 70.8147 144.237 69.931C144.237 69.3975 144.365 68.9085 144.62 68.4639C144.876 68.0137 145.221 67.6636 145.654 67.4135L146.046 68.0887C145.724 68.2555 145.468 68.5055 145.279 68.839C145.085 69.1669 144.987 69.5309 144.987 69.931C144.987 70.6035 145.204 71.1537 145.638 71.5816C146.071 72.004 146.613 72.2152 147.263 72.2152C147.908 72.2152 148.447 72.004 148.88 71.5816C149.314 71.1537 149.531 70.6035 149.531 69.931C149.531 69.5309 149.436 69.1669 149.247 68.839C149.053 68.5055 148.797 68.2555 148.48 68.0887L148.864 67.4135C149.297 67.658 149.644 68.0054 149.906 68.4555C150.161 68.9057 150.289 69.3975 150.289 69.931Z" fill="#0B1018"/>
<path d="M156.782 187.237C156.53 187.237 156.321 187.154 156.154 186.987C155.987 186.82 155.904 186.617 155.904 186.376C155.904 186.139 155.987 185.937 156.154 185.77C156.324 185.6 156.534 185.514 156.782 185.514C157.034 185.514 157.243 185.598 157.41 185.764C157.577 185.931 157.66 186.135 157.66 186.376C157.66 186.617 157.577 186.82 157.41 186.987C157.247 187.154 157.038 187.237 156.782 187.237ZM156.46 186.704C156.545 186.789 156.652 186.831 156.782 186.831C156.912 186.831 157.017 186.787 157.099 186.698C157.184 186.609 157.227 186.502 157.227 186.376C157.227 186.25 157.184 186.144 157.099 186.059C157.017 185.97 156.912 185.926 156.782 185.926C156.652 185.926 156.545 185.97 156.46 186.059C156.378 186.144 156.337 186.25 156.337 186.376C156.337 186.505 156.378 186.615 156.46 186.704ZM156.165 188.927L158.749 186.037L159.022 186.187L156.432 189.082L156.165 188.927ZM159.088 189.293C158.922 189.46 158.712 189.543 158.46 189.543C158.208 189.543 157.999 189.46 157.832 189.293C157.666 189.127 157.582 188.923 157.582 188.682C157.582 188.441 157.666 188.237 157.832 188.071C157.999 187.904 158.208 187.821 158.46 187.821C158.712 187.821 158.922 187.904 159.088 188.071C159.255 188.237 159.338 188.441 159.338 188.682C159.338 188.923 159.255 189.127 159.088 189.293ZM158.138 189.004C158.223 189.09 158.331 189.132 158.46 189.132C158.59 189.132 158.696 189.09 158.777 189.004C158.862 188.915 158.905 188.808 158.905 188.682C158.905 188.556 158.862 188.451 158.777 188.365C158.696 188.276 158.59 188.232 158.46 188.232C158.331 188.232 158.223 188.276 158.138 188.365C158.056 188.451 158.016 188.556 158.016 188.682C158.016 188.808 158.056 188.915 158.138 189.004Z" fill="#0B1018"/>
<g filter="url(#filter2_dddddd_1_884)">
<path d="M184.787 77.2694C184.787 62.5738 196.7 50.6606 211.395 50.6606V50.6606C226.091 50.6606 238.004 62.5738 238.004 77.2693V183.099C238.004 197.795 226.091 209.708 211.395 209.708V209.708C196.7 209.708 184.787 197.795 184.787 183.099V77.2694Z" fill="#4F46BA"/>
</g>
<path d="M210.393 184.152C210.393 184.941 210.184 185.628 209.765 186.212H209.78L206.478 191.136H204.944L207.369 187.556C207.155 187.576 206.989 187.586 206.872 187.586C205.84 187.586 204.992 187.269 204.33 186.636C203.677 185.993 203.351 185.165 203.351 184.152C203.351 183.139 203.677 182.316 204.33 181.683C204.992 181.04 205.84 180.719 206.872 180.719C207.905 180.719 208.747 181.04 209.4 181.683C210.062 182.316 210.393 183.139 210.393 184.152ZM205.294 182.604C204.895 182.993 204.695 183.509 204.695 184.152C204.695 184.795 204.895 185.316 205.294 185.716C205.703 186.105 206.229 186.3 206.872 186.3C207.515 186.3 208.036 186.105 208.436 185.716C208.845 185.316 209.049 184.795 209.049 184.152C209.049 183.509 208.849 182.993 208.45 182.604C208.051 182.214 207.525 182.019 206.872 182.019C206.229 182.019 205.703 182.214 205.294 182.604ZM218.255 184.152C218.255 184.941 218.046 185.628 217.627 186.212H217.641L214.339 191.136H212.805L215.231 187.556C215.016 187.576 214.851 187.586 214.734 187.586C213.701 187.586 212.854 187.269 212.192 186.636C211.539 185.993 211.213 185.165 211.213 184.152C211.213 183.139 211.539 182.316 212.192 181.683C212.854 181.04 213.701 180.719 214.734 180.719C215.766 180.719 216.609 181.04 217.261 181.683C217.924 182.316 218.255 183.139 218.255 184.152ZM213.156 182.604C212.757 182.993 212.557 183.509 212.557 184.152C212.557 184.795 212.757 185.316 213.156 185.716C213.565 186.105 214.091 186.3 214.734 186.3C215.377 186.3 215.898 186.105 216.297 185.716C216.706 185.316 216.911 184.795 216.911 184.152C216.911 183.509 216.711 182.993 216.312 182.604C215.912 182.214 215.386 182.019 214.734 182.019C214.091 182.019 213.565 182.214 213.156 182.604Z" fill="white"/>
<path d="M221.679 187.237C221.427 187.237 221.218 187.154 221.051 186.987C220.884 186.82 220.801 186.617 220.801 186.376C220.801 186.139 220.884 185.937 221.051 185.77C221.221 185.6 221.431 185.514 221.679 185.514C221.931 185.514 222.14 185.598 222.307 185.764C222.474 185.931 222.557 186.135 222.557 186.376C222.557 186.617 222.474 186.82 222.307 186.987C222.144 187.154 221.935 187.237 221.679 187.237ZM221.357 186.704C221.442 186.789 221.549 186.831 221.679 186.831C221.809 186.831 221.914 186.787 221.996 186.698C222.081 186.609 222.124 186.502 222.124 186.376C222.124 186.25 222.081 186.144 221.996 186.059C221.914 185.97 221.809 185.926 221.679 185.926C221.549 185.926 221.442 185.97 221.357 186.059C221.275 186.144 221.234 186.25 221.234 186.376C221.234 186.505 221.275 186.615 221.357 186.704ZM221.062 188.927L223.646 186.037L223.919 186.187L221.329 189.082L221.062 188.927ZM223.985 189.293C223.819 189.46 223.609 189.543 223.357 189.543C223.105 189.543 222.896 189.46 222.729 189.293C222.563 189.127 222.479 188.923 222.479 188.682C222.479 188.441 222.563 188.237 222.729 188.071C222.896 187.904 223.105 187.821 223.357 187.821C223.609 187.821 223.819 187.904 223.985 188.071C224.152 188.237 224.235 188.441 224.235 188.682C224.235 188.923 224.152 189.127 223.985 189.293ZM223.035 189.004C223.12 189.09 223.228 189.132 223.357 189.132C223.487 189.132 223.593 189.09 223.674 189.004C223.759 188.915 223.802 188.808 223.802 188.682C223.802 188.556 223.759 188.451 223.674 188.365C223.593 188.276 223.487 188.232 223.357 188.232C223.228 188.232 223.12 188.276 223.035 188.365C222.954 188.451 222.913 188.556 222.913 188.682C222.913 188.808 222.954 188.915 223.035 189.004Z" fill="white"/>
<path d="M213.073 77.2901V78.1737L210.773 79.6076L213.073 81.0414V81.9167L210.072 80.0411L207.238 81.8084V80.9331L209.364 79.6076L207.238 78.2821V77.4068L210.064 79.1658L213.073 77.2901ZM213.073 73.0649L210.839 74.3737V75.7492H213.073V76.5245H207.238V74.1903C207.238 73.6901 207.416 73.2622 207.772 72.9065C208.122 72.5508 208.547 72.373 209.047 72.373C209.425 72.373 209.77 72.4869 210.081 72.7148C210.392 72.9371 210.612 73.2261 210.739 73.5817L213.073 72.2063V73.0649ZM207.963 75.7492H210.139V74.1903C210.139 73.9013 210.034 73.6568 209.822 73.4567C209.606 73.2511 209.347 73.1483 209.047 73.1483C208.747 73.1483 208.491 73.2511 208.28 73.4567C208.069 73.6568 207.963 73.9013 207.963 74.1903V75.7492ZM207.238 69.3108C207.238 68.7717 207.419 68.3244 207.78 67.9687C208.136 67.6074 208.58 67.4268 209.114 67.4268C209.642 67.4268 210.086 67.6074 210.448 67.9687C210.809 68.3244 210.989 68.7717 210.989 69.3108V70.653H213.073V71.4282H207.238V69.3108ZM210.264 69.3108C210.264 68.9885 210.156 68.7217 209.939 68.5105C209.717 68.2994 209.442 68.1938 209.114 68.1938C208.78 68.1938 208.505 68.2994 208.288 68.5105C208.072 68.7217 207.963 68.9885 207.963 69.3108V70.653H210.264V69.3108Z" fill="white"/>
<g filter="url(#filter3_dddddd_1_884)">
<rect x="247.68" y="50.6606" width="53.2174" height="159.047" rx="26.6087" fill="white"/>
<rect x="247.983" y="50.963" width="52.6126" height="158.443" rx="26.3063" stroke="#E2E2E2" stroke-width="0.604743"/>
</g>
<path d="M267.762 184.444C268.784 184.444 269.627 184.766 270.289 185.409C270.952 186.042 271.283 186.865 271.283 187.878C271.283 188.891 270.952 189.719 270.289 190.362C269.627 191.004 268.784 191.326 267.762 191.326C266.729 191.326 265.882 191.004 265.219 190.362C264.567 189.719 264.241 188.891 264.241 187.878C264.241 187.089 264.445 186.407 264.854 185.832L268.141 180.909H269.69L267.279 184.474C267.494 184.454 267.654 184.444 267.762 184.444ZM266.184 189.441C266.593 189.831 267.119 190.026 267.762 190.026C268.404 190.026 268.926 189.831 269.325 189.441C269.734 189.042 269.939 188.521 269.939 187.878C269.939 187.235 269.734 186.719 269.325 186.329C268.926 185.94 268.404 185.745 267.762 185.745C267.109 185.745 266.583 185.94 266.184 186.329C265.784 186.719 265.585 187.235 265.585 187.878C265.585 188.521 265.784 189.042 266.184 189.441ZM278.26 184.152C278.26 184.941 278.05 185.628 277.631 186.212H277.646L274.344 191.136H272.81L275.235 187.556C275.021 187.576 274.856 187.586 274.739 187.586C273.706 187.586 272.859 187.269 272.196 186.636C271.544 185.993 271.218 185.165 271.218 184.152C271.218 183.139 271.544 182.316 272.196 181.683C272.859 181.04 273.706 180.719 274.739 180.719C275.771 180.719 276.614 181.04 277.266 181.683C277.929 182.316 278.26 183.139 278.26 184.152ZM273.161 182.604C272.761 182.993 272.562 183.509 272.562 184.152C272.562 184.795 272.761 185.316 273.161 185.716C273.57 186.105 274.096 186.3 274.739 186.3C275.381 186.3 275.903 186.105 276.302 185.716C276.711 185.316 276.916 184.795 276.916 184.152C276.916 183.509 276.716 182.993 276.317 182.604C275.917 182.214 275.391 182.019 274.739 182.019C274.096 182.019 273.57 182.214 273.161 182.604Z" fill="#0B1018"/>
<path d="M272.733 76.4668C272.861 76.2 273.044 75.9888 273.283 75.8332C273.522 75.6721 273.797 75.5915 274.108 75.5915C274.575 75.5915 274.967 75.7554 275.284 76.0833C275.6 76.4112 275.759 76.8114 275.759 77.2838V79.8013H269.923V77.4672C269.923 77.0114 270.076 76.6252 270.382 76.3084C270.688 75.9916 271.065 75.8332 271.516 75.8332C272.032 75.8332 272.438 76.0444 272.733 76.4668ZM270.649 77.4672V79.026H272.433V77.4672C272.433 77.2226 272.346 77.017 272.174 76.8503C272.002 76.6835 271.791 76.6002 271.541 76.6002C271.296 76.6002 271.088 76.6863 270.915 76.8586C270.738 77.0253 270.649 77.2282 270.649 77.4672ZM275.034 77.2838C275.034 77.0226 274.942 76.803 274.758 76.6252C274.575 76.4473 274.35 76.3584 274.083 76.3584C273.822 76.3584 273.6 76.4501 273.416 76.6335C273.233 76.8114 273.141 77.0281 273.141 77.2838V79.026H275.034V77.2838ZM275.025 73.8973V71.3797H275.759V74.6725H269.923V73.8973H275.025ZM269.923 67.4617H270.657V69.1873H275.759V69.9543H270.657V71.6715H269.923V67.4617Z" fill="#0B1018"/>
<path d="M282.568 187.237C282.316 187.237 282.107 187.154 281.94 186.987C281.774 186.82 281.69 186.617 281.69 186.376C281.69 186.139 281.774 185.937 281.94 185.77C282.111 185.6 282.32 185.514 282.568 185.514C282.82 185.514 283.03 185.598 283.196 185.764C283.363 185.931 283.446 186.135 283.446 186.376C283.446 186.617 283.363 186.82 283.196 186.987C283.033 187.154 282.824 187.237 282.568 187.237ZM282.246 186.704C282.331 186.789 282.439 186.831 282.568 186.831C282.698 186.831 282.804 186.787 282.885 186.698C282.97 186.609 283.013 186.502 283.013 186.376C283.013 186.25 282.97 186.144 282.885 186.059C282.804 185.97 282.698 185.926 282.568 185.926C282.439 185.926 282.331 185.97 282.246 186.059C282.165 186.144 282.124 186.25 282.124 186.376C282.124 186.505 282.165 186.615 282.246 186.704ZM281.952 188.927L284.536 186.037L284.808 186.187L282.218 189.082L281.952 188.927ZM284.875 189.293C284.708 189.46 284.499 189.543 284.247 189.543C283.995 189.543 283.785 189.46 283.619 189.293C283.452 189.127 283.369 188.923 283.369 188.682C283.369 188.441 283.452 188.237 283.619 188.071C283.785 187.904 283.995 187.821 284.247 187.821C284.499 187.821 284.708 187.904 284.875 188.071C285.041 188.237 285.125 188.441 285.125 188.682C285.125 188.923 285.041 189.127 284.875 189.293ZM283.924 189.004C284.01 189.09 284.117 189.132 284.247 189.132C284.376 189.132 284.482 189.09 284.564 189.004C284.649 188.915 284.691 188.808 284.691 188.682C284.691 188.556 284.649 188.451 284.564 188.365C284.482 188.276 284.376 188.232 284.247 188.232C284.117 188.232 284.01 188.276 283.924 188.365C283.843 188.451 283.802 188.556 283.802 188.682C283.802 188.808 283.843 188.915 283.924 189.004Z" fill="#0B1018"/>
<path d="M335.593 107.51H336.285V108.96H337.735V109.652H336.285V111.094H335.593V109.652H334.15V108.96H335.593V107.51ZM338.86 100.483L337.552 100.958V103.584L338.86 104.059V104.884L333.025 102.708V101.833L338.86 99.6574V100.483ZM336.826 103.317V101.225L333.95 102.275L336.826 103.317ZM333.025 96.6932C333.025 95.8985 333.309 95.2399 333.875 94.7175C334.437 94.1895 335.126 93.9255 335.943 93.9255C336.76 93.9255 337.452 94.1895 338.019 94.7175C338.58 95.2399 338.86 95.8985 338.86 96.6932V98.969H333.025V96.6932ZM338.127 96.6932C338.127 96.0985 337.918 95.6122 337.502 95.2343C337.085 94.8564 336.565 94.6675 335.943 94.6675C335.32 94.6675 334.801 94.8564 334.384 95.2343C333.967 95.6122 333.759 96.0985 333.759 96.6932V98.1937H338.127V96.6932ZM333.025 90.7096C333.025 89.9149 333.309 89.2563 333.875 88.7339C334.437 88.2059 335.126 87.942 335.943 87.942C336.76 87.942 337.452 88.2059 338.019 88.7339C338.58 89.2563 338.86 89.9149 338.86 90.7096V92.9854H333.025V90.7096ZM338.127 90.7096C338.127 90.115 337.918 89.6287 337.502 89.2508C337.085 88.8728 336.565 88.6839 335.943 88.6839C335.32 88.6839 334.801 88.8728 334.384 89.2508C333.967 89.6287 333.759 90.115 333.759 90.7096V92.2101H338.127V90.7096ZM333.025 81.2915V80.5162H338.86V81.1414L334.501 84.1425H338.86V84.9178H333.025V84.2926L337.377 81.2915H333.025ZM338.127 78.4927V75.7834H338.86V79.268H333.025V75.8251H333.759V78.4927H335.551V76.0335H336.276V78.4927H338.127ZM338.86 73.5887L333.025 75.2643V74.4473L337.827 73.1135L333.025 71.6963V70.9127L337.827 69.4956L333.025 68.1618V67.3448L338.86 69.0204V69.9207L334.2 71.3045L338.86 72.6884V73.5887Z" fill="black"/>
<rect x="310.851" y="50.9385" width="52.6616" height="158.492" rx="26.3308" stroke="#607D7C" stroke-width="0.555753" stroke-dasharray="4.45 4.45"/>
<path d="M331.965 191.477L330.402 186.03H331.164L332.409 190.512L333.732 186.03H334.463L335.786 190.512L337.031 186.03H337.793L336.229 191.477H335.389L334.097 187.127L332.806 191.477H331.965ZM341.259 187.587H341.936V191.477H341.259V190.808C340.922 191.321 340.431 191.578 339.788 191.578C339.244 191.578 338.779 191.381 338.396 190.987C338.012 190.587 337.82 190.102 337.82 189.532C337.82 188.961 338.012 188.479 338.396 188.084C338.779 187.685 339.244 187.485 339.788 187.485C340.431 187.485 340.922 187.742 341.259 188.256V187.587ZM339.874 190.924C340.268 190.924 340.597 190.792 340.862 190.528C341.126 190.258 341.259 189.926 341.259 189.532C341.259 189.137 341.126 188.808 340.862 188.544C340.597 188.274 340.268 188.139 339.874 188.139C339.485 188.139 339.158 188.274 338.893 188.544C338.629 188.808 338.497 189.137 338.497 189.532C338.497 189.926 338.629 190.258 338.893 190.528C339.158 190.792 339.485 190.924 339.874 190.924ZM342.961 191.477V185.797H343.638V191.477H342.961Z" fill="#607D7C"/>
<path d="M60.213 18.4123H62.7865L65.5966 25.8517H65.7149L68.525 18.4123H71.1133V29.002H69.1314V23.7811L69.2498 22.021H69.1314L66.4396 29.002H64.8867L62.1801 22.021H62.0618L62.1801 23.7811V29.002H60.213V18.4123ZM75.4708 28.647L72.291 21.459H74.4947L76.447 26.1475H76.5653L78.4436 21.459H80.603L75.9441 32.1966H73.8587L75.4708 28.647ZM83.8488 18.4123H86.0673L87.5168 24.3579L87.6942 25.4671H87.8126L88.0492 24.3579L89.9128 18.4123H91.8798L93.699 24.3579L93.9357 25.4375H94.054L94.2315 24.3579L95.6661 18.4123H97.8846L95.1484 29.002H93.0039L91.1995 22.6126L90.9629 21.4738H90.8445L90.6079 22.6126L88.7148 29.002H86.6589L83.8488 18.4123ZM100.818 29.2386C100.019 29.2386 99.3636 29.0069 98.8509 28.5435C98.3382 28.0702 98.0818 27.4539 98.0818 26.6947C98.0818 26.1918 98.2149 25.7481 98.4812 25.3636C98.7474 24.9791 99.1122 24.6833 99.5756 24.4762C100.039 24.2691 100.552 24.1656 101.114 24.1656C101.893 24.1656 102.558 24.279 103.11 24.5058V24.1804C103.11 23.7663 102.953 23.431 102.637 23.1747C102.332 22.9183 101.917 22.7901 101.395 22.7901C101.04 22.7901 100.695 22.8739 100.36 23.0416C100.034 23.1993 99.763 23.4113 99.5461 23.6775L98.3037 22.7014C98.6685 22.2281 99.127 21.8633 99.6792 21.6069C100.231 21.3506 100.833 21.2224 101.484 21.2224C102.637 21.2224 103.515 21.4886 104.116 22.021C104.718 22.5535 105.018 23.3324 105.018 24.3579V29.002H103.11V28.2329H102.992C102.765 28.5287 102.465 28.7702 102.09 28.9576C101.725 29.1449 101.301 29.2386 100.818 29.2386ZM101.276 27.73C101.839 27.73 102.282 27.5525 102.608 27.1976C102.943 26.8327 103.11 26.4088 103.11 25.9256C102.608 25.689 102.08 25.5707 101.528 25.5707C100.522 25.5707 100.019 25.9453 100.019 26.6947C100.019 27.0004 100.128 27.2518 100.345 27.449C100.562 27.6363 100.872 27.73 101.276 27.73ZM106.801 18.4123H108.739V29.002H106.801V18.4123ZM110.643 18.4123H112.581V29.002H110.643V18.4123ZM117.948 29.2386C117.198 29.2386 116.523 29.066 115.922 28.7209C115.32 28.3758 114.847 27.9026 114.502 27.3011C114.166 26.6898 113.999 26.0045 113.999 25.2453C113.999 24.5255 114.166 23.8599 114.502 23.2486C114.837 22.6274 115.3 22.1344 115.892 21.7696C116.484 21.4048 117.144 21.2224 117.874 21.2224C118.653 21.2224 119.323 21.39 119.885 21.7252C120.447 22.0605 120.871 22.519 121.157 23.1007C121.453 23.6825 121.601 24.3283 121.601 25.0382C121.601 25.265 121.586 25.4819 121.557 25.689H115.892C115.991 26.2904 116.227 26.7489 116.602 27.0645C116.986 27.3701 117.445 27.5229 117.977 27.5229C118.421 27.5229 118.801 27.4293 119.116 27.2419C119.442 27.0447 119.698 26.7834 119.885 26.4581L121.453 27.2271C120.684 28.5681 119.516 29.2386 117.948 29.2386ZM119.737 24.3135C119.718 24.0769 119.629 23.8451 119.471 23.6184C119.323 23.3817 119.111 23.1895 118.835 23.0416C118.569 22.8838 118.253 22.8049 117.889 22.8049C117.425 22.8049 117.026 22.943 116.691 23.219C116.365 23.4853 116.129 23.8501 115.981 24.3135H119.737ZM126.16 29.1203C125.786 29.1203 125.44 29.066 125.125 28.9576C124.809 28.8393 124.553 28.6815 124.356 28.4843C123.892 28.0406 123.661 27.4096 123.661 26.5912V23.1155H122.344V21.459H123.661V19.3292H125.598V21.459H127.447V23.1155H125.598V26.2362C125.598 26.6208 125.682 26.8968 125.85 27.0645C125.988 27.2222 126.224 27.3011 126.56 27.3011C126.747 27.3011 126.9 27.2764 127.018 27.2271C127.146 27.1778 127.309 27.094 127.506 26.9757V28.8688C127.082 29.0365 126.633 29.1203 126.16 29.1203ZM132.072 29.2386C131.155 29.2386 130.411 29.0513 129.839 28.6766C129.277 28.3019 128.883 27.8138 128.656 27.2124L130.386 26.4581C130.544 26.813 130.766 27.0842 131.052 27.2715C131.348 27.449 131.688 27.5377 132.072 27.5377C132.427 27.5377 132.723 27.4835 132.96 27.375C133.196 27.2567 133.315 27.0694 133.315 26.813C133.315 26.5665 133.206 26.3841 132.989 26.2658C132.772 26.1376 132.447 26.0242 132.013 25.9256L131.126 25.7333C130.514 25.5854 130.007 25.3192 129.602 24.9347C129.198 24.5403 128.996 24.0522 128.996 23.4705C128.996 23.0366 129.124 22.6472 129.381 22.3021C129.647 21.957 130.002 21.6907 130.445 21.5034C130.899 21.316 131.397 21.2224 131.939 21.2224C133.497 21.2224 134.537 21.7696 135.06 22.8641L133.403 23.5888C133.108 23.0563 132.634 22.7901 131.984 22.7901C131.648 22.7901 131.382 22.8542 131.185 22.9824C130.988 23.1007 130.889 23.2535 130.889 23.4409C130.889 23.7958 131.224 24.0621 131.895 24.2396L133.004 24.5058C133.753 24.6931 134.315 24.9791 134.69 25.3636C135.075 25.7481 135.267 26.2214 135.267 26.7834C135.267 27.2666 135.124 27.6955 134.838 28.0702C134.562 28.435 134.177 28.7209 133.684 28.928C133.201 29.1351 132.664 29.2386 132.072 29.2386Z" fill="#3B3B3B"/>
<rect x="343.229" y="12.6035" width="21.7708" height="21.5878" rx="6.04743" fill="white"/>
<path d="M350.486 24.5966C351.154 24.5966 351.695 24.0597 351.695 23.3973C351.695 22.735 351.154 22.198 350.486 22.198C349.818 22.198 349.276 22.735 349.276 23.3973C349.276 24.0597 349.818 24.5966 350.486 24.5966Z" fill="#3246D3"/>
<path d="M354.114 24.5966C354.782 24.5966 355.324 24.0597 355.324 23.3973C355.324 22.735 354.782 22.198 354.114 22.198C353.446 22.198 352.905 22.735 352.905 23.3973C352.905 24.0597 353.446 24.5966 354.114 24.5966Z" fill="#3246D3"/>
<path d="M357.743 24.5966C358.411 24.5966 358.952 24.0597 358.952 23.3973C358.952 22.735 358.411 22.198 357.743 22.198C357.075 22.198 356.533 22.735 356.533 23.3973C356.533 24.0597 357.075 24.5966 357.743 24.5966Z" fill="#3246D3"/>
<path d="M385.778 75.8328L379.508 68.9939L385.778 62.7767L380.449 57.4922L385.778 52.2076L380.449 46.923L385.778 41.6384L380.449 36.3538L385.778 31.0693L380.449 25.7847L385.778 20.5001L380.449 15.2155L385.778 9.93093L380.449 4.64635" stroke="#E6EFFF" stroke-width="1.25397" stroke-linecap="round" stroke-linejoin="round"/>
<path d="M380.762 1.54287C382.499 1.54287 383.897 2.93724 383.897 4.64617C383.897 6.3551 382.499 7.74948 380.762 7.74948C379.026 7.74948 377.627 6.3551 377.627 4.64617C377.627 2.93724 379.026 1.54287 380.762 1.54287Z" fill="#002F86" stroke="white" stroke-width="1.25397"/>
<path d="M385.778 72.4184C387.515 72.4184 388.913 73.8127 388.913 75.5217C388.913 77.2306 387.515 78.625 385.778 78.625C384.042 78.625 382.643 77.2306 382.643 75.5217C382.643 73.8127 384.042 72.4184 385.778 72.4184Z" fill="#002F86" stroke="white" stroke-width="1.25397"/>
<defs>
<filter id="filter0_dddddd_1_884" x="0.558811" y="49.7137" width="170.1" height="291.488" filterUnits="userSpaceOnUse" color-interpolation-filters="sRGB">
<feFlood flood-opacity="0" result="BackgroundImageFix"/>
<feColorMatrix in="SourceAlpha" type="matrix" values="0 0 0 0 0 0 0 0 0 0 0 0 0 0 0 0 0 0 127 0" result="hardAlpha"/>
<feOffset dy="1.35281"/>
<feGaussianBlur stdDeviation="1.14989"/>
<feColorMatrix type="matrix" values="0 0 0 0 0 0 0 0 0 0 0 0 0 0 0 0 0 0 0.01 0"/>
<feBlend mode="normal" in2="BackgroundImageFix" result="effect1_dropShadow_1_884"/>
<feColorMatrix in="SourceAlpha" type="matrix" values="0 0 0 0 0 0 0 0 0 0 0 0 0 0 0 0 0 0 127 0" result="hardAlpha"/>
<feOffset dy="5.95237"/>
<feGaussianBlur stdDeviation="2.38095"/>
<feColorMatrix type="matrix" values="0 0 0 0 0 0 0 0 0 0 0 0 0 0 0 0 0 0 0.01 0"/>
<feBlend mode="normal" in2="effect1_dropShadow_1_884" result="effect2_dropShadow_1_884"/>
<feColorMatrix in="SourceAlpha" type="matrix" values="0 0 0 0 0 0 0 0 0 0 0 0 0 0 0 0 0 0 127 0" result="hardAlpha"/>
<feOffset dy="14.6104"/>
<feGaussianBlur stdDeviation="4.74837"/>
<feColorMatrix type="matrix" values="0 0 0 0 0 0 0 0 0 0 0 0 0 0 0 0 0 0 0.01 0"/>
<feBlend mode="normal" in2="effect2_dropShadow_1_884" result="effect3_dropShadow_1_884"/>
<feColorMatrix in="SourceAlpha" type="matrix" values="0 0 0 0 0 0 0 0 0 0 0 0 0 0 0 0 0 0 127 0" result="hardAlpha"/>
<feOffset dy="28.1385"/>
<feGaussianBlur stdDeviation="9.30734"/>
<feColorMatrix type="matrix" values="0 0 0 0 0 0 0 0 0 0 0 0 0 0 0 0 0 0 0.01 0"/>
<feBlend mode="normal" in2="effect3_dropShadow_1_884" result="effect4_dropShadow_1_884"/>
<feColorMatrix in="SourceAlpha" type="matrix" values="0 0 0 0 0 0 0 0 0 0 0 0 0 0 0 0 0 0 127 0" result="hardAlpha"/>
<feOffset dy="47.3484"/>
<feGaussianBlur stdDeviation="17.1131"/>
<feColorMatrix type="matrix" values="0 0 0 0 0 0 0 0 0 0 0 0 0 0 0 0 0 0 0.01 0"/>
<feBlend mode="normal" in2="effect4_dropShadow_1_884" result="effect5_dropShadow_1_884"/>
<feColorMatrix in="SourceAlpha" type="matrix" values="0 0 0 0 0 0 0 0 0 0 0 0 0 0 0 0 0 0 127 0" result="hardAlpha"/>
<feOffset dy="73.0518"/>
<feGaussianBlur stdDeviation="29.2207"/>
<feColorMatrix type="matrix" values="0 0 0 0 0 0 0 0 0 0 0 0 0 0 0 0 0 0 0.01 0"/>
<feBlend mode="normal" in2="effect5_dropShadow_1_884" result="effect6_dropShadow_1_884"/>
<feBlend mode="normal" in="SourceGraphic" in2="effect6_dropShadow_1_884" result="shape"/>
</filter>
<filter id="filter1_dddddd_1_884" x="63.4524" y="49.7137" width="170.1" height="291.488" filterUnits="userSpaceOnUse" color-interpolation-filters="sRGB">
<feFlood flood-opacity="0" result="BackgroundImageFix"/>
<feColorMatrix in="SourceAlpha" type="matrix" values="0 0 0 0 0 0 0 0 0 0 0 0 0 0 0 0 0 0 127 0" result="hardAlpha"/>
<feOffset dy="1.35281"/>
<feGaussianBlur stdDeviation="1.14989"/>
<feColorMatrix type="matrix" values="0 0 0 0 0 0 0 0 0 0 0 0 0 0 0 0 0 0 0.01 0"/>
<feBlend mode="normal" in2="BackgroundImageFix" result="effect1_dropShadow_1_884"/>
<feColorMatrix in="SourceAlpha" type="matrix" values="0 0 0 0 0 0 0 0 0 0 0 0 0 0 0 0 0 0 127 0" result="hardAlpha"/>
<feOffset dy="5.95237"/>
<feGaussianBlur stdDeviation="2.38095"/>
<feColorMatrix type="matrix" values="0 0 0 0 0 0 0 0 0 0 0 0 0 0 0 0 0 0 0.01 0"/>
<feBlend mode="normal" in2="effect1_dropShadow_1_884" result="effect2_dropShadow_1_884"/>
<feColorMatrix in="SourceAlpha" type="matrix" values="0 0 0 0 0 0 0 0 0 0 0 0 0 0 0 0 0 0 127 0" result="hardAlpha"/>
<feOffset dy="14.6104"/>
<feGaussianBlur stdDeviation="4.74837"/>
<feColorMatrix type="matrix" values="0 0 0 0 0 0 0 0 0 0 0 0 0 0 0 0 0 0 0.01 0"/>
<feBlend mode="normal" in2="effect2_dropShadow_1_884" result="effect3_dropShadow_1_884"/>
<feColorMatrix in="SourceAlpha" type="matrix" values="0 0 0 0 0 0 0 0 0 0 0 0 0 0 0 0 0 0 127 0" result="hardAlpha"/>
<feOffset dy="28.1385"/>
<feGaussianBlur stdDeviation="9.30734"/>
<feColorMatrix type="matrix" values="0 0 0 0 0 0 0 0 0 0 0 0 0 0 0 0 0 0 0.01 0"/>
<feBlend mode="normal" in2="effect3_dropShadow_1_884" result="effect4_dropShadow_1_884"/>
<feColorMatrix in="SourceAlpha" type="matrix" values="0 0 0 0 0 0 0 0 0 0 0 0 0 0 0 0 0 0 127 0" result="hardAlpha"/>
<feOffset dy="47.3484"/>
<feGaussianBlur stdDeviation="17.1131"/>
<feColorMatrix type="matrix" values="0 0 0 0 0 0 0 0 0 0 0 0 0 0 0 0 0 0 0.01 0"/>
<feBlend mode="normal" in2="effect4_dropShadow_1_884" result="effect5_dropShadow_1_884"/>
<feColorMatrix in="SourceAlpha" type="matrix" values="0 0 0 0 0 0 0 0 0 0 0 0 0 0 0 0 0 0 127 0" result="hardAlpha"/>
<feOffset dy="73.0518"/>
<feGaussianBlur stdDeviation="29.2207"/>
<feColorMatrix type="matrix" values="0 0 0 0 0 0 0 0 0 0 0 0 0 0 0 0 0 0 0.01 0"/>
<feBlend mode="normal" in2="effect5_dropShadow_1_884" result="effect6_dropShadow_1_884"/>
<feBlend mode="normal" in="SourceGraphic" in2="effect6_dropShadow_1_884" result="shape"/>
</filter>
<filter id="filter2_dddddd_1_884" x="137.303" y="33.8587" width="148.185" height="254.015" filterUnits="userSpaceOnUse" color-interpolation-filters="sRGB">
<feFlood flood-opacity="0" result="BackgroundImageFix"/>
<feColorMatrix in="SourceAlpha" type="matrix" values="0 0 0 0 0 0 0 0 0 0 0 0 0 0 0 0 0 0 127 0" result="hardAlpha"/>
<feOffset dy="0.568181"/>
<feGaussianBlur stdDeviation="0.934285"/>
<feColorMatrix type="matrix" values="0 0 0 0 0.0784314 0 0 0 0 0.133333 0 0 0 0 0.956863 0 0 0 0.0337037 0"/>
<feBlend mode="normal" in2="BackgroundImageFix" result="effect1_dropShadow_1_884"/>
<feColorMatrix in="SourceAlpha" type="matrix" values="0 0 0 0 0 0 0 0 0 0 0 0 0 0 0 0 0 0 127 0" result="hardAlpha"/>
<feOffset dy="2.49999"/>
<feGaussianBlur stdDeviation="1.93452"/>
<feColorMatrix type="matrix" values="0 0 0 0 0.0784314 0 0 0 0 0.133333 0 0 0 0 0.956863 0 0 0 0.054963 0"/>
<feBlend mode="normal" in2="effect1_dropShadow_1_884" result="effect2_dropShadow_1_884"/>
<feColorMatrix in="SourceAlpha" type="matrix" values="0 0 0 0 0 0 0 0 0 0 0 0 0 0 0 0 0 0 127 0" result="hardAlpha"/>
<feOffset dy="6.13635"/>
<feGaussianBlur stdDeviation="3.85805"/>
<feColorMatrix type="matrix" values="0 0 0 0 0.0784314 0 0 0 0 0.133333 0 0 0 0 0.956863 0 0 0 0.07 0"/>
<feBlend mode="normal" in2="effect2_dropShadow_1_884" result="effect3_dropShadow_1_884"/>
<feColorMatrix in="SourceAlpha" type="matrix" values="0 0 0 0 0 0 0 0 0 0 0 0 0 0 0 0 0 0 127 0" result="hardAlpha"/>
<feOffset dy="11.8182"/>
<feGaussianBlur stdDeviation="7.56221"/>
<feColorMatrix type="matrix" values="0 0 0 0 0.0784314 0 0 0 0 0.133333 0 0 0 0 0.956863 0 0 0 0.085037 0"/>
<feBlend mode="normal" in2="effect3_dropShadow_1_884" result="effect4_dropShadow_1_884"/>
<feColorMatrix in="SourceAlpha" type="matrix" values="0 0 0 0 0 0 0 0 0 0 0 0 0 0 0 0 0 0 127 0" result="hardAlpha"/>
<feOffset dy="19.8863"/>
<feGaussianBlur stdDeviation="13.9044"/>
<feColorMatrix type="matrix" values="0 0 0 0 0.0784314 0 0 0 0 0.133333 0 0 0 0 0.956863 0 0 0 0.106296 0"/>
<feBlend mode="normal" in2="effect4_dropShadow_1_884" result="effect5_dropShadow_1_884"/>
<feColorMatrix in="SourceAlpha" type="matrix" values="0 0 0 0 0 0 0 0 0 0 0 0 0 0 0 0 0 0 127 0" result="hardAlpha"/>
<feOffset dy="30.6818"/>
<feGaussianBlur stdDeviation="23.7418"/>
<feColorMatrix type="matrix" values="0 0 0 0 0.0784314 0 0 0 0 0.133333 0 0 0 0 0.956863 0 0 0 0.14 0"/>
<feBlend mode="normal" in2="effect5_dropShadow_1_884" result="effect6_dropShadow_1_884"/>
<feBlend mode="normal" in="SourceGraphic" in2="effect6_dropShadow_1_884" result="shape"/>
</filter>
<filter id="filter3_dddddd_1_884" x="189.239" y="49.7137" width="170.1" height="291.488" filterUnits="userSpaceOnUse" color-interpolation-filters="sRGB">
<feFlood flood-opacity="0" result="BackgroundImageFix"/>
<feColorMatrix in="SourceAlpha" type="matrix" values="0 0 0 0 0 0 0 0 0 0 0 0 0 0 0 0 0 0 127 0" result="hardAlpha"/>
<feOffset dy="1.35281"/>
<feGaussianBlur stdDeviation="1.14989"/>
<feColorMatrix type="matrix" values="0 0 0 0 0 0 0 0 0 0 0 0 0 0 0 0 0 0 0.01 0"/>
<feBlend mode="normal" in2="BackgroundImageFix" result="effect1_dropShadow_1_884"/>
<feColorMatrix in="SourceAlpha" type="matrix" values="0 0 0 0 0 0 0 0 0 0 0 0 0 0 0 0 0 0 127 0" result="hardAlpha"/>
<feOffset dy="5.95237"/>
<feGaussianBlur stdDeviation="2.38095"/>
<feColorMatrix type="matrix" values="0 0 0 0 0 0 0 0 0 0 0 0 0 0 0 0 0 0 0.01 0"/>
<feBlend mode="normal" in2="effect1_dropShadow_1_884" result="effect2_dropShadow_1_884"/>
<feColorMatrix in="SourceAlpha" type="matrix" values="0 0 0 0 0 0 0 0 0 0 0 0 0 0 0 0 0 0 127 0" result="hardAlpha"/>
<feOffset dy="14.6104"/>
<feGaussianBlur stdDeviation="4.74837"/>
<feColorMatrix type="matrix" values="0 0 0 0 0 0 0 0 0 0 0 0 0 0 0 0 0 0 0.01 0"/>
<feBlend mode="normal" in2="effect2_dropShadow_1_884" result="effect3_dropShadow_1_884"/>
<feColorMatrix in="SourceAlpha" type="matrix" values="0 0 0 0 0 0 0 0 0 0 0 0 0 0 0 0 0 0 127 0" result="hardAlpha"/>
<feOffset dy="28.1385"/>
<feGaussianBlur stdDeviation="9.30734"/>
<feColorMatrix type="matrix" values="0 0 0 0 0 0 0 0 0 0 0 0 0 0 0 0 0 0 0.01 0"/>
<feBlend mode="normal" in2="effect3_dropShadow_1_884" result="effect4_dropShadow_1_884"/>
<feColorMatrix in="SourceAlpha" type="matrix" values="0 0 0 0 0 0 0 0 0 0 0 0 0 0 0 0 0 0 127 0" result="hardAlpha"/>
<feOffset dy="47.3484"/>
<feGaussianBlur stdDeviation="17.1131"/>
<feColorMatrix type="matrix" values="0 0 0 0 0 0 0 0 0 0 0 0 0 0 0 0 0 0 0.01 0"/>
<feBlend mode="normal" in2="effect4_dropShadow_1_884" result="effect5_dropShadow_1_884"/>
<feColorMatrix in="SourceAlpha" type="matrix" values="0 0 0 0 0 0 0 0 0 0 0 0 0 0 0 0 0 0 127 0" result="hardAlpha"/>
<feOffset dy="73.0518"/>
<feGaussianBlur stdDeviation="29.2207"/>
<feColorMatrix type="matrix" values="0 0 0 0 0 0 0 0 0 0 0 0 0 0 0 0 0 0 0.01 0"/>
<feBlend mode="normal" in2="effect5_dropShadow_1_884" result="effect6_dropShadow_1_884"/>
<feBlend mode="normal" in="SourceGraphic" in2="effect6_dropShadow_1_884" result="shape"/>
</filter>
</defs>
</svg>
