<svg width="329" height="203" viewBox="0 0 329 203" fill="none" xmlns="http://www.w3.org/2000/svg">
<path d="M26.0002 2.6782e-06C22.5859 2.52895e-06 19.2049 0.672512 16.0505 1.97913C12.896 3.28576 10.0298 5.2009 7.61547 7.61523C5.20114 10.0295 3.286 12.8958 1.97937 16.0502C0.672751 19.2047 0.000241462 22.5856 0.000241462 26L26.0002 26L26.0002 2.6782e-06Z" fill="#FF7F5C"/>
<rect x="11" y="18" width="318" height="185" fill="white"/>
<path d="M85.4921 87.1098V85.481H82.4861V84.2371H85.4921V80.4315H83.6411L82.1011 78.8914V76.1076L83.6411 74.5675H85.4921V72.9387H86.7952V74.5675H89.4458V75.8114H86.7952V79.2468H88.4685L90.0085 80.7869V83.9261L88.4685 85.481H86.7952V87.1098H85.4921ZM84.2482 79.2468H85.4921V75.8114H84.263L83.4486 76.6258V78.4472L84.2482 79.2468ZM86.7952 84.2371H87.8465L88.661 83.4227V81.2459L87.8613 80.4315H86.7952V84.2371ZM93.1804 85.481L91.6848 83.9706L92.5585 83.0969L93.7579 84.2815H97.1637L97.9781 83.4671V80.6832L97.1637 79.8688H92.1883V74.5675H98.8518V75.8114H93.5358V78.6693H97.7708L99.3257 80.2242V83.9261L97.7708 85.481H93.1804ZM100.67 87.1098L101.262 83.7336H102.565L101.425 87.1098H100.67ZM104.648 85.481V83.7336L110.482 78.003V76.5814L109.682 75.7522L106.661 75.767L105.462 76.9812L104.588 76.0928L106.084 74.5675H110.289L111.829 76.1224V78.5361L106.158 84.1482V84.2371H111.992V85.481H104.648ZM115.277 85.481L113.781 83.9706L114.655 83.0969L115.854 84.2815H119.26L120.074 83.4671V80.6832L119.26 79.8688H114.284V74.5675H120.948V75.8114H115.632V78.6693H119.867L121.422 80.2242V83.9261L119.867 85.481H115.277ZM124.987 85.481L123.432 83.9261V76.1224L124.987 74.5675H129.726L131.28 76.1224V83.9261L129.726 85.481H124.987ZM125.594 84.2815H129.118L129.933 83.4671V76.5814L129.118 75.767H125.594L124.78 76.5814L124.795 83.4671L125.594 84.2815ZM133.22 85.481V83.7336H134.524V85.481H133.22ZM138.22 85.481L136.725 83.9706L137.598 83.0969L138.798 84.2815H142.337L143.136 83.4671V80.4759L142.233 81.3792H138.279L136.739 79.8243V76.1224L138.279 74.5675H142.944L144.484 76.1224V83.9261L142.944 85.481H138.22ZM138.901 80.1797H142.129L143.136 79.1284V76.5814L142.337 75.767H138.901L138.087 76.5814V79.3653L138.901 80.1797ZM148.067 85.481L146.512 83.9261V76.1224L148.067 74.5675H152.805L154.36 76.1224V83.9261L152.805 85.481H148.067ZM148.674 84.2815H152.198L153.012 83.4671V76.5814L152.198 75.767H148.674L147.859 76.5814L147.874 83.4671L148.674 84.2815Z" fill="black"/>
<path d="M83.2279 58.0163H81.3339V57.253H85.9135V58.0163H84.0289V64H83.2279V58.0163ZM88.2221 64.1508C87.7509 64.1508 87.3269 64.0377 86.95 63.8115C86.573 63.5854 86.2778 63.2776 86.0642 62.8881C85.8569 62.4986 85.7532 62.0682 85.7532 61.5971C85.7532 61.1259 85.8569 60.6956 86.0642 60.3061C86.2778 59.9166 86.573 59.6088 86.95 59.3826C87.3269 59.1565 87.7509 59.0434 88.2221 59.0434C88.6932 59.0434 89.1173 59.1565 89.4942 59.3826C89.8711 59.6088 90.1633 59.9166 90.3706 60.3061C90.5842 60.6956 90.691 61.1259 90.691 61.5971C90.691 62.0682 90.5842 62.4986 90.3706 62.8881C90.1633 63.2776 89.8711 63.5854 89.4942 63.8115C89.1173 64.0377 88.6932 64.1508 88.2221 64.1508ZM88.2221 63.4252C88.5173 63.4252 88.7906 63.3529 89.0419 63.2085C89.2995 63.0577 89.5036 62.8441 89.6544 62.5677C89.8115 62.2913 89.89 61.9677 89.89 61.5971C89.89 61.2264 89.8115 60.9029 89.6544 60.6265C89.5036 60.3501 89.2995 60.1396 89.0419 59.9951C88.7906 59.8444 88.5173 59.769 88.2221 59.769C87.9268 59.769 87.6504 59.8444 87.3928 59.9951C87.1353 60.1396 86.928 60.3501 86.7709 60.6265C86.6201 60.9029 86.5448 61.2264 86.5448 61.5971C86.5448 61.9677 86.6201 62.2913 86.7709 62.5677C86.928 62.8441 87.1353 63.0577 87.3928 63.2085C87.6504 63.3529 87.9268 63.4252 88.2221 63.4252ZM93.33 64.0754C93.1352 64.0754 92.9531 64.044 92.7834 63.9812C92.6201 63.9183 92.4819 63.8335 92.3688 63.7267C92.2432 63.6074 92.1489 63.4692 92.0861 63.3121C92.0233 63.1551 91.9919 62.9634 91.9919 62.7373V59.9198H91.1532V59.1942H91.9919V57.8372H92.7929V59.1942H93.9613V59.9198H92.7929V62.5394C92.7929 62.8033 92.8431 62.998 92.9436 63.1236C93.063 63.2618 93.2357 63.331 93.4619 63.331C93.6441 63.331 93.82 63.2776 93.9896 63.1708V63.9529C93.8954 63.9969 93.798 64.0283 93.6975 64.0471C93.6033 64.066 93.4808 64.0754 93.33 64.0754ZM96.3779 64.1508C96.0261 64.1508 95.712 64.0817 95.4356 63.9435C95.1591 63.8053 94.9455 63.6168 94.7948 63.3781C94.644 63.1331 94.5686 62.8567 94.5686 62.5488C94.5686 62.04 94.7602 61.6442 95.1434 61.3615C95.5266 61.0725 96.0104 60.928 96.5946 60.928C96.8836 60.928 97.1506 60.9594 97.3956 61.0223C97.6469 61.0851 97.8385 61.1573 97.9704 61.239V60.9469C97.9704 60.5888 97.8448 60.303 97.5935 60.0894C97.3422 59.8695 97.0249 59.7596 96.6417 59.7596C96.3716 59.7596 96.1234 59.8192 95.8973 59.9386C95.6711 60.0517 95.4921 60.2119 95.3602 60.4192L94.7571 59.9669C94.9455 59.6779 95.2031 59.4517 95.5298 59.2884C95.8627 59.1251 96.2302 59.0434 96.6323 59.0434C97.2856 59.0434 97.7976 59.2162 98.1683 59.5617C98.5452 59.9009 98.7337 60.3658 98.7337 60.9563V64H97.9704V63.3121H97.9327C97.7945 63.5445 97.5872 63.7424 97.3108 63.9058C97.0344 64.0691 96.7234 64.1508 96.3779 64.1508ZM96.4533 63.444C96.7234 63.444 96.9747 63.3749 97.2071 63.2367C97.4396 63.0985 97.6249 62.9132 97.7631 62.6808C97.9013 62.4483 97.9704 62.1939 97.9704 61.9175C97.8196 61.817 97.6343 61.7353 97.4144 61.6725C97.1946 61.6096 96.9621 61.5782 96.7171 61.5782C96.2774 61.5782 95.9444 61.6693 95.7182 61.8515C95.4984 62.0337 95.3884 62.2693 95.3884 62.5582C95.3884 62.8221 95.489 63.0357 95.69 63.199C95.891 63.3624 96.1454 63.444 96.4533 63.444ZM99.848 57.253H100.649V64H99.848V57.253ZM104.026 59.1942H104.789V59.9009H104.827C104.959 59.6622 105.169 59.4612 105.458 59.2978C105.747 59.1282 106.055 59.0434 106.382 59.0434C106.96 59.0434 107.399 59.213 107.701 59.5522C108.009 59.8852 108.163 60.3407 108.163 60.9186V64H107.362V61.0411C107.362 60.5951 107.255 60.2716 107.041 60.0705C106.828 59.8695 106.536 59.769 106.165 59.769C105.907 59.769 105.675 59.8412 105.468 59.9857C105.267 60.1302 105.11 60.3218 104.996 60.5605C104.883 60.793 104.827 61.038 104.827 61.2955V64H104.026V59.1942ZM111.447 64.1508C110.988 64.1508 110.577 64.0408 110.213 63.821C109.848 63.6011 109.562 63.2995 109.355 62.9163C109.154 62.5268 109.054 62.0902 109.054 61.6065C109.054 61.1416 109.148 60.7144 109.336 60.3249C109.531 59.9355 109.804 59.6245 110.156 59.3921C110.508 59.1596 110.916 59.0434 111.381 59.0434C111.852 59.0434 112.261 59.1502 112.606 59.3638C112.952 59.5711 113.215 59.8601 113.398 60.2307C113.586 60.6014 113.68 61.0254 113.68 61.5028C113.68 61.5971 113.671 61.6787 113.652 61.7479H109.855C109.873 62.1122 109.961 62.42 110.118 62.6713C110.275 62.9226 110.473 63.1111 110.712 63.2367C110.957 63.3624 111.211 63.4252 111.475 63.4252C112.091 63.4252 112.565 63.1362 112.898 62.5582L113.577 62.8881C113.369 63.2776 113.087 63.5854 112.729 63.8115C112.377 64.0377 111.95 64.1508 111.447 64.1508ZM112.832 61.0882C112.82 60.8872 112.763 60.6862 112.663 60.4851C112.562 60.2841 112.402 60.1145 112.182 59.9763C111.968 59.8381 111.698 59.769 111.372 59.769C110.995 59.769 110.674 59.8915 110.411 60.1365C110.153 60.3752 109.983 60.6925 109.902 61.0882H112.832ZM116.327 64.0754C116.132 64.0754 115.95 64.044 115.78 63.9812C115.617 63.9183 115.479 63.8335 115.365 63.7267C115.24 63.6074 115.146 63.4692 115.083 63.3121C115.02 63.1551 114.989 62.9634 114.989 62.7373V59.9198H114.15V59.1942H114.989V57.8372H115.79V59.1942H116.958V59.9198H115.79V62.5394C115.79 62.8033 115.84 62.998 115.94 63.1236C116.06 63.2618 116.232 63.331 116.459 63.331C116.641 63.331 116.817 63.2776 116.986 63.1708V63.9529C116.892 63.9969 116.795 64.0283 116.694 64.0471C116.6 64.066 116.477 64.0754 116.327 64.0754ZM119.593 59.1942H120.413L121.562 62.9917H121.572L122.778 59.1942H123.607L124.823 62.9823H124.832L125.973 59.1942H126.783L125.228 64H124.418L123.174 60.1648L121.939 64H121.138L119.593 59.1942ZM129.568 64.1508C129.097 64.1508 128.673 64.0377 128.296 63.8115C127.919 63.5854 127.624 63.2776 127.41 62.8881C127.203 62.4986 127.099 62.0682 127.099 61.5971C127.099 61.1259 127.203 60.6956 127.41 60.3061C127.624 59.9166 127.919 59.6088 128.296 59.3826C128.673 59.1565 129.097 59.0434 129.568 59.0434C130.039 59.0434 130.463 59.1565 130.84 59.3826C131.217 59.6088 131.509 59.9166 131.717 60.3061C131.93 60.6956 132.037 61.1259 132.037 61.5971C132.037 62.0682 131.93 62.4986 131.717 62.8881C131.509 63.2776 131.217 63.5854 130.84 63.8115C130.463 64.0377 130.039 64.1508 129.568 64.1508ZM129.568 63.4252C129.864 63.4252 130.137 63.3529 130.388 63.2085C130.646 63.0577 130.85 62.8441 131.001 62.5677C131.158 62.2913 131.236 61.9677 131.236 61.5971C131.236 61.2264 131.158 60.9029 131.001 60.6265C130.85 60.3501 130.646 60.1396 130.388 59.9951C130.137 59.8444 129.864 59.769 129.568 59.769C129.273 59.769 128.997 59.8444 128.739 59.9951C128.481 60.1396 128.274 60.3501 128.117 60.6265C127.966 60.9029 127.891 61.2264 127.891 61.5971C127.891 61.9677 127.966 62.2913 128.117 62.5677C128.274 62.8441 128.481 63.0577 128.739 63.2085C128.997 63.3529 129.273 63.4252 129.568 63.4252ZM132.875 59.1942H133.638V59.9574H133.676C133.789 59.6747 133.981 59.4549 134.251 59.2978C134.521 59.1408 134.816 59.0622 135.137 59.0622C135.275 59.0622 135.391 59.0717 135.485 59.0905V59.9103C135.379 59.8852 135.234 59.8726 135.052 59.8726C134.644 59.8726 134.311 60.0077 134.053 60.2778C133.802 60.548 133.676 60.8998 133.676 61.3332V64H132.875V59.1942ZM138.294 64.0754C138.099 64.0754 137.917 64.044 137.747 63.9812C137.584 63.9183 137.445 63.8335 137.332 63.7267C137.207 63.6074 137.113 63.4692 137.05 63.3121C136.987 63.1551 136.955 62.9634 136.955 62.7373V59.9198H136.117V59.1942H136.955V57.8372H137.756V59.1942H138.925V59.9198H137.756V62.5394C137.756 62.8033 137.807 62.998 137.907 63.1236C138.027 63.2618 138.199 63.331 138.425 63.331C138.608 63.331 138.784 63.2776 138.953 63.1708V63.9529C138.859 63.9969 138.762 64.0283 138.661 64.0471C138.567 64.066 138.444 64.0754 138.294 64.0754ZM139.943 57.253H140.744V59.2413L140.706 59.9009H140.744C140.876 59.6559 141.083 59.4517 141.366 59.2884C141.654 59.1251 141.969 59.0434 142.308 59.0434C142.892 59.0434 143.338 59.2162 143.646 59.5617C143.954 59.9009 144.108 60.3532 144.108 60.9186V64H143.307V61.0411C143.307 60.6076 143.197 60.2873 142.977 60.0799C142.757 59.8726 142.471 59.769 142.119 59.769C141.868 59.769 141.636 59.8444 141.422 59.9951C141.215 60.1459 141.048 60.3407 140.923 60.5794C140.803 60.8181 140.744 61.0662 140.744 61.3238V64H139.943V57.253Z" fill="#6F767E"/>
<rect opacity="0.1" x="34.0669" y="55" width="33.6543" height="33.6543" rx="6.62281" fill="#427A0A"/>
<path fill-rule="evenodd" clip-rule="evenodd" d="M44.4434 79.5925H45.6796V73.4112H44.4434V79.5925ZM46.2977 80.8289H43.8252C43.4833 80.8289 43.207 80.5525 43.207 80.2107V72.7932C43.207 72.4514 43.4833 72.175 43.8252 72.175H46.2977C46.6395 72.175 46.9158 72.4514 46.9158 72.7932V80.2107C46.9158 80.5525 46.6395 80.8289 46.2977 80.8289Z" fill="#427A0A"/>
<path fill-rule="evenodd" clip-rule="evenodd" d="M50.0067 79.5927H51.243V68.4664H50.0067V79.5927ZM51.861 80.8291H49.3885C49.0467 80.8291 48.7704 80.5528 48.7704 80.2109V67.8484C48.7704 67.5065 49.0467 67.2302 49.3885 67.2302H51.861C52.2029 67.2302 52.4792 67.5065 52.4792 67.8484V80.2109C52.4792 80.5528 52.2029 80.8291 51.861 80.8291Z" fill="#427A0A"/>
<path fill-rule="evenodd" clip-rule="evenodd" d="M55.5697 79.5927H56.806V63.5213H55.5697V79.5927ZM57.424 80.829H54.9515C54.6097 80.829 54.3334 80.5527 54.3334 80.2109V62.9033C54.3334 62.5615 54.6097 62.2852 54.9515 62.2852H57.424C57.7658 62.2852 58.0421 62.5615 58.0421 62.9033V80.2109C58.0421 80.5527 57.7658 80.829 57.424 80.829Z" fill="#427A0A"/>
<path d="M228.859 88.456V86.8271H225.853V85.5833H228.859V81.7777H227.008L225.468 80.2376V77.4537L227.008 75.9137H228.859V74.2849H230.162V75.9137H232.812V77.1576H230.162V80.593H231.835L233.375 82.133V85.2723L231.835 86.8271H230.162V88.456H228.859ZM227.615 80.593H228.859V77.1576H227.629L226.815 77.972V79.7934L227.615 80.593ZM230.162 85.5833H231.213L232.027 84.7689V82.5921L231.228 81.7777H230.162V85.5833ZM235.14 86.8271V85.5833H236.813V77.1576H235.318V75.9137H238.161V85.5833H239.834V86.8271H235.14ZM243.134 86.8271L241.579 85.2723V77.4686L243.134 75.9137H247.872L249.427 77.4686V85.2723L247.872 86.8271H243.134ZM243.741 85.6277H247.265L248.08 84.8133V77.9276L247.265 77.1132H243.741L242.927 77.9276L242.941 84.8133L243.741 85.6277ZM250.775 88.456L251.367 85.0798H252.67L251.53 88.456H250.775ZM255.997 86.8271L254.501 85.3167L255.375 84.4431L256.574 85.6277H259.98L260.794 84.8133V82.0294L259.98 81.215H255.005V75.9137H261.668V77.1576H256.352V80.0155H260.587L262.142 81.5703V85.2723L260.587 86.8271H255.997ZM265.766 86.8271L264.271 85.3167L265.144 84.4431L266.344 85.6277H269.883L270.683 84.8133V81.8221L269.779 82.7254H265.826L264.286 81.1705V77.4686L265.826 75.9137H270.49L272.03 77.4686V85.2723L270.49 86.8271H265.766ZM266.448 81.5259H269.676L270.683 80.4746V77.9276L269.883 77.1132H266.448L265.633 77.9276V80.7115L266.448 81.5259ZM275.613 86.8271L274.058 85.2723V77.4686L275.613 75.9137H280.485L281.98 77.4241L281.107 78.2978L279.907 77.1132H276.22L275.406 77.9276V80.978L276.324 80.0747H280.411L281.951 81.6296V85.2723L280.411 86.8271H275.613ZM276.22 85.6277H279.803L280.603 84.8133V82.0738L279.803 81.2594H276.368L275.406 82.2663V84.8133L276.22 85.6277ZM283.947 86.8271V85.0798H285.251V86.8271H283.947ZM288.888 86.8271L287.333 85.2723V82.059L288.399 80.9928L287.688 80.2524V77.4686L289.243 75.9137H293.434L294.989 77.4686V80.2524L294.278 80.9928L295.344 82.059V85.2723L293.789 86.8271H288.888ZM289.613 80.4746H293.064L293.641 79.8526V77.9276L292.842 77.0984L289.85 77.1132L289.036 77.9276V79.8526L289.613 80.4746ZM289.495 85.6277H293.182L293.997 84.8133V82.4884L293.182 81.6592H289.51L288.681 82.4884V84.8133L289.495 85.6277ZM298.909 86.8271L297.354 85.2723V77.4686L298.909 75.9137H303.648L305.203 77.4686V85.2723L303.648 86.8271H298.909ZM299.516 85.6277H303.041L303.855 84.8133V77.9276L303.041 77.1132H299.516L298.702 77.9276L298.717 84.8133L299.516 85.6277Z" fill="black"/>
<path d="M226.594 59.3625H224.7V58.5992H229.28V59.3625H227.395V65.3462H226.594V59.3625ZM231.589 65.497C231.117 65.497 230.693 65.3839 230.316 65.1577C229.939 64.9316 229.644 64.6237 229.431 64.2343C229.223 63.8448 229.12 63.4144 229.12 62.9433C229.12 62.4721 229.223 62.0418 229.431 61.6523C229.644 61.2628 229.939 60.955 230.316 60.7288C230.693 60.5027 231.117 60.3896 231.589 60.3896C232.06 60.3896 232.484 60.5027 232.861 60.7288C233.238 60.955 233.53 61.2628 233.737 61.6523C233.951 62.0418 234.057 62.4721 234.057 62.9433C234.057 63.4144 233.951 63.8448 233.737 64.2343C233.53 64.6237 233.238 64.9316 232.861 65.1577C232.484 65.3839 232.06 65.497 231.589 65.497ZM231.589 64.7714C231.884 64.7714 232.157 64.6991 232.408 64.5546C232.666 64.4039 232.87 64.1903 233.021 63.9139C233.178 63.6374 233.256 63.3139 233.256 62.9433C233.256 62.5726 233.178 62.2491 233.021 61.9727C232.87 61.6963 232.666 61.4858 232.408 61.3413C232.157 61.1906 231.884 61.1152 231.589 61.1152C231.293 61.1152 231.017 61.1906 230.759 61.3413C230.502 61.4858 230.294 61.6963 230.137 61.9727C229.987 62.2491 229.911 62.5726 229.911 62.9433C229.911 63.3139 229.987 63.6374 230.137 63.9139C230.294 64.1903 230.502 64.4039 230.759 64.5546C231.017 64.6991 231.293 64.7714 231.589 64.7714ZM236.696 65.4216C236.502 65.4216 236.32 65.3902 236.15 65.3273C235.987 65.2645 235.848 65.1797 235.735 65.0729C235.61 64.9536 235.515 64.8154 235.453 64.6583C235.39 64.5012 235.358 64.3096 235.358 64.0835V61.2659H234.52V60.5404H235.358V59.1834H236.159V60.5404H237.328V61.2659H236.159V63.8856C236.159 64.1494 236.21 64.3442 236.31 64.4698C236.429 64.608 236.602 64.6771 236.828 64.6771C237.011 64.6771 237.186 64.6237 237.356 64.5169V65.2991C237.262 65.3431 237.164 65.3745 237.064 65.3933C236.97 65.4122 236.847 65.4216 236.696 65.4216ZM239.744 65.497C239.393 65.497 239.078 65.4279 238.802 65.2897C238.526 65.1514 238.312 64.963 238.161 64.7243C238.01 64.4793 237.935 64.2028 237.935 63.895C237.935 63.3862 238.127 62.9904 238.51 62.7077C238.893 62.4187 239.377 62.2742 239.961 62.2742C240.25 62.2742 240.517 62.3056 240.762 62.3685C241.013 62.4313 241.205 62.5035 241.337 62.5852V62.2931C241.337 61.935 241.211 61.6492 240.96 61.4356C240.709 61.2157 240.391 61.1057 240.008 61.1057C239.738 61.1057 239.49 61.1654 239.264 61.2848C239.038 61.3979 238.859 61.5581 238.727 61.7654L238.124 61.3131C238.312 61.0241 238.57 60.7979 238.896 60.6346C239.229 60.4713 239.597 60.3896 239.999 60.3896C240.652 60.3896 241.164 60.5623 241.535 60.9079C241.912 61.2471 242.1 61.712 242.1 62.3025V65.3462H241.337V64.6583H241.299C241.161 64.8907 240.954 65.0886 240.677 65.252C240.401 65.4153 240.09 65.497 239.744 65.497ZM239.82 64.7902C240.09 64.7902 240.341 64.7211 240.574 64.5829C240.806 64.4447 240.991 64.2594 241.13 64.0269C241.268 63.7945 241.337 63.5401 241.337 63.2637C241.186 63.1631 241.001 63.0815 240.781 63.0187C240.561 62.9558 240.329 62.9244 240.084 62.9244C239.644 62.9244 239.311 63.0155 239.085 63.1977C238.865 63.3799 238.755 63.6155 238.755 63.9044C238.755 64.1683 238.855 64.3819 239.056 64.5452C239.257 64.7086 239.512 64.7902 239.82 64.7902ZM243.214 58.5992H244.015V65.3462H243.214V58.5992ZM249.531 65.497C249.073 65.497 248.661 65.387 248.297 65.1672C247.933 64.9473 247.647 64.6457 247.439 64.2625C247.238 63.873 247.138 63.4364 247.138 62.9527C247.138 62.4878 247.232 62.0606 247.421 61.6711C247.615 61.2816 247.889 60.9707 248.24 60.7382C248.592 60.5058 249.001 60.3896 249.465 60.3896C249.937 60.3896 250.345 60.4964 250.69 60.71C251.036 60.9173 251.3 61.2063 251.482 61.5769C251.67 61.9476 251.765 62.3716 251.765 62.849C251.765 62.9433 251.755 63.0249 251.736 63.094H247.939C247.958 63.4584 248.046 63.7662 248.203 64.0175C248.36 64.2688 248.558 64.4573 248.796 64.5829C249.041 64.7086 249.296 64.7714 249.56 64.7714C250.175 64.7714 250.65 64.4824 250.983 63.9044L251.661 64.2343C251.454 64.6237 251.171 64.9316 250.813 65.1577C250.461 65.3839 250.034 65.497 249.531 65.497ZM250.917 62.4344C250.904 62.2334 250.847 62.0324 250.747 61.8313C250.646 61.6303 250.486 61.4607 250.266 61.3225C250.053 61.1843 249.783 61.1152 249.456 61.1152C249.079 61.1152 248.759 61.2377 248.495 61.4827C248.237 61.7214 248.068 62.0386 247.986 62.4344H250.917ZM254.284 65.497C253.932 65.497 253.618 65.4279 253.342 65.2897C253.065 65.1514 252.852 64.963 252.701 64.7243C252.55 64.4793 252.475 64.2028 252.475 63.895C252.475 63.3862 252.666 62.9904 253.05 62.7077C253.433 62.4187 253.917 62.2742 254.501 62.2742C254.79 62.2742 255.057 62.3056 255.302 62.3685C255.553 62.4313 255.745 62.5035 255.877 62.5852V62.2931C255.877 61.935 255.751 61.6492 255.5 61.4356C255.248 61.2157 254.931 61.1057 254.548 61.1057C254.278 61.1057 254.03 61.1654 253.803 61.2848C253.577 61.3979 253.398 61.5581 253.266 61.7654L252.663 61.3131C252.852 61.0241 253.109 60.7979 253.436 60.6346C253.769 60.4713 254.136 60.3896 254.538 60.3896C255.192 60.3896 255.704 60.5623 256.074 60.9079C256.451 61.2471 256.64 61.712 256.64 62.3025V65.3462H255.877V64.6583H255.839C255.701 64.8907 255.493 65.0886 255.217 65.252C254.941 65.4153 254.63 65.497 254.284 65.497ZM254.359 64.7902C254.63 64.7902 254.881 64.7211 255.113 64.5829C255.346 64.4447 255.531 64.2594 255.669 64.0269C255.807 63.7945 255.877 63.5401 255.877 63.2637C255.726 63.1631 255.54 63.0815 255.321 63.0187C255.101 62.9558 254.868 62.9244 254.623 62.9244C254.184 62.9244 253.851 63.0155 253.624 63.1977C253.405 63.3799 253.295 63.6155 253.295 63.9044C253.295 64.1683 253.395 64.3819 253.596 64.5452C253.797 64.7086 254.052 64.7902 254.359 64.7902ZM257.754 60.5404H258.517V61.3131H258.555C258.649 61.0492 258.832 60.8325 259.102 60.6629C259.372 60.487 259.654 60.399 259.95 60.399C260.17 60.399 260.358 60.4304 260.515 60.4932V61.3602C260.314 61.2597 260.088 61.2094 259.837 61.2094C259.604 61.2094 259.391 61.2754 259.196 61.4073C259.001 61.5392 258.844 61.7183 258.725 61.9444C258.612 62.1643 258.555 62.403 258.555 62.6606V65.3462H257.754V60.5404ZM261.288 60.5404H262.051V61.2471H262.089C262.221 61.0084 262.431 60.8073 262.72 60.644C263.009 60.4744 263.317 60.3896 263.644 60.3896C264.222 60.3896 264.661 60.5592 264.963 60.8984C265.271 61.2314 265.425 61.6868 265.425 62.2648V65.3462H264.624V62.3873C264.624 61.9413 264.517 61.6177 264.303 61.4167C264.09 61.2157 263.798 61.1152 263.427 61.1152C263.169 61.1152 262.937 61.1874 262.73 61.3319C262.529 61.4764 262.372 61.668 262.258 61.9067C262.145 62.1392 262.089 62.3842 262.089 62.6417V65.3462H261.288V60.5404ZM267.041 59.6546C266.884 59.6546 266.749 59.598 266.636 59.485C266.523 59.3719 266.466 59.2368 266.466 59.0798C266.466 58.9227 266.523 58.7908 266.636 58.684C266.749 58.5709 266.884 58.5144 267.041 58.5144C267.198 58.5144 267.333 58.5709 267.446 58.684C267.559 58.7908 267.616 58.9227 267.616 59.0798C267.616 59.2368 267.559 59.3719 267.446 59.485C267.34 59.598 267.204 59.6546 267.041 59.6546ZM266.645 60.5404H267.437V65.3462H266.645V60.5404ZM268.696 60.5404H269.459V61.2471H269.497C269.629 61.0084 269.839 60.8073 270.128 60.644C270.417 60.4744 270.725 60.3896 271.052 60.3896C271.629 60.3896 272.069 60.5592 272.371 60.8984C272.679 61.2314 272.833 61.6868 272.833 62.2648V65.3462H272.032V62.3873C272.032 61.9413 271.925 61.6177 271.711 61.4167C271.498 61.2157 271.205 61.1152 270.835 61.1152C270.577 61.1152 270.345 61.1874 270.137 61.3319C269.936 61.4764 269.779 61.668 269.666 61.9067C269.553 62.1392 269.497 62.3842 269.497 62.6417V65.3462H268.696V60.5404ZM276.043 67.5324C275.477 67.5324 275.009 67.4005 274.639 67.1366C274.274 66.8728 274.029 66.5555 273.904 66.1849L274.629 65.8739C274.736 66.1503 274.912 66.3733 275.157 66.5429C275.408 66.7188 275.703 66.8068 276.043 66.8068C276.539 66.8068 276.922 66.6623 277.192 66.3733C277.469 66.0843 277.607 65.676 277.607 65.1483V64.6112H277.569C277.412 64.8562 277.189 65.0572 276.9 65.2143C276.617 65.365 276.294 65.4404 275.93 65.4404C275.515 65.4404 275.135 65.3336 274.789 65.12C274.45 64.9064 274.18 64.608 273.979 64.2248C273.778 63.8416 273.677 63.405 273.677 62.915C273.677 62.4313 273.778 61.9978 273.979 61.6146C274.18 61.2251 274.45 60.9236 274.789 60.71C275.135 60.4964 275.515 60.3896 275.93 60.3896C276.294 60.3896 276.617 60.4681 276.9 60.6252C277.189 60.7759 277.412 60.977 277.569 61.2282H277.607V60.5404H278.37V65.1577C278.37 65.9304 278.157 66.5178 277.729 66.9199C277.302 67.3282 276.74 67.5324 276.043 67.5324ZM276.043 64.7148C276.332 64.7148 276.592 64.6426 276.825 64.4981C277.064 64.3536 277.252 64.1463 277.39 63.8762C277.535 63.606 277.607 63.2856 277.607 62.915C277.607 62.5381 277.535 62.2145 277.39 61.9444C277.252 61.6743 277.064 61.4701 276.825 61.3319C276.592 61.1874 276.332 61.1152 276.043 61.1152C275.754 61.1152 275.49 61.1874 275.251 61.3319C275.012 61.4764 274.821 61.6837 274.676 61.9538C274.538 62.224 274.469 62.5444 274.469 62.915C274.469 63.2856 274.538 63.6092 274.676 63.8856C274.821 64.1557 275.012 64.363 275.251 64.5075C275.49 64.6457 275.754 64.7148 276.043 64.7148ZM281.186 65.497C280.671 65.497 280.24 65.3776 279.895 65.1389C279.549 64.8939 279.304 64.5829 279.16 64.206L279.876 63.8856C279.995 64.1746 280.171 64.3976 280.404 64.5546C280.642 64.7117 280.903 64.7902 281.186 64.7902C281.487 64.7902 281.745 64.7305 281.959 64.6112C282.172 64.4855 282.279 64.3096 282.279 64.0835C282.279 63.8825 282.194 63.7223 282.024 63.6029C281.855 63.4773 281.588 63.3705 281.224 63.2825L280.639 63.1317C280.256 63.0375 279.942 62.8773 279.697 62.6512C279.452 62.425 279.329 62.1329 279.329 61.7748C279.329 61.4984 279.411 61.2565 279.574 61.0492C279.744 60.8356 279.967 60.6723 280.244 60.5592C280.52 60.4461 280.818 60.3896 281.139 60.3896C281.56 60.3896 281.933 60.4807 282.26 60.6629C282.593 60.845 282.829 61.0995 282.967 61.4261L282.269 61.7465C282.056 61.3193 281.676 61.1057 281.129 61.1057C280.865 61.1057 280.633 61.1686 280.432 61.2942C280.237 61.4136 280.14 61.5675 280.14 61.7559C280.14 61.9318 280.209 62.0763 280.347 62.1894C280.485 62.2962 280.693 62.3842 280.969 62.4533L281.666 62.6323C282.138 62.7517 282.493 62.9307 282.731 63.1694C282.97 63.4019 283.089 63.6877 283.089 64.0269C283.089 64.3222 283.005 64.5829 282.835 64.8091C282.665 65.0289 282.436 65.1986 282.147 65.3179C281.858 65.4373 281.538 65.497 281.186 65.497Z" fill="#6F767E"/>
<rect opacity="0.1" x="177.434" y="56.3462" width="33.6543" height="33.6543" rx="6.62281" fill="#FA5F1C"/>
<path fill-rule="evenodd" clip-rule="evenodd" d="M200.056 72.3934L198.09 70.6113L195.451 77.6036L200.056 72.3934ZM195.36 74.3438L197.248 69.3413C197.248 69.34 197.249 69.3388 197.249 69.3375L197.729 68.0667L195.36 67.15V74.3438ZM194.272 77.2296H190.638L193.809 78.4565L194.272 77.2296ZM193.598 79.7009L190.207 78.3886L192.734 80.6781L193.598 79.7009ZM187.942 75.9933H194.124V64.867H187.942V75.9933ZM201.387 72.7544L193.246 81.9658C193.136 82.09 192.982 82.1648 192.817 82.1735C192.806 82.1741 192.794 82.1747 192.782 82.1747C192.63 82.1747 192.481 82.1179 192.367 82.0146L186.909 77.0684C186.907 77.0665 186.906 77.0634 186.903 77.0609C186.9 77.0579 186.896 77.056 186.893 77.0529C186.857 77.0171 186.833 76.9726 186.806 76.9293C186.793 76.907 186.773 76.8879 186.762 76.865C186.761 76.8619 186.759 76.8607 186.759 76.8582C186.745 76.8279 186.744 76.7927 186.736 76.7605C186.735 76.7568 186.734 76.7525 186.733 76.7482C186.725 76.7098 186.709 76.674 186.708 76.6351C186.707 76.6301 186.708 76.6252 186.708 76.6202C186.708 76.6171 186.706 76.6147 186.706 76.6116V64.249C186.706 63.9072 186.983 63.6309 187.324 63.6309H194.742C195.084 63.6309 195.36 63.9072 195.36 64.249V65.824L198.747 67.1344C199.064 67.2568 199.222 67.6122 199.102 67.9293L198.559 69.3677L201.338 71.8872C201.589 72.1147 201.61 72.501 201.387 72.7544ZM190.415 69.5031C190.415 69.6737 190.553 69.8122 190.724 69.8122H191.342C192.194 69.8122 192.887 70.5051 192.887 71.3575C192.887 72.1042 192.356 72.7279 191.651 72.8713V73.521C191.651 73.8628 191.375 74.1391 191.033 74.1391C190.692 74.1391 190.415 73.8628 190.415 73.521V72.9028H189.796C189.455 72.9028 189.178 72.6265 189.178 72.2847C189.178 71.9429 189.455 71.6666 189.796 71.6666H191.342C191.512 71.6666 191.651 71.5281 191.651 71.3575C191.651 71.1875 191.512 71.0484 191.342 71.0484H190.724C189.872 71.0484 189.178 70.3555 189.178 69.5031C189.178 68.7564 189.711 68.1327 190.415 67.9893V67.3397C190.415 66.9979 190.692 66.7215 191.033 66.7215C191.375 66.7215 191.651 66.9979 191.651 67.3397V67.9578H192.269C192.611 67.9578 192.887 68.2341 192.887 68.5759C192.887 68.9178 192.611 69.1941 192.269 69.1941H190.724C190.553 69.1941 190.415 69.3331 190.415 69.5031Z" fill="#FA5F1C"/>
<path d="M86.8163 163.747V162.118H83.8103V160.874H86.8163V157.068H84.9653L83.4253 155.528V152.744L84.9653 151.204H86.8163V149.575H88.1194V151.204H90.77V152.448H88.1194V155.884H89.7927L91.3327 157.424V160.563L89.7927 162.118H88.1194V163.747H86.8163ZM85.5724 155.884H86.8163V152.448H85.5872L84.7728 153.263V155.084L85.5724 155.884ZM88.1194 160.874H89.1708L89.9852 160.059V157.883L89.1856 157.068H88.1194V160.874ZM94.8156 162.118L93.2607 160.563V152.759L94.8156 151.204H99.5541L101.109 152.759V160.563L99.5541 162.118H94.8156ZM95.4227 160.918H98.947L99.7614 160.104V153.218L98.947 152.404H95.4227L94.6083 153.218L94.6231 160.104L95.4227 160.918ZM103.049 162.118V160.37H104.352V162.118H103.049ZM107.989 162.118L106.435 160.563V152.759L107.989 151.204H112.728L114.283 152.759V160.563L112.728 162.118H107.989ZM108.597 160.918H112.121L112.935 160.104V153.218L112.121 152.404H108.597L107.782 153.218L107.797 160.104L108.597 160.918ZM117.852 162.118L116.297 160.563V152.759L117.852 151.204H122.59L124.145 152.759V160.563L122.59 162.118H117.852ZM118.459 160.918H121.983L122.798 160.104V153.218L121.983 152.404H118.459L117.644 153.218L117.659 160.104L118.459 160.918Z" fill="black"/>
<path d="M83.0067 133.434H83.8077V135.422L83.77 136.082H83.8077C83.9396 135.837 84.147 135.632 84.4297 135.469C84.7186 135.306 85.0327 135.224 85.372 135.224C85.9562 135.224 86.4022 135.397 86.7101 135.742C87.0179 136.082 87.1718 136.534 87.1718 137.099V140.181H86.3708V137.222C86.3708 136.788 86.2609 136.468 86.041 136.261C85.8211 136.053 85.5353 135.95 85.1835 135.95C84.9322 135.95 84.6998 136.025 84.4862 136.176C84.2789 136.327 84.1124 136.521 83.9868 136.76C83.8674 136.999 83.8077 137.247 83.8077 137.504V140.181H83.0067V133.434ZM89.8157 140.331C89.4639 140.331 89.1498 140.262 88.8734 140.124C88.5969 139.986 88.3834 139.797 88.2326 139.559C88.0818 139.314 88.0064 139.037 88.0064 138.729C88.0064 138.221 88.198 137.825 88.5812 137.542C88.9644 137.253 89.4482 137.109 90.0324 137.109C90.3214 137.109 90.5884 137.14 90.8334 137.203C91.0847 137.266 91.2763 137.338 91.4082 137.42V137.128C91.4082 136.769 91.2826 136.484 91.0313 136.27C90.78 136.05 90.4627 135.94 90.0795 135.94C89.8094 135.94 89.5613 136 89.3351 136.119C89.1089 136.232 88.9299 136.393 88.798 136.6L88.1949 136.148C88.3834 135.859 88.6409 135.632 88.9676 135.469C89.3005 135.306 89.668 135.224 90.0701 135.224C90.7234 135.224 91.2354 135.397 91.6061 135.742C91.983 136.082 92.1715 136.546 92.1715 137.137V140.181H91.4082V139.493H91.3705C91.2323 139.725 91.025 139.923 90.7486 140.086C90.4722 140.25 90.1612 140.331 89.8157 140.331ZM89.8911 139.625C90.1612 139.625 90.4125 139.556 90.6449 139.417C90.8774 139.279 91.0627 139.094 91.2009 138.861C91.3391 138.629 91.4082 138.375 91.4082 138.098C91.2574 137.998 91.0721 137.916 90.8522 137.853C90.6324 137.79 90.3999 137.759 90.1549 137.759C89.7152 137.759 89.3822 137.85 89.1561 138.032C88.9362 138.214 88.8262 138.45 88.8262 138.739C88.8262 139.003 88.9268 139.216 89.1278 139.38C89.3288 139.543 89.5832 139.625 89.8911 139.625ZM93.2858 135.375H94.0491V136.148H94.0867C94.181 135.884 94.3632 135.667 94.6333 135.497C94.9034 135.321 95.1861 135.233 95.4814 135.233C95.7013 135.233 95.8897 135.265 96.0468 135.328V136.195C95.8457 136.094 95.6196 136.044 95.3683 136.044C95.1359 136.044 94.9223 136.11 94.7275 136.242C94.5328 136.374 94.3757 136.553 94.2564 136.779C94.1433 136.999 94.0867 137.237 94.0867 137.495V140.181H93.2858V135.375ZM96.4482 135.375H97.3057L98.7946 139.238H98.8134L100.321 135.375H101.16L99.1998 140.181H98.3894L96.4482 135.375ZM103.817 140.331C103.359 140.331 102.947 140.221 102.583 140.002C102.219 139.782 101.933 139.48 101.725 139.097C101.524 138.708 101.424 138.271 101.424 137.787C101.424 137.322 101.518 136.895 101.707 136.506C101.901 136.116 102.175 135.805 102.526 135.573C102.878 135.34 103.287 135.224 103.751 135.224C104.223 135.224 104.631 135.331 104.976 135.544C105.322 135.752 105.586 136.041 105.768 136.411C105.956 136.782 106.051 137.206 106.051 137.684C106.051 137.778 106.041 137.859 106.022 137.929H102.225C102.244 138.293 102.332 138.601 102.489 138.852C102.646 139.103 102.844 139.292 103.082 139.417C103.327 139.543 103.582 139.606 103.846 139.606C104.461 139.606 104.936 139.317 105.269 138.739L105.947 139.069C105.74 139.458 105.457 139.766 105.099 139.992C104.747 140.218 104.32 140.331 103.817 140.331ZM105.203 137.269C105.19 137.068 105.133 136.867 105.033 136.666C104.932 136.465 104.772 136.295 104.552 136.157C104.339 136.019 104.069 135.95 103.742 135.95C103.365 135.95 103.045 136.072 102.781 136.317C102.523 136.556 102.354 136.873 102.272 137.269H105.203ZM108.711 140.331C108.196 140.331 107.766 140.212 107.42 139.973C107.075 139.728 106.83 139.417 106.685 139.04L107.402 138.72C107.521 139.009 107.697 139.232 107.929 139.389C108.168 139.546 108.429 139.625 108.711 139.625C109.013 139.625 109.271 139.565 109.484 139.446C109.698 139.32 109.805 139.144 109.805 138.918C109.805 138.717 109.72 138.557 109.55 138.437C109.38 138.312 109.113 138.205 108.749 138.117L108.165 137.966C107.782 137.872 107.468 137.712 107.223 137.486C106.978 137.259 106.855 136.967 106.855 136.609C106.855 136.333 106.937 136.091 107.1 135.884C107.27 135.67 107.493 135.507 107.769 135.394C108.046 135.281 108.344 135.224 108.664 135.224C109.085 135.224 109.459 135.315 109.786 135.497C110.119 135.68 110.354 135.934 110.492 136.261L109.795 136.581C109.581 136.154 109.201 135.94 108.655 135.94C108.391 135.94 108.159 136.003 107.958 136.129C107.763 136.248 107.665 136.402 107.665 136.59C107.665 136.766 107.735 136.911 107.873 137.024C108.011 137.131 108.218 137.219 108.495 137.288L109.192 137.467C109.663 137.586 110.018 137.765 110.257 138.004C110.496 138.236 110.615 138.522 110.615 138.861C110.615 139.157 110.53 139.417 110.36 139.644C110.191 139.863 109.962 140.033 109.673 140.152C109.384 140.272 109.063 140.331 108.711 140.331ZM113.289 140.256C113.094 140.256 112.912 140.225 112.742 140.162C112.579 140.099 112.441 140.014 112.328 139.907C112.202 139.788 112.108 139.65 112.045 139.493C111.982 139.336 111.951 139.144 111.951 138.918V136.1H111.112V135.375H111.951V134.018H112.752V135.375H113.92V136.1H112.752V138.72C112.752 138.984 112.802 139.179 112.903 139.304C113.022 139.443 113.195 139.512 113.421 139.512C113.603 139.512 113.779 139.458 113.949 139.351V140.134C113.854 140.178 113.757 140.209 113.656 140.228C113.562 140.247 113.44 140.256 113.289 140.256ZM116.82 140.331C116.362 140.331 115.95 140.221 115.586 140.002C115.222 139.782 114.936 139.48 114.728 139.097C114.527 138.708 114.427 138.271 114.427 137.787C114.427 137.322 114.521 136.895 114.71 136.506C114.904 136.116 115.178 135.805 115.529 135.573C115.881 135.34 116.289 135.224 116.754 135.224C117.226 135.224 117.634 135.331 117.979 135.544C118.325 135.752 118.589 136.041 118.771 136.411C118.959 136.782 119.054 137.206 119.054 137.684C119.054 137.778 119.044 137.859 119.025 137.929H115.228C115.247 138.293 115.335 138.601 115.492 138.852C115.649 139.103 115.847 139.292 116.085 139.417C116.33 139.543 116.585 139.606 116.849 139.606C117.464 139.606 117.939 139.317 118.271 138.739L118.95 139.069C118.743 139.458 118.46 139.766 118.102 139.992C117.75 140.218 117.323 140.331 116.82 140.331ZM118.206 137.269C118.193 137.068 118.136 136.867 118.036 136.666C117.935 136.465 117.775 136.295 117.555 136.157C117.342 136.019 117.072 135.95 116.745 135.95C116.368 135.95 116.048 136.072 115.784 136.317C115.526 136.556 115.357 136.873 115.275 137.269H118.206ZM122.072 140.331C121.645 140.331 121.256 140.221 120.904 140.002C120.558 139.782 120.285 139.48 120.084 139.097C119.883 138.708 119.783 138.268 119.783 137.778C119.783 137.294 119.883 136.857 120.084 136.468C120.285 136.078 120.558 135.774 120.904 135.554C121.256 135.334 121.645 135.224 122.072 135.224C122.443 135.224 122.773 135.309 123.062 135.478C123.351 135.642 123.571 135.846 123.721 136.091H123.759L123.721 135.422V133.434H124.522V140.181H123.759V139.474H123.721C123.571 139.713 123.351 139.917 123.062 140.086C122.773 140.25 122.443 140.331 122.072 140.331ZM122.167 139.606C122.449 139.606 122.71 139.53 122.949 139.38C123.194 139.229 123.389 139.015 123.533 138.739C123.684 138.462 123.759 138.142 123.759 137.778C123.759 137.413 123.684 137.093 123.533 136.817C123.389 136.54 123.194 136.327 122.949 136.176C122.71 136.025 122.449 135.95 122.167 135.95C121.89 135.95 121.63 136.025 121.385 136.176C121.14 136.327 120.942 136.543 120.791 136.826C120.646 137.102 120.574 137.42 120.574 137.778C120.574 138.136 120.646 138.456 120.791 138.739C120.942 139.015 121.14 139.229 121.385 139.38C121.63 139.53 121.89 139.606 122.167 139.606ZM127.896 133.434H128.697V140.181H127.896V133.434ZM132.052 140.331C131.581 140.331 131.157 140.218 130.78 139.992C130.403 139.766 130.108 139.458 129.894 139.069C129.687 138.679 129.583 138.249 129.583 137.778C129.583 137.307 129.687 136.876 129.894 136.487C130.108 136.097 130.403 135.789 130.78 135.563C131.157 135.337 131.581 135.224 132.052 135.224C132.523 135.224 132.947 135.337 133.324 135.563C133.701 135.789 133.993 136.097 134.2 136.487C134.414 136.876 134.521 137.307 134.521 137.778C134.521 138.249 134.414 138.679 134.2 139.069C133.993 139.458 133.701 139.766 133.324 139.992C132.947 140.218 132.523 140.331 132.052 140.331ZM132.052 139.606C132.347 139.606 132.621 139.534 132.872 139.389C133.129 139.238 133.334 139.025 133.484 138.748C133.641 138.472 133.72 138.148 133.72 137.778C133.72 137.407 133.641 137.084 133.484 136.807C133.334 136.531 133.129 136.32 132.872 136.176C132.621 136.025 132.347 135.95 132.052 135.95C131.757 135.95 131.48 136.025 131.223 136.176C130.965 136.32 130.758 136.531 130.601 136.807C130.45 137.084 130.375 137.407 130.375 137.778C130.375 138.148 130.45 138.472 130.601 138.748C130.758 139.025 130.965 139.238 131.223 139.389C131.48 139.534 131.757 139.606 132.052 139.606ZM137.082 140.331C136.567 140.331 136.137 140.212 135.791 139.973C135.446 139.728 135.201 139.417 135.056 139.04L135.772 138.72C135.892 139.009 136.068 139.232 136.3 139.389C136.539 139.546 136.8 139.625 137.082 139.625C137.384 139.625 137.641 139.565 137.855 139.446C138.069 139.32 138.175 139.144 138.175 138.918C138.175 138.717 138.091 138.557 137.921 138.437C137.751 138.312 137.484 138.205 137.12 138.117L136.536 137.966C136.153 137.872 135.838 137.712 135.593 137.486C135.348 137.259 135.226 136.967 135.226 136.609C135.226 136.333 135.308 136.091 135.471 135.884C135.641 135.67 135.864 135.507 136.14 135.394C136.416 135.281 136.715 135.224 137.035 135.224C137.456 135.224 137.83 135.315 138.157 135.497C138.489 135.68 138.725 135.934 138.863 136.261L138.166 136.581C137.952 136.154 137.572 135.94 137.026 135.94C136.762 135.94 136.529 136.003 136.328 136.129C136.134 136.248 136.036 136.402 136.036 136.59C136.036 136.766 136.105 136.911 136.244 137.024C136.382 137.131 136.589 137.219 136.866 137.288L137.563 137.467C138.034 137.586 138.389 137.765 138.628 138.004C138.866 138.236 138.986 138.522 138.986 138.861C138.986 139.157 138.901 139.417 138.731 139.644C138.562 139.863 138.332 140.033 138.043 140.152C137.754 140.272 137.434 140.331 137.082 140.331ZM141.536 140.331C141.021 140.331 140.591 140.212 140.245 139.973C139.9 139.728 139.655 139.417 139.51 139.04L140.226 138.72C140.346 139.009 140.522 139.232 140.754 139.389C140.993 139.546 141.254 139.625 141.536 139.625C141.838 139.625 142.095 139.565 142.309 139.446C142.522 139.32 142.629 139.144 142.629 138.918C142.629 138.717 142.544 138.557 142.375 138.437C142.205 138.312 141.938 138.205 141.574 138.117L140.99 137.966C140.606 137.872 140.292 137.712 140.047 137.486C139.802 137.259 139.68 136.967 139.68 136.609C139.68 136.333 139.761 136.091 139.925 135.884C140.094 135.67 140.317 135.507 140.594 135.394C140.87 135.281 141.169 135.224 141.489 135.224C141.91 135.224 142.284 135.315 142.61 135.497C142.943 135.68 143.179 135.934 143.317 136.261L142.62 136.581C142.406 136.154 142.026 135.94 141.48 135.94C141.216 135.94 140.983 136.003 140.782 136.129C140.588 136.248 140.49 136.402 140.49 136.59C140.49 136.766 140.559 136.911 140.698 137.024C140.836 137.131 141.043 137.219 141.319 137.288L142.017 137.467C142.488 137.586 142.843 137.765 143.082 138.004C143.32 138.236 143.44 138.522 143.44 138.861C143.44 139.157 143.355 139.417 143.185 139.644C143.016 139.863 142.786 140.033 142.497 140.152C142.208 140.272 141.888 140.331 141.536 140.331ZM146.498 140.331C146.039 140.331 145.628 140.221 145.263 140.002C144.899 139.782 144.613 139.48 144.406 139.097C144.205 138.708 144.104 138.271 144.104 137.787C144.104 137.322 144.199 136.895 144.387 136.506C144.582 136.116 144.855 135.805 145.207 135.573C145.559 135.34 145.967 135.224 146.432 135.224C146.903 135.224 147.311 135.331 147.657 135.544C148.002 135.752 148.266 136.041 148.448 136.411C148.637 136.782 148.731 137.206 148.731 137.684C148.731 137.778 148.722 137.859 148.703 137.929H144.905C144.924 138.293 145.012 138.601 145.169 138.852C145.326 139.103 145.524 139.292 145.763 139.417C146.008 139.543 146.262 139.606 146.526 139.606C147.142 139.606 147.616 139.317 147.949 138.739L148.628 139.069C148.42 139.458 148.138 139.766 147.779 139.992C147.428 140.218 147 140.331 146.498 140.331ZM147.883 137.269C147.871 137.068 147.814 136.867 147.713 136.666C147.613 136.465 147.453 136.295 147.233 136.157C147.019 136.019 146.749 135.95 146.423 135.95C146.046 135.95 145.725 136.072 145.461 136.317C145.204 136.556 145.034 136.873 144.952 137.269H147.883ZM151.392 140.331C150.877 140.331 150.446 140.212 150.101 139.973C149.755 139.728 149.51 139.417 149.366 139.04L150.082 138.72C150.201 139.009 150.377 139.232 150.61 139.389C150.849 139.546 151.109 139.625 151.392 139.625C151.693 139.625 151.951 139.565 152.165 139.446C152.378 139.32 152.485 139.144 152.485 138.918C152.485 138.717 152.4 138.557 152.231 138.437C152.061 138.312 151.794 138.205 151.43 138.117L150.845 137.966C150.462 137.872 150.148 137.712 149.903 137.486C149.658 137.259 149.536 136.967 149.536 136.609C149.536 136.333 149.617 136.091 149.781 135.884C149.95 135.67 150.173 135.507 150.45 135.394C150.726 135.281 151.024 135.224 151.345 135.224C151.766 135.224 152.139 135.315 152.466 135.497C152.799 135.68 153.035 135.934 153.173 136.261L152.476 136.581C152.262 136.154 151.882 135.94 151.335 135.94C151.072 135.94 150.839 136.003 150.638 136.129C150.443 136.248 150.346 136.402 150.346 136.59C150.346 136.766 150.415 136.911 150.553 137.024C150.691 137.131 150.899 137.219 151.175 137.288L151.873 137.467C152.344 137.586 152.699 137.765 152.937 138.004C153.176 138.236 153.295 138.522 153.295 138.861C153.295 139.157 153.211 139.417 153.041 139.644C152.871 139.863 152.642 140.033 152.353 140.152C152.064 140.272 151.744 140.331 151.392 140.331Z" fill="#6F767E"/>
<rect opacity="0.1" x="34.0669" y="131.181" width="33.6543" height="33.6543" rx="6.86284" fill="#1A55AF"/>
<path fill-rule="evenodd" clip-rule="evenodd" d="M44.4991 143.854H42.8978C42.5436 143.854 42.2573 144.14 42.2573 144.494C42.2573 144.849 42.5436 145.135 42.8978 145.135H43.5383V145.775C43.5383 146.13 43.8247 146.416 44.1789 146.416C44.5324 146.416 44.8194 146.13 44.8194 145.775V145.102C45.5489 144.954 46.1004 144.307 46.1004 143.534C46.1004 142.65 45.3817 141.932 44.4991 141.932H43.8586C43.6818 141.932 43.5383 141.788 43.5383 141.612C43.5383 141.436 43.6818 141.292 43.8586 141.292H45.4599C45.8134 141.292 46.1004 141.005 46.1004 140.651C46.1004 140.297 45.8134 140.011 45.4599 140.011H44.8194V139.37C44.8194 139.016 44.5324 138.73 44.1789 138.73C43.8247 138.73 43.5383 139.016 43.5383 139.37V140.043C42.8082 140.192 42.2573 140.838 42.2573 141.612C42.2573 142.495 42.9753 143.213 43.8586 143.213H44.4991C44.6752 143.213 44.8194 143.357 44.8194 143.534C44.8194 143.71 44.6752 143.854 44.4991 143.854" fill="#1A55AF"/>
<path fill-rule="evenodd" clip-rule="evenodd" d="M55.0673 153.462H45.4597C45.1068 153.462 44.8192 153.175 44.8192 152.821V149.884L45.6473 150.712C45.8978 150.962 46.3026 150.962 46.553 150.712C46.8035 150.461 46.8035 150.057 46.553 149.806L44.6315 147.885C44.3811 147.634 43.9763 147.634 43.7258 147.885L41.8043 149.806C41.5538 150.057 41.5538 150.461 41.8043 150.712C42.0547 150.962 42.4595 150.962 42.71 150.712L43.5381 149.884V152.821C43.5381 153.88 44.4003 154.743 45.4597 154.743H55.0673C55.4209 154.743 55.7078 154.456 55.7078 154.102C55.7078 153.748 55.4209 153.462 55.0673 153.462" fill="#1A55AF"/>
<path fill-rule="evenodd" clip-rule="evenodd" d="M57.9494 152.821H59.5507C59.9049 152.821 60.1912 152.535 60.1912 152.181C60.1912 151.826 59.9049 151.54 59.5507 151.54H58.9102V150.9C58.9102 150.545 58.6239 150.259 58.2697 150.259C57.9161 150.259 57.6292 150.545 57.6292 150.9V151.573C56.8996 151.721 56.3481 152.368 56.3481 153.141C56.3481 154.025 57.0668 154.743 57.9494 154.743H58.5899C58.7667 154.743 58.9102 154.887 58.9102 155.063C58.9102 155.239 58.7667 155.383 58.5899 155.383H56.9887C56.6351 155.383 56.3481 155.669 56.3481 156.024C56.3481 156.378 56.6351 156.664 56.9887 156.664H57.6292V157.305C57.6292 157.659 57.9161 157.945 58.2697 157.945C58.6239 157.945 58.9102 157.659 58.9102 157.305V156.631C59.6404 156.483 60.1912 155.837 60.1912 155.063C60.1912 154.18 59.4732 153.462 58.5899 153.462H57.9494C57.7733 153.462 57.6292 153.317 57.6292 153.141C57.6292 152.965 57.7733 152.821 57.9494 152.821" fill="#1A55AF"/>
<path fill-rule="evenodd" clip-rule="evenodd" d="M60.6445 145.963C60.3941 145.713 59.9893 145.713 59.7388 145.963L58.9106 146.791V143.854C58.9106 142.794 58.0485 141.932 56.9891 141.932H47.3815C47.0279 141.932 46.741 142.219 46.741 142.573C46.741 142.927 47.0279 143.213 47.3815 143.213H56.9891C57.342 143.213 57.6296 143.5 57.6296 143.854V146.791L56.8015 145.963C56.551 145.713 56.1462 145.713 55.8958 145.963C55.6453 146.214 55.6453 146.618 55.8958 146.869L57.8173 148.79C58.0677 149.041 58.4725 149.041 58.723 148.79L60.6445 146.869C60.8949 146.618 60.8949 146.214 60.6445 145.963" fill="#1A55AF"/>
<path d="M229.626 163.496V161.867H226.62V160.623H229.626V156.817H227.775L226.235 155.277V152.494L227.775 150.954H229.626V149.325H230.929V150.954H233.58V152.197H230.929V155.633H232.603L234.143 157.173V160.312L232.603 161.867H230.929V163.496H229.626ZM228.382 155.633H229.626V152.197H228.397L227.583 153.012V154.833L228.382 155.633ZM230.929 160.623H231.981L232.795 159.809V157.632L231.996 156.817H230.929V160.623ZM237.315 161.867L235.819 160.357L236.693 159.483L237.892 160.668H241.298L242.112 159.853V157.069L241.298 156.255H236.322V150.954H242.986V152.197H237.67V155.055H241.905L243.46 156.61V160.312L241.905 161.867H237.315ZM244.804 163.496L245.396 160.12H246.699L245.559 163.496H244.804ZM250.026 161.867L248.53 160.357L249.404 159.483L250.603 160.668H254.009L254.823 159.853V157.069L254.009 156.255H249.033V150.954H255.697V152.197H250.381V155.055H254.616L256.171 156.61V160.312L254.616 161.867H250.026ZM259.795 161.867L258.3 160.357L259.173 159.483L260.373 160.668H263.912L264.712 159.853V156.862L263.808 157.765H259.855L258.315 156.21V152.508L259.855 150.954H264.519L266.059 152.508V160.312L264.519 161.867H259.795ZM260.477 156.566H263.705L264.712 155.514V152.967L263.912 152.153H260.477L259.662 152.967V155.751L260.477 156.566ZM269.642 161.867L268.087 160.312V152.508L269.642 150.954H274.514L276.009 152.464L275.136 153.338L273.936 152.153H270.249L269.434 152.967V156.018L270.353 155.115H274.44L275.98 156.669V160.312L274.44 161.867H269.642ZM270.249 160.668H273.832L274.632 159.853V157.114L273.832 156.299H270.397L269.434 157.306V159.853L270.249 160.668ZM277.976 161.867V160.12H279.28V161.867H277.976ZM282.917 161.867L281.362 160.312V157.099L282.428 156.033L281.717 155.292V152.508L283.272 150.954H287.463L289.018 152.508V155.292L288.307 156.033L289.373 157.099V160.312L287.818 161.867H282.917ZM283.642 155.514H287.093L287.67 154.892V152.967L286.871 152.138L283.879 152.153L283.065 152.967V154.892L283.642 155.514ZM283.524 160.668H287.211L288.026 159.853V157.528L287.211 156.699H283.539L282.71 157.528V159.853L283.524 160.668ZM292.938 161.867L291.383 160.312V152.508L292.938 150.954H297.677L299.232 152.508V160.312L297.677 161.867H292.938ZM293.545 160.668H297.07L297.884 159.853V152.967L297.07 152.153H293.545L292.731 152.967L292.746 159.853L293.545 160.668Z" fill="black"/>
<path d="M227.362 134.197H225.468V133.434H230.048V134.197H228.163V140.181H227.362V134.197ZM232.356 140.331C231.885 140.331 231.461 140.218 231.084 139.992C230.707 139.766 230.412 139.458 230.198 139.069C229.991 138.679 229.887 138.249 229.887 137.778C229.887 137.307 229.991 136.876 230.198 136.487C230.412 136.097 230.707 135.789 231.084 135.563C231.461 135.337 231.885 135.224 232.356 135.224C232.827 135.224 233.251 135.337 233.628 135.563C234.005 135.789 234.297 136.097 234.505 136.487C234.718 136.876 234.825 137.307 234.825 137.778C234.825 138.249 234.718 138.679 234.505 139.069C234.297 139.458 234.005 139.766 233.628 139.992C233.251 140.218 232.827 140.331 232.356 140.331ZM232.356 139.606C232.652 139.606 232.925 139.534 233.176 139.389C233.434 139.238 233.638 139.025 233.789 138.748C233.946 138.472 234.024 138.148 234.024 137.778C234.024 137.407 233.946 137.084 233.789 136.807C233.638 136.531 233.434 136.32 233.176 136.176C232.925 136.025 232.652 135.95 232.356 135.95C232.061 135.95 231.785 136.025 231.527 136.176C231.269 136.32 231.062 136.531 230.905 136.807C230.754 137.084 230.679 137.407 230.679 137.778C230.679 138.148 230.754 138.472 230.905 138.748C231.062 139.025 231.269 139.238 231.527 139.389C231.785 139.534 232.061 139.606 232.356 139.606ZM237.464 140.256C237.269 140.256 237.087 140.225 236.918 140.162C236.754 140.099 236.616 140.014 236.503 139.907C236.377 139.788 236.283 139.65 236.22 139.493C236.157 139.336 236.126 139.144 236.126 138.918V136.1H235.287V135.375H236.126V134.018H236.927V135.375H238.095V136.1H236.927V138.72C236.927 138.984 236.977 139.179 237.078 139.304C237.197 139.443 237.37 139.512 237.596 139.512C237.778 139.512 237.954 139.458 238.124 139.351V140.134C238.03 140.178 237.932 140.209 237.832 140.228C237.737 140.247 237.615 140.256 237.464 140.256ZM240.512 140.331C240.16 140.331 239.846 140.262 239.57 140.124C239.293 139.986 239.08 139.797 238.929 139.559C238.778 139.314 238.703 139.037 238.703 138.729C238.703 138.221 238.894 137.825 239.278 137.542C239.661 137.253 240.145 137.109 240.729 137.109C241.018 137.109 241.285 137.14 241.53 137.203C241.781 137.266 241.973 137.338 242.105 137.42V137.128C242.105 136.769 241.979 136.484 241.728 136.27C241.476 136.05 241.159 135.94 240.776 135.94C240.506 135.94 240.258 136 240.031 136.119C239.805 136.232 239.626 136.393 239.494 136.6L238.891 136.148C239.08 135.859 239.337 135.632 239.664 135.469C239.997 135.306 240.364 135.224 240.766 135.224C241.42 135.224 241.932 135.397 242.302 135.742C242.679 136.082 242.868 136.546 242.868 137.137V140.181H242.105V139.493H242.067C241.929 139.725 241.721 139.923 241.445 140.086C241.169 140.25 240.858 140.331 240.512 140.331ZM240.587 139.625C240.858 139.625 241.109 139.556 241.341 139.417C241.574 139.279 241.759 139.094 241.897 138.861C242.035 138.629 242.105 138.375 242.105 138.098C241.954 137.998 241.768 137.916 241.549 137.853C241.329 137.79 241.096 137.759 240.851 137.759C240.412 137.759 240.079 137.85 239.852 138.032C239.633 138.214 239.523 138.45 239.523 138.739C239.523 139.003 239.623 139.216 239.824 139.38C240.025 139.543 240.28 139.625 240.587 139.625ZM243.982 133.434H244.783V140.181H243.982V133.434ZM248.532 136.1H247.646V135.375H248.532V134.857C248.532 134.555 248.601 134.291 248.739 134.065C248.877 133.839 249.063 133.666 249.295 133.547C249.528 133.421 249.785 133.358 250.068 133.358C250.338 133.358 250.574 133.396 250.775 133.471V134.253C250.662 134.209 250.555 134.175 250.454 134.15C250.354 134.118 250.234 134.103 250.096 134.103C249.889 134.103 249.71 134.178 249.559 134.329C249.408 134.473 249.333 134.678 249.333 134.941V135.375H250.567V136.1H249.333V140.181H248.532V136.1ZM253.466 140.331C252.995 140.331 252.571 140.218 252.194 139.992C251.817 139.766 251.522 139.458 251.309 139.069C251.101 138.679 250.998 138.249 250.998 137.778C250.998 137.307 251.101 136.876 251.309 136.487C251.522 136.097 251.817 135.789 252.194 135.563C252.571 135.337 252.995 135.224 253.466 135.224C253.938 135.224 254.362 135.337 254.739 135.563C255.115 135.789 255.408 136.097 255.615 136.487C255.829 136.876 255.935 137.307 255.935 137.778C255.935 138.249 255.829 138.679 255.615 139.069C255.408 139.458 255.115 139.766 254.739 139.992C254.362 140.218 253.938 140.331 253.466 140.331ZM253.466 139.606C253.762 139.606 254.035 139.534 254.286 139.389C254.544 139.238 254.748 139.025 254.899 138.748C255.056 138.472 255.134 138.148 255.134 137.778C255.134 137.407 255.056 137.084 254.899 136.807C254.748 136.531 254.544 136.32 254.286 136.176C254.035 136.025 253.762 135.95 253.466 135.95C253.171 135.95 252.895 136.025 252.637 136.176C252.38 136.32 252.172 136.531 252.015 136.807C251.864 137.084 251.789 137.407 251.789 137.778C251.789 138.148 251.864 138.472 252.015 138.748C252.172 139.025 252.38 139.238 252.637 139.389C252.895 139.534 253.171 139.606 253.466 139.606ZM256.773 135.375H257.537V136.148H257.574C257.669 135.884 257.851 135.667 258.121 135.497C258.391 135.321 258.674 135.233 258.969 135.233C259.189 135.233 259.377 135.265 259.534 135.328V136.195C259.333 136.094 259.107 136.044 258.856 136.044C258.623 136.044 258.41 136.11 258.215 136.242C258.02 136.374 257.863 136.553 257.744 136.779C257.631 136.999 257.574 137.237 257.574 137.495V140.181H256.773V135.375ZM264.033 140.331C263.681 140.331 263.367 140.262 263.091 140.124C262.815 139.986 262.601 139.797 262.45 139.559C262.299 139.314 262.224 139.037 262.224 138.729C262.224 138.221 262.416 137.825 262.799 137.542C263.182 137.253 263.666 137.109 264.25 137.109C264.539 137.109 264.806 137.14 265.051 137.203C265.302 137.266 265.494 137.338 265.626 137.42V137.128C265.626 136.769 265.5 136.484 265.249 136.27C264.998 136.05 264.68 135.94 264.297 135.94C264.027 135.94 263.779 136 263.553 136.119C263.326 136.232 263.147 136.393 263.016 136.6L262.412 136.148C262.601 135.859 262.858 135.632 263.185 135.469C263.518 135.306 263.886 135.224 264.288 135.224C264.941 135.224 265.453 135.397 265.824 135.742C266.201 136.082 266.389 136.546 266.389 137.137V140.181H265.626V139.493H265.588C265.45 139.725 265.243 139.923 264.966 140.086C264.69 140.25 264.379 140.331 264.033 140.331ZM264.109 139.625C264.379 139.625 264.63 139.556 264.862 139.417C265.095 139.279 265.28 139.094 265.418 138.861C265.557 138.629 265.626 138.375 265.626 138.098C265.475 137.998 265.29 137.916 265.07 137.853C264.85 137.79 264.617 137.759 264.372 137.759C263.933 137.759 263.6 137.85 263.374 138.032C263.154 138.214 263.044 138.45 263.044 138.739C263.044 139.003 263.144 139.216 263.345 139.38C263.546 139.543 263.801 139.625 264.109 139.625ZM267.503 133.434H268.304V140.181H267.503V133.434ZM269.491 133.434H270.292V140.181H269.491V133.434ZM275.78 142.367C275.214 142.367 274.746 142.235 274.376 141.971C274.011 141.707 273.766 141.39 273.641 141.019L274.366 140.708C274.473 140.985 274.649 141.208 274.894 141.377C275.145 141.553 275.44 141.641 275.78 141.641C276.276 141.641 276.659 141.497 276.929 141.208C277.206 140.919 277.344 140.51 277.344 139.983V139.446H277.306C277.149 139.691 276.926 139.892 276.637 140.049C276.355 140.2 276.031 140.275 275.667 140.275C275.252 140.275 274.872 140.168 274.526 139.955C274.187 139.741 273.917 139.443 273.716 139.059C273.515 138.676 273.414 138.239 273.414 137.749C273.414 137.266 273.515 136.832 273.716 136.449C273.917 136.06 274.187 135.758 274.526 135.544C274.872 135.331 275.252 135.224 275.667 135.224C276.031 135.224 276.355 135.303 276.637 135.46C276.926 135.61 277.149 135.811 277.306 136.063H277.344V135.375H278.107V139.992C278.107 140.765 277.894 141.352 277.466 141.754C277.039 142.163 276.477 142.367 275.78 142.367ZM275.78 139.549C276.069 139.549 276.329 139.477 276.562 139.333C276.801 139.188 276.989 138.981 277.127 138.711C277.272 138.441 277.344 138.12 277.344 137.749C277.344 137.373 277.272 137.049 277.127 136.779C276.989 136.509 276.801 136.305 276.562 136.166C276.329 136.022 276.069 135.95 275.78 135.95C275.491 135.95 275.227 136.022 274.988 136.166C274.749 136.311 274.558 136.518 274.413 136.788C274.275 137.058 274.206 137.379 274.206 137.749C274.206 138.12 274.275 138.444 274.413 138.72C274.558 138.99 274.749 139.198 274.988 139.342C275.227 139.48 275.491 139.549 275.78 139.549ZM281.46 140.331C280.989 140.331 280.565 140.218 280.188 139.992C279.811 139.766 279.516 139.458 279.302 139.069C279.095 138.679 278.991 138.249 278.991 137.778C278.991 137.307 279.095 136.876 279.302 136.487C279.516 136.097 279.811 135.789 280.188 135.563C280.565 135.337 280.989 135.224 281.46 135.224C281.931 135.224 282.355 135.337 282.732 135.563C283.109 135.789 283.401 136.097 283.608 136.487C283.822 136.876 283.929 137.307 283.929 137.778C283.929 138.249 283.822 138.679 283.608 139.069C283.401 139.458 283.109 139.766 282.732 139.992C282.355 140.218 281.931 140.331 281.46 140.331ZM281.46 139.606C281.755 139.606 282.029 139.534 282.28 139.389C282.537 139.238 282.742 139.025 282.892 138.748C283.049 138.472 283.128 138.148 283.128 137.778C283.128 137.407 283.049 137.084 282.892 136.807C282.742 136.531 282.537 136.32 282.28 136.176C282.029 136.025 281.755 135.95 281.46 135.95C281.165 135.95 280.888 136.025 280.631 136.176C280.373 136.32 280.166 136.531 280.009 136.807C279.858 137.084 279.783 137.407 279.783 137.778C279.783 138.148 279.858 138.472 280.009 138.748C280.166 139.025 280.373 139.238 280.631 139.389C280.888 139.534 281.165 139.606 281.46 139.606ZM286.395 140.331C286.043 140.331 285.729 140.262 285.453 140.124C285.176 139.986 284.963 139.797 284.812 139.559C284.661 139.314 284.586 139.037 284.586 138.729C284.586 138.221 284.777 137.825 285.161 137.542C285.544 137.253 286.027 137.109 286.612 137.109C286.901 137.109 287.168 137.14 287.413 137.203C287.664 137.266 287.856 137.338 287.987 137.42V137.128C287.987 136.769 287.862 136.484 287.611 136.27C287.359 136.05 287.042 135.94 286.659 135.94C286.389 135.94 286.141 136 285.914 136.119C285.688 136.232 285.509 136.393 285.377 136.6L284.774 136.148C284.963 135.859 285.22 135.632 285.547 135.469C285.88 135.306 286.247 135.224 286.649 135.224C287.303 135.224 287.815 135.397 288.185 135.742C288.562 136.082 288.751 136.546 288.751 137.137V140.181H287.987V139.493H287.95C287.812 139.725 287.604 139.923 287.328 140.086C287.051 140.25 286.74 140.331 286.395 140.331ZM286.47 139.625C286.74 139.625 286.992 139.556 287.224 139.417C287.457 139.279 287.642 139.094 287.78 138.861C287.918 138.629 287.987 138.375 287.987 138.098C287.837 137.998 287.651 137.916 287.432 137.853C287.212 137.79 286.979 137.759 286.734 137.759C286.294 137.759 285.961 137.85 285.735 138.032C285.515 138.214 285.406 138.45 285.406 138.739C285.406 139.003 285.506 139.216 285.707 139.38C285.908 139.543 286.163 139.625 286.47 139.625ZM289.865 133.434H290.666V140.181H289.865V133.434ZM293.484 140.331C292.969 140.331 292.539 140.212 292.193 139.973C291.848 139.728 291.603 139.417 291.458 139.04L292.174 138.72C292.294 139.009 292.47 139.232 292.702 139.389C292.941 139.546 293.201 139.625 293.484 139.625C293.786 139.625 294.043 139.565 294.257 139.446C294.47 139.32 294.577 139.144 294.577 138.918C294.577 138.717 294.492 138.557 294.323 138.437C294.153 138.312 293.886 138.205 293.522 138.117L292.938 137.966C292.554 137.872 292.24 137.712 291.995 137.486C291.75 137.259 291.628 136.967 291.628 136.609C291.628 136.333 291.709 136.091 291.873 135.884C292.042 135.67 292.265 135.507 292.542 135.394C292.818 135.281 293.117 135.224 293.437 135.224C293.858 135.224 294.232 135.315 294.558 135.497C294.891 135.68 295.127 135.934 295.265 136.261L294.568 136.581C294.354 136.154 293.974 135.94 293.428 135.94C293.164 135.94 292.931 136.003 292.73 136.129C292.535 136.248 292.438 136.402 292.438 136.59C292.438 136.766 292.507 136.911 292.645 137.024C292.784 137.131 292.991 137.219 293.267 137.288L293.965 137.467C294.436 137.586 294.791 137.765 295.029 138.004C295.268 138.236 295.388 138.522 295.388 138.861C295.388 139.157 295.303 139.417 295.133 139.644C294.964 139.863 294.734 140.033 294.445 140.152C294.156 140.272 293.836 140.331 293.484 140.331Z" fill="#6F767E"/>
<rect opacity="0.1" x="177.434" y="131.181" width="33.6543" height="33.6543" rx="6.73086" fill="#5843BE"/>
<path fill-rule="evenodd" clip-rule="evenodd" d="M194.396 152.315C193.208 152.315 192.242 151.349 192.242 150.161C192.242 148.974 193.208 148.008 194.396 148.008C195.584 148.008 196.55 148.974 196.55 150.161C196.55 151.349 195.584 152.315 194.396 152.315ZM194.396 146.93C192.614 146.93 191.165 148.379 191.165 150.161C191.165 151.943 192.614 153.392 194.396 153.392C196.177 153.392 197.626 151.943 197.626 150.161C197.626 148.379 196.177 146.93 194.396 146.93Z" fill="#5843BE"/>
<path fill-rule="evenodd" clip-rule="evenodd" d="M197.541 145.152C196.877 144.733 196.124 144.445 195.318 144.318L197.386 141.008H200.375L197.541 145.152ZM199.242 150.162C199.242 152.834 197.068 155.008 194.395 155.008C191.723 155.008 189.549 152.834 189.549 150.162C189.549 147.489 191.723 145.315 194.395 145.315C197.068 145.315 199.242 147.489 199.242 150.162ZM188.416 141.008H191.405L193.474 144.318C192.666 144.445 191.915 144.733 191.25 145.152L188.416 141.008ZM201.872 140.217C201.779 140.041 201.595 139.93 201.396 139.93H197.088C196.902 139.93 196.73 140.026 196.631 140.184L194.395 143.761L192.16 140.184C192.061 140.026 191.889 139.93 191.703 139.93H187.395C187.195 139.93 187.012 140.041 186.919 140.217C186.826 140.394 186.838 140.608 186.951 140.773L190.393 145.807C189.216 146.891 188.472 148.439 188.472 150.162C188.472 153.427 191.129 156.085 194.395 156.085C197.662 156.085 200.319 153.427 200.319 150.162C200.319 148.439 199.575 146.891 198.397 145.807L201.84 140.773C201.953 140.608 201.965 140.394 201.872 140.217Z" fill="#5843BE"/>
</svg>
