<svg width="480" height="401" viewBox="0 0 480 401" fill="none" xmlns="http://www.w3.org/2000/svg">
<g filter="url(#filter0_dddddd_1_571)">
<rect x="80" y="2" width="319.021" height="219" rx="10" fill="white"/>
</g>
<path d="M113.06 56V43.04H117.191C117.299 43.04 117.512 43.043 117.83 43.049C118.154 43.055 118.466 43.076 118.766 43.112C119.792 43.244 120.659 43.61 121.367 44.21C122.081 44.804 122.621 45.563 122.987 46.487C123.353 47.411 123.536 48.422 123.536 49.52C123.536 50.618 123.353 51.629 122.987 52.553C122.621 53.477 122.081 54.239 121.367 54.839C120.659 55.433 119.792 55.796 118.766 55.928C118.472 55.964 118.163 55.985 117.839 55.991C117.515 55.997 117.299 56 117.191 56H113.06ZM115.265 53.957H117.191C117.371 53.957 117.599 53.951 117.875 53.939C118.157 53.927 118.406 53.9 118.622 53.858C119.234 53.744 119.732 53.471 120.116 53.039C120.5 52.607 120.782 52.082 120.962 51.464C121.148 50.846 121.241 50.198 121.241 49.52C121.241 48.818 121.148 48.158 120.962 47.54C120.776 46.922 120.488 46.403 120.098 45.983C119.714 45.563 119.222 45.296 118.622 45.182C118.406 45.134 118.157 45.107 117.875 45.101C117.599 45.089 117.371 45.083 117.191 45.083H115.265V53.957ZM128.381 56.27C127.679 56.27 127.085 56.138 126.599 55.874C126.113 55.604 125.744 55.247 125.492 54.803C125.246 54.359 125.123 53.87 125.123 53.336C125.123 52.868 125.201 52.448 125.357 52.076C125.513 51.698 125.753 51.374 126.077 51.104C126.401 50.828 126.821 50.603 127.337 50.429C127.727 50.303 128.183 50.189 128.705 50.087C129.233 49.985 129.803 49.892 130.415 49.808C131.033 49.718 131.678 49.622 132.35 49.52L131.576 49.961C131.582 49.289 131.432 48.794 131.126 48.476C130.82 48.158 130.304 47.999 129.578 47.999C129.14 47.999 128.717 48.101 128.309 48.305C127.901 48.509 127.616 48.86 127.454 49.358L125.474 48.737C125.714 47.915 126.17 47.255 126.842 46.757C127.52 46.259 128.432 46.01 129.578 46.01C130.442 46.01 131.201 46.151 131.855 46.433C132.515 46.715 133.004 47.177 133.322 47.819C133.496 48.161 133.601 48.512 133.637 48.872C133.673 49.226 133.691 49.613 133.691 50.033V56H131.792V53.894L132.107 54.236C131.669 54.938 131.156 55.454 130.568 55.784C129.986 56.108 129.257 56.27 128.381 56.27ZM128.813 54.542C129.305 54.542 129.725 54.455 130.073 54.281C130.421 54.107 130.697 53.894 130.901 53.642C131.111 53.39 131.252 53.153 131.324 52.931C131.438 52.655 131.501 52.34 131.513 51.986C131.531 51.626 131.54 51.335 131.54 51.113L132.206 51.311C131.552 51.413 130.991 51.503 130.523 51.581C130.055 51.659 129.653 51.734 129.317 51.806C128.981 51.872 128.684 51.947 128.426 52.031C128.174 52.121 127.961 52.226 127.787 52.346C127.613 52.466 127.478 52.604 127.382 52.76C127.292 52.916 127.247 53.099 127.247 53.309C127.247 53.549 127.307 53.762 127.427 53.948C127.547 54.128 127.721 54.272 127.949 54.38C128.183 54.488 128.471 54.542 128.813 54.542ZM136.214 44.804V42.815H138.383V44.804H136.214ZM136.214 56V46.28H138.383V56H136.214ZM141.259 56V42.77H143.428V56H141.259ZM147.402 60.32L149.274 55.181L149.31 56.693L145.071 46.28H147.33L150.336 53.984H149.76L152.685 46.28H154.854L149.436 60.32H147.402ZM158.9 56L162.986 43.04H166.163L170.249 56H168.017L164.309 44.372H164.795L161.132 56H158.9ZM161.177 53.192V51.167H167.981V53.192H161.177ZM176.097 56.27C175.095 56.27 174.24 56.048 173.532 55.604C172.824 55.154 172.281 54.542 171.903 53.768C171.531 52.994 171.342 52.118 171.336 51.14C171.342 50.144 171.537 49.262 171.921 48.494C172.311 47.72 172.863 47.114 173.577 46.676C174.291 46.232 175.14 46.01 176.124 46.01C177.228 46.01 178.161 46.289 178.923 46.847C179.691 47.399 180.192 48.155 180.426 49.115L178.266 49.7C178.098 49.178 177.819 48.773 177.429 48.485C177.039 48.191 176.595 48.044 176.097 48.044C175.533 48.044 175.068 48.179 174.702 48.449C174.336 48.713 174.066 49.079 173.892 49.547C173.718 50.015 173.631 50.546 173.631 51.14C173.631 52.064 173.838 52.811 174.252 53.381C174.666 53.951 175.281 54.236 176.097 54.236C176.673 54.236 177.126 54.104 177.456 53.84C177.792 53.576 178.044 53.195 178.212 52.697L180.426 53.192C180.126 54.182 179.601 54.944 178.851 55.478C178.101 56.006 177.183 56.27 176.097 56.27ZM187.926 56C187.284 56.12 186.654 56.171 186.036 56.153C185.424 56.141 184.875 56.03 184.389 55.82C183.903 55.604 183.534 55.265 183.282 54.803C183.06 54.383 182.943 53.954 182.931 53.516C182.919 53.078 182.913 52.583 182.913 52.031V43.58H185.073V51.905C185.073 52.295 185.076 52.637 185.082 52.931C185.094 53.225 185.157 53.465 185.271 53.651C185.487 54.011 185.832 54.212 186.306 54.254C186.78 54.296 187.32 54.272 187.926 54.182V56ZM181.149 47.981V46.28H187.926V47.981H181.149ZM190.197 44.804V42.815H192.366V44.804H190.197ZM190.197 56V46.28H192.366V56H190.197ZM197.69 56L194.162 46.28H196.331L198.779 53.327L201.218 46.28H203.396L199.868 56H197.69ZM205.191 44.804V42.815H207.36V44.804H205.191ZM205.191 56V46.28H207.36V56H205.191ZM215.753 56C215.111 56.12 214.481 56.171 213.863 56.153C213.251 56.141 212.702 56.03 212.216 55.82C211.73 55.604 211.361 55.265 211.109 54.803C210.887 54.383 210.77 53.954 210.758 53.516C210.746 53.078 210.74 52.583 210.74 52.031V43.58H212.9V51.905C212.9 52.295 212.903 52.637 212.909 52.931C212.921 53.225 212.984 53.465 213.098 53.651C213.314 54.011 213.659 54.212 214.133 54.254C214.607 54.296 215.147 54.272 215.753 54.182V56ZM208.976 47.981V46.28H215.753V47.981H208.976ZM218.023 44.804V42.815H220.192V44.804H218.023ZM218.023 56V46.28H220.192V56H218.023ZM227.307 56.27C226.323 56.27 225.459 56.057 224.715 55.631C223.971 55.205 223.389 54.614 222.969 53.858C222.555 53.102 222.348 52.232 222.348 51.248C222.348 50.186 222.552 49.265 222.96 48.485C223.368 47.699 223.935 47.09 224.661 46.658C225.387 46.226 226.227 46.01 227.181 46.01C228.189 46.01 229.044 46.247 229.746 46.721C230.454 47.189 230.979 47.852 231.321 48.71C231.663 49.568 231.792 50.579 231.708 51.743H229.557V50.951C229.551 49.895 229.365 49.124 228.999 48.638C228.633 48.152 228.057 47.909 227.271 47.909C226.383 47.909 225.723 48.185 225.291 48.737C224.859 49.283 224.643 50.084 224.643 51.14C224.643 52.124 224.859 52.886 225.291 53.426C225.723 53.966 226.353 54.236 227.181 54.236C227.715 54.236 228.174 54.119 228.558 53.885C228.948 53.645 229.248 53.3 229.458 52.85L231.6 53.498C231.228 54.374 230.652 55.055 229.872 55.541C229.098 56.027 228.243 56.27 227.307 56.27ZM223.959 51.743V50.105H230.646V51.743H223.959ZM237.469 56.27C236.269 56.27 235.294 56 234.544 55.46C233.794 54.92 233.338 54.161 233.176 53.183L235.39 52.841C235.504 53.321 235.756 53.699 236.146 53.975C236.536 54.251 237.028 54.389 237.622 54.389C238.144 54.389 238.546 54.287 238.828 54.083C239.116 53.873 239.26 53.588 239.26 53.228C239.26 53.006 239.206 52.829 239.098 52.697C238.996 52.559 238.768 52.427 238.414 52.301C238.06 52.175 237.517 52.016 236.785 51.824C235.969 51.608 235.321 51.377 234.841 51.131C234.361 50.879 234.016 50.582 233.806 50.24C233.596 49.898 233.491 49.484 233.491 48.998C233.491 48.392 233.65 47.864 233.968 47.414C234.286 46.964 234.73 46.619 235.3 46.379C235.87 46.133 236.542 46.01 237.316 46.01C238.072 46.01 238.741 46.127 239.323 46.361C239.911 46.595 240.385 46.928 240.745 47.36C241.105 47.792 241.327 48.299 241.411 48.881L239.197 49.277C239.143 48.863 238.954 48.536 238.63 48.296C238.312 48.056 237.886 47.921 237.352 47.891C236.842 47.861 236.431 47.939 236.119 48.125C235.807 48.305 235.651 48.56 235.651 48.89C235.651 49.076 235.714 49.235 235.84 49.367C235.966 49.499 236.218 49.631 236.596 49.763C236.98 49.895 237.55 50.057 238.306 50.249C239.08 50.447 239.698 50.675 240.16 50.933C240.628 51.185 240.964 51.488 241.168 51.842C241.378 52.196 241.483 52.625 241.483 53.129C241.483 54.107 241.126 54.875 240.412 55.433C239.704 55.991 238.723 56.27 237.469 56.27Z" fill="black"/>
<path d="M120.108 184.2V194H118.498V187.014L115.516 191.942H115.32L112.338 187V194H110.728V184.2H112.464L115.418 189.1L118.386 184.2H120.108ZM125.268 194.182C124.241 194.182 123.369 193.827 122.65 193.118C121.931 192.409 121.572 191.536 121.572 190.5C121.572 189.464 121.931 188.591 122.65 187.882C123.369 187.173 124.241 186.818 125.268 186.818C126.304 186.818 127.177 187.173 127.886 187.882C128.605 188.591 128.964 189.464 128.964 190.5C128.964 191.536 128.605 192.409 127.886 193.118C127.177 193.827 126.304 194.182 125.268 194.182ZM123.714 192.082C124.134 192.502 124.652 192.712 125.268 192.712C125.884 192.712 126.402 192.502 126.822 192.082C127.242 191.662 127.452 191.135 127.452 190.5C127.452 189.865 127.242 189.338 126.822 188.918C126.402 188.498 125.884 188.288 125.268 188.288C124.652 188.288 124.134 188.498 123.714 188.918C123.294 189.338 123.084 189.865 123.084 190.5C123.084 191.135 123.294 191.662 123.714 192.082ZM134.013 186.818C134.816 186.818 135.465 187.075 135.959 187.588C136.454 188.101 136.701 188.806 136.701 189.702V194H135.189V189.856C135.189 189.333 135.049 188.932 134.769 188.652C134.489 188.372 134.107 188.232 133.621 188.232C133.089 188.232 132.66 188.4 132.333 188.736C132.007 189.063 131.843 189.567 131.843 190.248V194H130.331V187H131.843V187.896C132.301 187.177 133.024 186.818 134.013 186.818Z" fill="#A9A9A9"/>
<rect x="118.98" y="77" width="12.3095" height="94" rx="6.15475" fill="#4F46BA"/>
<rect x="202.069" y="104" width="12.3095" height="67" rx="6.15475" fill="#4F46BA"/>
<path d="M197.776 194L195.004 184.2H196.698L198.756 191.858L200.982 184.2H202.466L204.678 191.858L206.736 184.2H208.43L205.658 194H203.796L201.724 186.846L199.638 194H197.776ZM209.948 191.144C210.06 191.676 210.317 192.087 210.718 192.376C211.119 192.656 211.609 192.796 212.188 192.796C212.991 192.796 213.593 192.507 213.994 191.928L215.24 192.656C214.549 193.673 213.527 194.182 212.174 194.182C211.035 194.182 210.116 193.837 209.416 193.146C208.716 192.446 208.366 191.564 208.366 190.5C208.366 189.455 208.711 188.582 209.402 187.882C210.093 187.173 210.979 186.818 212.062 186.818C213.089 186.818 213.929 187.177 214.582 187.896C215.245 188.615 215.576 189.487 215.576 190.514C215.576 190.673 215.557 190.883 215.52 191.144H209.948ZM209.934 189.912H214.05C213.947 189.343 213.709 188.913 213.336 188.624C212.972 188.335 212.543 188.19 212.048 188.19C211.488 188.19 211.021 188.344 210.648 188.652C210.275 188.96 210.037 189.38 209.934 189.912ZM222.41 184.2H223.922V194H222.41V192.992C221.84 193.785 221.024 194.182 219.96 194.182C218.998 194.182 218.177 193.827 217.496 193.118C216.814 192.399 216.474 191.527 216.474 190.5C216.474 189.464 216.814 188.591 217.496 187.882C218.177 187.173 218.998 186.818 219.96 186.818C221.024 186.818 221.84 187.21 222.41 187.994V184.2ZM218.616 192.11C219.036 192.53 219.563 192.74 220.198 192.74C220.832 192.74 221.36 192.53 221.78 192.11C222.2 191.681 222.41 191.144 222.41 190.5C222.41 189.856 222.2 189.324 221.78 188.904C221.36 188.475 220.832 188.26 220.198 188.26C219.563 188.26 219.036 188.475 218.616 188.904C218.196 189.324 217.986 189.856 217.986 190.5C217.986 191.144 218.196 191.681 218.616 192.11Z" fill="#A9A9A9"/>
<rect x="160.012" y="96" width="12.3095" height="75" rx="6.15475" fill="#F9896B"/>
<path d="M163.762 184.2V185.74H161.004V194H159.394V185.74H156.622V184.2H163.762ZM168.452 187H169.964V194H168.452V193.104C167.994 193.823 167.271 194.182 166.282 194.182C165.479 194.182 164.83 193.925 164.336 193.412C163.841 192.899 163.594 192.194 163.594 191.298V187H165.106V191.144C165.106 191.667 165.246 192.068 165.526 192.348C165.806 192.628 166.188 192.768 166.674 192.768C167.206 192.768 167.635 192.605 167.962 192.278C168.288 191.942 168.452 191.433 168.452 190.752V187ZM172.922 191.144C173.034 191.676 173.29 192.087 173.692 192.376C174.093 192.656 174.583 192.796 175.162 192.796C175.964 192.796 176.566 192.507 176.968 191.928L178.214 192.656C177.523 193.673 176.501 194.182 175.148 194.182C174.009 194.182 173.09 193.837 172.39 193.146C171.69 192.446 171.34 191.564 171.34 190.5C171.34 189.455 171.685 188.582 172.376 187.882C173.066 187.173 173.953 186.818 175.036 186.818C176.062 186.818 176.902 187.177 177.556 187.896C178.218 188.615 178.55 189.487 178.55 190.514C178.55 190.673 178.531 190.883 178.494 191.144H172.922ZM172.908 189.912H177.024C176.921 189.343 176.683 188.913 176.31 188.624C175.946 188.335 175.516 188.19 175.022 188.19C174.462 188.19 173.995 188.344 173.622 188.652C173.248 188.96 173.01 189.38 172.908 189.912Z" fill="#A9A9A9"/>
<rect x="244.127" y="85" width="12.3095" height="86" rx="6.15475" fill="#F9896B"/>
<path d="M246.879 184.2V185.74H244.121V194H242.511V185.74H239.739V184.2H246.879ZM251.654 186.818C252.456 186.818 253.105 187.075 253.6 187.588C254.094 188.101 254.342 188.806 254.342 189.702V194H252.83V189.856C252.83 189.333 252.69 188.932 252.41 188.652C252.13 188.372 251.747 188.232 251.262 188.232C250.73 188.232 250.3 188.4 249.974 188.736C249.647 189.063 249.484 189.567 249.484 190.248V194H247.972V184.2H249.484V187.896C249.941 187.177 250.664 186.818 251.654 186.818ZM260.688 187H262.2V194H260.688V193.104C260.23 193.823 259.507 194.182 258.518 194.182C257.715 194.182 257.066 193.925 256.572 193.412C256.077 192.899 255.83 192.194 255.83 191.298V187H257.342V191.144C257.342 191.667 257.482 192.068 257.762 192.348C258.042 192.628 258.424 192.768 258.91 192.768C259.442 192.768 259.871 192.605 260.198 192.278C260.524 191.942 260.688 191.433 260.688 190.752V187Z" fill="#A9A9A9"/>
<defs>
<filter id="filter0_dddddd_1_571" x="0" y="0.703704" width="479.021" height="400.296" filterUnits="userSpaceOnUse" color-interpolation-filters="sRGB">
<feFlood flood-opacity="0" result="BackgroundImageFix"/>
<feColorMatrix in="SourceAlpha" type="matrix" values="0 0 0 0 0 0 0 0 0 0 0 0 0 0 0 0 0 0 127 0" result="hardAlpha"/>
<feOffset dy="1.85185"/>
<feGaussianBlur stdDeviation="1.57407"/>
<feColorMatrix type="matrix" values="0 0 0 0 0 0 0 0 0 0 0 0 0 0 0 0 0 0 0.01 0"/>
<feBlend mode="normal" in2="BackgroundImageFix" result="effect1_dropShadow_1_571"/>
<feColorMatrix in="SourceAlpha" type="matrix" values="0 0 0 0 0 0 0 0 0 0 0 0 0 0 0 0 0 0 127 0" result="hardAlpha"/>
<feOffset dy="8.14815"/>
<feGaussianBlur stdDeviation="3.25926"/>
<feColorMatrix type="matrix" values="0 0 0 0 0 0 0 0 0 0 0 0 0 0 0 0 0 0 0.0117778 0"/>
<feBlend mode="normal" in2="effect1_dropShadow_1_571" result="effect2_dropShadow_1_571"/>
<feColorMatrix in="SourceAlpha" type="matrix" values="0 0 0 0 0 0 0 0 0 0 0 0 0 0 0 0 0 0 127 0" result="hardAlpha"/>
<feOffset dy="20"/>
<feGaussianBlur stdDeviation="6.5"/>
<feColorMatrix type="matrix" values="0 0 0 0 0 0 0 0 0 0 0 0 0 0 0 0 0 0 0.015 0"/>
<feBlend mode="normal" in2="effect2_dropShadow_1_571" result="effect3_dropShadow_1_571"/>
<feColorMatrix in="SourceAlpha" type="matrix" values="0 0 0 0 0 0 0 0 0 0 0 0 0 0 0 0 0 0 127 0" result="hardAlpha"/>
<feOffset dy="38.5185"/>
<feGaussianBlur stdDeviation="12.7407"/>
<feColorMatrix type="matrix" values="0 0 0 0 0 0 0 0 0 0 0 0 0 0 0 0 0 0 0.0182222 0"/>
<feBlend mode="normal" in2="effect3_dropShadow_1_571" result="effect4_dropShadow_1_571"/>
<feColorMatrix in="SourceAlpha" type="matrix" values="0 0 0 0 0 0 0 0 0 0 0 0 0 0 0 0 0 0 127 0" result="hardAlpha"/>
<feOffset dy="64.8148"/>
<feGaussianBlur stdDeviation="23.4259"/>
<feColorMatrix type="matrix" values="0 0 0 0 0 0 0 0 0 0 0 0 0 0 0 0 0 0 0.0227778 0"/>
<feBlend mode="normal" in2="effect4_dropShadow_1_571" result="effect5_dropShadow_1_571"/>
<feColorMatrix in="SourceAlpha" type="matrix" values="0 0 0 0 0 0 0 0 0 0 0 0 0 0 0 0 0 0 127 0" result="hardAlpha"/>
<feOffset dy="100"/>
<feGaussianBlur stdDeviation="40"/>
<feColorMatrix type="matrix" values="0 0 0 0 0 0 0 0 0 0 0 0 0 0 0 0 0 0 0.03 0"/>
<feBlend mode="normal" in2="effect5_dropShadow_1_571" result="effect6_dropShadow_1_571"/>
<feBlend mode="normal" in="SourceGraphic" in2="effect6_dropShadow_1_571" result="shape"/>
</filter>
</defs>
</svg>
