<svg width="289" height="71" viewBox="0 0 289 71" fill="none" xmlns="http://www.w3.org/2000/svg">
<rect x="0.410156" y="0.739014" width="288.079" height="70" rx="10" fill="white"/>
<path d="M75.5733 30.921C74.052 30.921 73.002 30.3237 72.4233 29.129L73.8093 28.317C74.1267 29.0077 74.7193 29.353 75.5873 29.353C76.1473 29.353 76.5767 29.2177 76.8753 28.947C77.1833 28.667 77.3373 28.275 77.3373 27.771V20.939H78.9474V27.771C78.9474 28.779 78.63 29.5583 77.9954 30.109C77.3607 30.6503 76.5533 30.921 75.5733 30.921ZM83.9397 30.921C82.913 30.921 82.0403 30.5663 81.3217 29.857C80.603 29.1477 80.2437 28.275 80.2437 27.239C80.2437 26.203 80.603 25.3303 81.3217 24.621C82.0403 23.9117 82.913 23.557 83.9397 23.557C84.9757 23.557 85.8483 23.9117 86.5577 24.621C87.2763 25.3303 87.6357 26.203 87.6357 27.239C87.6357 28.275 87.2763 29.1477 86.5577 29.857C85.8483 30.5663 84.9757 30.921 83.9397 30.921ZM82.3857 28.821C82.8057 29.241 83.3237 29.451 83.9397 29.451C84.5557 29.451 85.0737 29.241 85.4937 28.821C85.9137 28.401 86.1237 27.8737 86.1237 27.239C86.1237 26.6043 85.9137 26.077 85.4937 25.657C85.0737 25.237 84.5557 25.027 83.9397 25.027C83.3237 25.027 82.8057 25.237 82.3857 25.657C81.9657 26.077 81.7557 26.6043 81.7557 27.239C81.7557 27.8737 81.9657 28.401 82.3857 28.821ZM92.6848 23.557C93.4875 23.557 94.1362 23.8137 94.6309 24.327C95.1255 24.8403 95.3728 25.545 95.3728 26.441V30.739H93.8608V26.595C93.8608 26.0723 93.7208 25.671 93.4408 25.391C93.1608 25.111 92.7782 24.971 92.2928 24.971C91.7608 24.971 91.3315 25.139 91.0048 25.475C90.6782 25.8017 90.5148 26.3057 90.5148 26.987V30.739H89.0028V20.939H90.5148V24.635C90.9722 23.9163 91.6955 23.557 92.6848 23.557ZM100.683 23.557C101.486 23.557 102.134 23.8137 102.629 24.327C103.124 24.8403 103.371 25.545 103.371 26.441V30.739H101.859V26.595C101.859 26.0723 101.719 25.671 101.439 25.391C101.159 25.111 100.776 24.971 100.291 24.971C99.7589 24.971 99.3296 25.139 99.0029 25.475C98.6762 25.8017 98.5129 26.3057 98.5129 26.987V30.739H97.0009V23.739H98.5129V24.635C98.9702 23.9163 99.6936 23.557 100.683 23.557ZM112.447 20.939C113.791 20.939 114.906 21.4103 115.793 22.353C116.689 23.2957 117.137 24.4577 117.137 25.839C117.137 27.211 116.689 28.373 115.793 29.325C114.906 30.2677 113.791 30.739 112.447 30.739H108.597V20.939H112.447ZM112.447 29.199C113.371 29.199 114.122 28.8817 114.701 28.247C115.289 27.6123 115.583 26.8097 115.583 25.839C115.583 24.859 115.289 24.0563 114.701 23.431C114.122 22.7963 113.371 22.479 112.447 22.479H110.207V29.199H112.447ZM121.811 30.921C120.784 30.921 119.911 30.5663 119.193 29.857C118.474 29.1477 118.115 28.275 118.115 27.239C118.115 26.203 118.474 25.3303 119.193 24.621C119.911 23.9117 120.784 23.557 121.811 23.557C122.847 23.557 123.719 23.9117 124.429 24.621C125.147 25.3303 125.507 26.203 125.507 27.239C125.507 28.275 125.147 29.1477 124.429 29.857C123.719 30.5663 122.847 30.921 121.811 30.921ZM120.257 28.821C120.677 29.241 121.195 29.451 121.811 29.451C122.427 29.451 122.945 29.241 123.365 28.821C123.785 28.401 123.995 27.8737 123.995 27.239C123.995 26.6043 123.785 26.077 123.365 25.657C122.945 25.237 122.427 25.027 121.811 25.027C121.195 25.027 120.677 25.237 120.257 25.657C119.837 26.077 119.627 26.6043 119.627 27.239C119.627 27.8737 119.837 28.401 120.257 28.821Z" fill="black"/>
<path d="M80.6933 41.839V50.239H79.5893V43.675L76.8413 48.247H76.6973L73.9493 43.687V50.239H72.8333V41.839H74.0933L76.7693 46.279L79.4333 41.839H80.6933ZM87.4456 49.483C86.8296 50.091 86.0816 50.395 85.2016 50.395C84.3216 50.395 83.5736 50.091 82.9576 49.483C82.3496 48.875 82.0456 48.127 82.0456 47.239C82.0456 46.351 82.3496 45.603 82.9576 44.995C83.5736 44.387 84.3216 44.083 85.2016 44.083C86.0816 44.083 86.8296 44.387 87.4456 44.995C88.0616 45.603 88.3696 46.351 88.3696 47.239C88.3696 48.127 88.0616 48.875 87.4456 49.483ZM85.2016 49.375C85.8016 49.375 86.3056 49.171 86.7136 48.763C87.1216 48.355 87.3256 47.847 87.3256 47.239C87.3256 46.631 87.1216 46.123 86.7136 45.715C86.3056 45.307 85.8016 45.103 85.2016 45.103C84.6096 45.103 84.1096 45.307 83.7016 45.715C83.2936 46.123 83.0896 46.631 83.0896 47.239C83.0896 47.847 83.2936 48.355 83.7016 48.763C84.1096 49.171 84.6096 49.375 85.2016 49.375ZM92.5883 44.083C93.2923 44.083 93.8563 44.307 94.2803 44.755C94.7043 45.195 94.9163 45.795 94.9163 46.555V50.239H93.8723V46.615C93.8723 46.127 93.7403 45.751 93.4763 45.487C93.2123 45.215 92.8483 45.079 92.3843 45.079C91.8643 45.079 91.4443 45.243 91.1243 45.571C90.8043 45.891 90.6443 46.387 90.6443 47.059V50.239H89.6003V44.239H90.6443V45.103C91.0683 44.423 91.7163 44.083 92.5883 44.083ZM97.9338 49.003L97.1538 51.919H96.2538L96.7338 49.003H97.9338ZM107.353 42.895H103.633V45.619H107.197V46.675H103.633V50.239H102.517V41.839H107.353V42.895ZM109.328 47.719C109.432 48.255 109.676 48.671 110.06 48.967C110.452 49.263 110.932 49.411 111.5 49.411C112.292 49.411 112.868 49.119 113.228 48.535L114.116 49.039C113.532 49.943 112.652 50.395 111.476 50.395C110.524 50.395 109.748 50.099 109.148 49.507C108.556 48.907 108.26 48.151 108.26 47.239C108.26 46.335 108.552 45.583 109.136 44.983C109.72 44.383 110.476 44.083 111.404 44.083C112.284 44.083 113 44.395 113.552 45.019C114.112 45.635 114.392 46.379 114.392 47.251C114.392 47.403 114.38 47.559 114.356 47.719H109.328ZM111.404 45.067C110.844 45.067 110.38 45.227 110.012 45.547C109.644 45.859 109.416 46.279 109.328 46.807H113.336C113.248 46.239 113.024 45.807 112.664 45.511C112.304 45.215 111.884 45.067 111.404 45.067ZM118.905 44.083C119.745 44.083 120.461 44.391 121.053 45.007C121.645 45.615 121.941 46.359 121.941 47.239C121.941 48.119 121.645 48.867 121.053 49.483C120.461 50.091 119.745 50.395 118.905 50.395C117.913 50.395 117.157 49.999 116.637 49.207V50.239H115.593V41.839H116.637V45.271C117.157 44.479 117.913 44.083 118.905 44.083ZM118.773 49.387C119.373 49.387 119.877 49.183 120.285 48.775C120.693 48.359 120.897 47.847 120.897 47.239C120.897 46.631 120.693 46.123 120.285 45.715C119.877 45.299 119.373 45.091 118.773 45.091C118.165 45.091 117.657 45.299 117.249 45.715C116.841 46.123 116.637 46.631 116.637 47.239C116.637 47.847 116.841 48.359 117.249 48.775C117.657 49.183 118.165 49.387 118.773 49.387ZM125.826 50.239V49.327L128.79 46.303C129.582 45.511 129.978 44.831 129.978 44.263C129.978 43.791 129.834 43.423 129.546 43.159C129.258 42.895 128.906 42.763 128.49 42.763C127.698 42.763 127.122 43.139 126.762 43.891L125.826 43.339C126.09 42.795 126.454 42.383 126.918 42.103C127.39 41.823 127.91 41.683 128.478 41.683C129.182 41.683 129.794 41.915 130.314 42.379C130.834 42.843 131.094 43.467 131.094 44.251C131.094 45.099 130.594 46.023 129.594 47.023L127.446 49.159H131.25V50.239H125.826ZM136.56 45.895C136.968 46.103 137.288 46.383 137.52 46.735C137.752 47.087 137.868 47.487 137.868 47.935C137.868 48.703 137.6 49.307 137.064 49.747C136.528 50.179 135.836 50.395 134.988 50.395C134.148 50.395 133.46 50.179 132.924 49.747C132.388 49.307 132.12 48.703 132.12 47.935C132.12 47.487 132.236 47.087 132.468 46.735C132.7 46.383 133.02 46.103 133.428 45.895C132.74 45.463 132.396 44.851 132.396 44.059C132.396 43.299 132.648 42.715 133.152 42.307C133.664 41.891 134.276 41.683 134.988 41.683C135.708 41.683 136.32 41.891 136.824 42.307C137.336 42.715 137.592 43.299 137.592 44.059C137.592 44.851 137.248 45.463 136.56 45.895ZM134.988 42.751C134.564 42.751 134.208 42.863 133.92 43.087C133.64 43.311 133.5 43.643 133.5 44.083C133.5 44.507 133.644 44.839 133.932 45.079C134.22 45.311 134.572 45.427 134.988 45.427C135.404 45.427 135.756 45.311 136.044 45.079C136.332 44.839 136.476 44.507 136.476 44.083C136.476 43.643 136.336 43.311 136.056 43.087C135.776 42.863 135.42 42.751 134.988 42.751ZM134.988 49.327C135.524 49.327 135.952 49.203 136.272 48.955C136.6 48.699 136.764 48.335 136.764 47.863C136.764 47.399 136.6 47.043 136.272 46.795C135.952 46.539 135.524 46.411 134.988 46.411C134.46 46.411 134.032 46.539 133.704 46.795C133.384 47.043 133.224 47.399 133.224 47.863C133.224 48.335 133.384 48.699 133.704 48.955C134.032 49.203 134.46 49.327 134.988 49.327Z" fill="#C6C6C6"/>
<path d="M57.0261 31.739C57.0261 39.4773 50.7963 45.739 43.1254 45.739C35.4545 45.739 29.2247 39.4773 29.2247 31.739C29.2247 24.0008 35.4545 17.739 43.1254 17.739C50.7963 17.739 57.0261 24.0008 57.0261 31.739Z" fill="#EBEBF5" stroke="#4F46BA" stroke-width="2"/>
</svg>
