<svg width="243" height="164" viewBox="0 0 243 164" fill="none" xmlns="http://www.w3.org/2000/svg">
<rect y="0.38623" width="243" height="163.525" rx="10" fill="white"/>
<path d="M18.9647 31.9331V22.8401H15.4437V21.8531H23.5147V22.8401H19.9937V31.9331H18.9647ZM26.6731 32.1431C25.9218 32.1431 25.2801 31.9728 24.7481 31.6321C24.2161 31.2914 23.8078 30.8201 23.5231 30.2181C23.2385 29.6161 23.0961 28.9254 23.0961 28.1461C23.0961 27.3528 23.2408 26.6574 23.5301 26.0601C23.8195 25.4628 24.2301 24.9984 24.7621 24.6671C25.2988 24.3311 25.9358 24.1631 26.6731 24.1631C27.4291 24.1631 28.0731 24.3334 28.6051 24.6741C29.1418 25.0101 29.5501 25.4791 29.8301 26.0811C30.1148 26.6784 30.2571 27.3668 30.2571 28.1461C30.2571 28.9394 30.1148 29.6371 29.8301 30.2391C29.5455 30.8364 29.1348 31.3031 28.5981 31.6391C28.0615 31.9751 27.4198 32.1431 26.6731 32.1431ZM26.6731 31.1561C27.5131 31.1561 28.1385 30.8784 28.5491 30.3231C28.9598 29.7631 29.1651 29.0374 29.1651 28.1461C29.1651 27.2314 28.9575 26.5034 28.5421 25.9621C28.1315 25.4208 27.5085 25.1501 26.6731 25.1501C26.1085 25.1501 25.6418 25.2784 25.2731 25.5351C24.9091 25.7871 24.6361 26.1394 24.4541 26.5921C24.2768 27.0401 24.1881 27.5581 24.1881 28.1461C24.1881 29.0561 24.3981 29.7864 24.8181 30.3371C25.2381 30.8831 25.8565 31.1561 26.6731 31.1561ZM35.9173 31.9331C35.4926 32.0218 35.0726 32.0568 34.6573 32.0381C34.2466 32.0194 33.878 31.9308 33.5513 31.7721C33.2293 31.6134 32.9843 31.3661 32.8163 31.0301C32.681 30.7501 32.6063 30.4678 32.5923 30.1831C32.583 29.8938 32.5783 29.5648 32.5783 29.1961V22.2731H33.6003V29.1541C33.6003 29.4714 33.6026 29.7374 33.6073 29.9521C33.6166 30.1621 33.6656 30.3488 33.7543 30.5121C33.9223 30.8248 34.1883 31.0114 34.5523 31.0721C34.921 31.1328 35.376 31.1188 35.9173 31.0301V31.9331ZM30.9613 25.2551V24.3731H35.9173V25.2551H30.9613ZM39.5698 32.1431C39.0004 32.1431 38.5221 32.0404 38.1348 31.8351C37.7521 31.6298 37.4651 31.3568 37.2738 31.0161C37.0824 30.6754 36.9868 30.3044 36.9868 29.9031C36.9868 29.4924 37.0684 29.1424 37.2318 28.8531C37.3998 28.5591 37.6261 28.3188 37.9108 28.1321C38.2001 27.9454 38.5338 27.8031 38.9118 27.7051C39.2944 27.6118 39.7168 27.5301 40.1788 27.4601C40.6454 27.3854 41.1004 27.3224 41.5438 27.2711C41.9918 27.2151 42.3838 27.1614 42.7198 27.1101L42.3558 27.3341C42.3698 26.5874 42.2251 26.0344 41.9218 25.6751C41.6184 25.3158 41.0911 25.1361 40.3398 25.1361C39.8218 25.1361 39.3831 25.2528 39.0238 25.4861C38.6691 25.7194 38.4194 26.0881 38.2748 26.5921L37.2738 26.2981C37.4464 25.6214 37.7941 25.0964 38.3168 24.7231C38.8394 24.3498 39.5184 24.1631 40.3538 24.1631C41.0444 24.1631 41.6301 24.2938 42.1108 24.5551C42.5961 24.8118 42.9391 25.1851 43.1398 25.6751C43.2331 25.8944 43.2938 26.1394 43.3218 26.4101C43.3498 26.6808 43.3638 26.9561 43.3638 27.2361V31.9331H42.4468V30.0361L42.7128 30.1481C42.4561 30.7968 42.0571 31.2914 41.5158 31.6321C40.9744 31.9728 40.3258 32.1431 39.5698 32.1431ZM39.6888 31.2541C40.1694 31.2541 40.5894 31.1678 40.9488 30.9951C41.3081 30.8224 41.5974 30.5868 41.8168 30.2881C42.0361 29.9848 42.1784 29.6441 42.2438 29.2661C42.2998 29.0234 42.3301 28.7574 42.3348 28.4681C42.3394 28.1741 42.3418 27.9548 42.3418 27.8101L42.7338 28.0131C42.3838 28.0598 42.0034 28.1064 41.5928 28.1531C41.1868 28.1998 40.7854 28.2534 40.3888 28.3141C39.9968 28.3748 39.6421 28.4471 39.3248 28.5311C39.1101 28.5918 38.9024 28.6781 38.7018 28.7901C38.5011 28.8974 38.3354 29.0421 38.2048 29.2241C38.0788 29.4061 38.0158 29.6324 38.0158 29.9031C38.0158 30.1224 38.0694 30.3348 38.1768 30.5401C38.2888 30.7454 38.4661 30.9158 38.7088 31.0511C38.9561 31.1864 39.2828 31.2541 39.6888 31.2541ZM45.3261 31.9331V21.6431H46.3551V31.9331H45.3261ZM51.2564 31.9331V21.8531H55.1484C55.713 21.8531 56.2054 21.9698 56.6254 22.2031C57.0454 22.4364 57.372 22.7514 57.6054 23.1481C57.8387 23.5401 57.9554 23.9741 57.9554 24.4501C57.9554 24.9914 57.8107 25.4744 57.5214 25.8991C57.232 26.3191 56.8447 26.6108 56.3594 26.7741L56.3454 26.4311C56.9987 26.6178 57.512 26.9444 57.8854 27.4111C58.2587 27.8778 58.4454 28.4424 58.4454 29.1051C58.4454 29.6884 58.3217 30.1924 58.0744 30.6171C57.827 31.0371 57.4794 31.3614 57.0314 31.5901C56.5834 31.8188 56.063 31.9331 55.4704 31.9331H51.2564ZM52.2924 30.9461H55.2184C55.629 30.9461 55.9977 30.8738 56.3244 30.7291C56.651 30.5798 56.9077 30.3698 57.0944 30.0991C57.2857 29.8284 57.3814 29.5018 57.3814 29.1191C57.3814 28.7458 57.295 28.4098 57.1224 28.1111C56.9497 27.8124 56.714 27.5744 56.4154 27.3971C56.1214 27.2151 55.7854 27.1241 55.4074 27.1241H52.2924V30.9461ZM52.2924 26.1511H55.1414C55.4634 26.1511 55.7574 26.0788 56.0234 25.9341C56.2894 25.7848 56.4994 25.5818 56.6534 25.3251C56.812 25.0684 56.8914 24.7721 56.8914 24.4361C56.8914 23.9601 56.7257 23.5728 56.3944 23.2741C56.0677 22.9754 55.65 22.8261 55.1414 22.8261H52.2924V26.1511ZM62.0053 32.1431C61.436 32.1431 60.9576 32.0404 60.5703 31.8351C60.1876 31.6298 59.9006 31.3568 59.7093 31.0161C59.518 30.6754 59.4223 30.3044 59.4223 29.9031C59.4223 29.4924 59.504 29.1424 59.6673 28.8531C59.8353 28.5591 60.0616 28.3188 60.3463 28.1321C60.6356 27.9454 60.9693 27.8031 61.3473 27.7051C61.73 27.6118 62.1523 27.5301 62.6143 27.4601C63.081 27.3854 63.536 27.3224 63.9793 27.2711C64.4273 27.2151 64.8193 27.1614 65.1553 27.1101L64.7913 27.3341C64.8053 26.5874 64.6606 26.0344 64.3573 25.6751C64.054 25.3158 63.5266 25.1361 62.7753 25.1361C62.2573 25.1361 61.8186 25.2528 61.4593 25.4861C61.1046 25.7194 60.855 26.0881 60.7103 26.5921L59.7093 26.2981C59.882 25.6214 60.2296 25.0964 60.7523 24.7231C61.275 24.3498 61.954 24.1631 62.7893 24.1631C63.48 24.1631 64.0656 24.2938 64.5463 24.5551C65.0316 24.8118 65.3746 25.1851 65.5753 25.6751C65.6686 25.8944 65.7293 26.1394 65.7573 26.4101C65.7853 26.6808 65.7993 26.9561 65.7993 27.2361V31.9331H64.8823V30.0361L65.1483 30.1481C64.8916 30.7968 64.4926 31.2914 63.9513 31.6321C63.41 31.9728 62.7613 32.1431 62.0053 32.1431ZM62.1243 31.2541C62.605 31.2541 63.025 31.1678 63.3843 30.9951C63.7436 30.8224 64.033 30.5868 64.2523 30.2881C64.4716 29.9848 64.614 29.6441 64.6793 29.2661C64.7353 29.0234 64.7656 28.7574 64.7703 28.4681C64.775 28.1741 64.7773 27.9548 64.7773 27.8101L65.1693 28.0131C64.8193 28.0598 64.439 28.1064 64.0283 28.1531C63.6223 28.1998 63.221 28.2534 62.8243 28.3141C62.4323 28.3748 62.0776 28.4471 61.7603 28.5311C61.5456 28.5918 61.338 28.6781 61.1373 28.7901C60.9366 28.8974 60.771 29.0421 60.6403 29.2241C60.5143 29.4061 60.4513 29.6324 60.4513 29.9031C60.4513 30.1224 60.505 30.3348 60.6123 30.5401C60.7243 30.7454 60.9016 30.9158 61.1443 31.0511C61.3916 31.1864 61.7183 31.2541 62.1243 31.2541ZM67.7616 31.9331V21.6431H68.7906V31.9331H67.7616ZM73.0522 32.1431C72.4828 32.1431 72.0045 32.0404 71.6172 31.8351C71.2345 31.6298 70.9475 31.3568 70.7562 31.0161C70.5648 30.6754 70.4692 30.3044 70.4692 29.9031C70.4692 29.4924 70.5508 29.1424 70.7142 28.8531C70.8822 28.5591 71.1085 28.3188 71.3932 28.1321C71.6825 27.9454 72.0162 27.8031 72.3942 27.7051C72.7768 27.6118 73.1992 27.5301 73.6612 27.4601C74.1278 27.3854 74.5828 27.3224 75.0262 27.2711C75.4742 27.2151 75.8662 27.1614 76.2022 27.1101L75.8382 27.3341C75.8522 26.5874 75.7075 26.0344 75.4042 25.6751C75.1008 25.3158 74.5735 25.1361 73.8222 25.1361C73.3042 25.1361 72.8655 25.2528 72.5062 25.4861C72.1515 25.7194 71.9018 26.0881 71.7572 26.5921L70.7562 26.2981C70.9288 25.6214 71.2765 25.0964 71.7992 24.7231C72.3218 24.3498 73.0008 24.1631 73.8362 24.1631C74.5268 24.1631 75.1125 24.2938 75.5932 24.5551C76.0785 24.8118 76.4215 25.1851 76.6222 25.6751C76.7155 25.8944 76.7762 26.1394 76.8042 26.4101C76.8322 26.6808 76.8462 26.9561 76.8462 27.2361V31.9331H75.9292V30.0361L76.1952 30.1481C75.9385 30.7968 75.5395 31.2914 74.9982 31.6321C74.4568 31.9728 73.8082 32.1431 73.0522 32.1431ZM73.1712 31.2541C73.6518 31.2541 74.0718 31.1678 74.4312 30.9951C74.7905 30.8224 75.0798 30.5868 75.2992 30.2881C75.5185 29.9848 75.6608 29.6441 75.7262 29.2661C75.7822 29.0234 75.8125 28.7574 75.8172 28.4681C75.8218 28.1741 75.8242 27.9548 75.8242 27.8101L76.2162 28.0131C75.8662 28.0598 75.4858 28.1064 75.0752 28.1531C74.6692 28.1998 74.2678 28.2534 73.8712 28.3141C73.4792 28.3748 73.1245 28.4471 72.8072 28.5311C72.5925 28.5918 72.3848 28.6781 72.1842 28.7901C71.9835 28.8974 71.8178 29.0421 71.6872 29.2241C71.5612 29.4061 71.4982 29.6324 71.4982 29.9031C71.4982 30.1224 71.5518 30.3348 71.6592 30.5401C71.7712 30.7454 71.9485 30.9158 72.1912 31.0511C72.4385 31.1864 72.7652 31.2541 73.1712 31.2541ZM84.1285 31.9331V28.0761C84.1285 27.6561 84.0888 27.2711 84.0095 26.9211C83.9301 26.5664 83.8018 26.2584 83.6245 25.9971C83.4518 25.7311 83.2255 25.5258 82.9455 25.3811C82.6701 25.2364 82.3341 25.1641 81.9375 25.1641C81.5735 25.1641 81.2515 25.2271 80.9715 25.3531C80.6961 25.4791 80.4628 25.6611 80.2715 25.8991C80.0848 26.1324 79.9425 26.4171 79.8445 26.7531C79.7465 27.0891 79.6975 27.4718 79.6975 27.9011L78.9695 27.7401C78.9695 26.9654 79.1048 26.3144 79.3755 25.7871C79.6461 25.2598 80.0195 24.8608 80.4955 24.5901C80.9715 24.3194 81.5175 24.1841 82.1335 24.1841C82.5861 24.1841 82.9805 24.2541 83.3165 24.3941C83.6571 24.5341 83.9441 24.7231 84.1775 24.9611C84.4155 25.1991 84.6068 25.4721 84.7515 25.7801C84.8961 26.0834 85.0011 26.4078 85.0665 26.7531C85.1318 27.0938 85.1645 27.4344 85.1645 27.7751V31.9331H84.1285ZM78.6615 31.9331V24.3731H79.5925V26.2351H79.6975V31.9331H78.6615ZM90.076 32.1431C89.3153 32.1431 88.6713 31.9728 88.144 31.6321C87.6166 31.2914 87.2153 30.8224 86.94 30.2251C86.6693 29.6231 86.5293 28.9324 86.52 28.1531C86.5293 27.3598 86.674 26.6644 86.954 26.0671C87.234 25.4651 87.6376 24.9984 88.165 24.6671C88.6923 24.3311 89.3316 24.1631 90.083 24.1631C90.8483 24.1631 91.5133 24.3498 92.078 24.7231C92.6473 25.0964 93.037 25.6074 93.247 26.2561L92.239 26.5781C92.0616 26.1254 91.7793 25.7754 91.392 25.5281C91.0093 25.2761 90.5706 25.1501 90.076 25.1501C89.5206 25.1501 89.061 25.2784 88.697 25.5351C88.333 25.7871 88.0623 26.1394 87.885 26.5921C87.7076 27.0448 87.6166 27.5651 87.612 28.1531C87.6213 29.0584 87.8313 29.7864 88.242 30.3371C88.6526 30.8831 89.264 31.1561 90.076 31.1561C90.5893 31.1561 91.0256 31.0394 91.385 30.8061C91.749 30.5681 92.0243 30.2228 92.211 29.7701L93.247 30.0781C92.967 30.7501 92.5563 31.2634 92.015 31.6181C91.4736 31.9681 90.8273 32.1431 90.076 32.1431ZM97.6858 32.1431C96.9485 32.1431 96.3092 31.9798 95.7678 31.6531C95.2312 31.3264 94.8135 30.8668 94.5148 30.2741C94.2162 29.6814 94.0668 28.9861 94.0668 28.1881C94.0668 27.3621 94.2138 26.6481 94.5078 26.0461C94.8018 25.4441 95.2148 24.9798 95.7468 24.6531C96.2835 24.3264 96.9158 24.1631 97.6438 24.1631C98.3905 24.1631 99.0275 24.3358 99.5548 24.6811C100.082 25.0218 100.481 25.5118 100.752 26.1511C101.023 26.7904 101.146 27.5534 101.123 28.4401H100.073V28.0761C100.054 27.0961 99.8418 26.3564 99.4358 25.8571C99.0345 25.3578 98.4465 25.1081 97.6718 25.1081C96.8598 25.1081 96.2368 25.3718 95.8028 25.8991C95.3735 26.4264 95.1588 27.1778 95.1588 28.1531C95.1588 29.1051 95.3735 29.8448 95.8028 30.3721C96.2368 30.8948 96.8505 31.1561 97.6438 31.1561C98.1852 31.1561 98.6565 31.0324 99.0578 30.7851C99.4638 30.5331 99.7835 30.1714 100.017 29.7001L100.976 30.0711C100.677 30.7291 100.236 31.2401 99.6528 31.6041C99.0742 31.9634 98.4185 32.1431 97.6858 32.1431ZM94.7948 28.4401V27.5791H100.57V28.4401H94.7948Z" fill="black"/>
<path d="M20.136 59.8591V57.9631H22.064V59.8591H20.136ZM20.136 47.0591V45.1631H22.064V47.0591H20.136ZM21.144 58.5071C20.3333 58.5071 19.608 58.3578 18.968 58.0591C18.328 57.7604 17.8027 57.3391 17.392 56.7951C16.9867 56.2511 16.728 55.6058 16.616 54.8591L18.52 54.5551C18.6693 55.2111 18.9893 55.7338 19.48 56.1231C19.976 56.5071 20.568 56.6991 21.256 56.6991C21.9173 56.6991 22.4613 56.5444 22.888 56.2351C23.3147 55.9204 23.528 55.5231 23.528 55.0431C23.528 54.7071 23.4267 54.4351 23.224 54.2271C23.0213 54.0138 22.696 53.8378 22.248 53.6991L19.472 52.8351C17.856 52.3338 17.048 51.3524 17.048 49.8911C17.048 49.2084 17.2107 48.6138 17.536 48.1071C17.8667 47.5951 18.3307 47.2031 18.928 46.9311C19.5253 46.6538 20.2293 46.5178 21.04 46.5231C21.792 46.5284 22.4613 46.6644 23.048 46.9311C23.64 47.1978 24.1307 47.5818 24.52 48.0831C24.9147 48.5844 25.1947 49.1871 25.36 49.8911L23.384 50.2511C23.3093 49.8724 23.1627 49.5391 22.944 49.2511C22.7253 48.9631 22.4507 48.7391 22.12 48.5791C21.7893 48.4191 21.4213 48.3338 21.016 48.3231C20.6267 48.3178 20.2773 48.3791 19.968 48.5071C19.6587 48.6298 19.4133 48.8058 19.232 49.0351C19.0507 49.2591 18.96 49.5124 18.96 49.7951C18.96 50.1098 19.0853 50.3791 19.336 50.6031C19.592 50.8271 19.9947 51.0191 20.544 51.1791L22.616 51.7791C23.6133 52.0671 24.3307 52.4591 24.768 52.9551C25.2107 53.4458 25.432 54.0991 25.432 54.9151C25.432 55.6298 25.2533 56.2564 24.896 56.7951C24.5387 57.3338 24.0373 57.7551 23.392 58.0591C22.7467 58.3578 21.9973 58.5071 21.144 58.5071ZM31.9509 58.2671V56.3631H26.8469V54.5631L30.5349 46.7471H32.7349L29.0469 54.5631H31.9509V51.5631H33.9029V54.5631H34.9829V56.3631H33.9029V58.2671H31.9509ZM36.4288 60.3071L36.5408 59.4751C36.7861 59.4964 36.9808 59.4538 37.1248 59.3471C37.2688 59.2458 37.3648 59.0991 37.4128 58.9071C37.4661 58.7204 37.4794 58.5071 37.4528 58.2671H36.4288V56.2111H38.4048V58.3471C38.4048 59.0458 38.2394 59.5738 37.9088 59.9311C37.5781 60.2884 37.0848 60.4138 36.4288 60.3071ZM41.1281 58.2511V56.5711L46.0561 52.1791C46.4401 51.8378 46.7068 51.5151 46.8561 51.2111C47.0055 50.9071 47.0801 50.6138 47.0801 50.3311C47.0801 49.9471 46.9975 49.6058 46.8321 49.3071C46.6668 49.0031 46.4375 48.7631 46.1441 48.5871C45.8561 48.4111 45.5228 48.3231 45.1441 48.3231C44.7441 48.3231 44.3895 48.4164 44.0801 48.6031C43.7761 48.7844 43.5388 49.0271 43.3681 49.3311C43.1975 49.6351 43.1175 49.9631 43.1281 50.3151H41.1441C41.1441 49.5471 41.3148 48.8778 41.6561 48.3071C42.0028 47.7364 42.4775 47.2938 43.0801 46.9791C43.6881 46.6644 44.3895 46.5071 45.1841 46.5071C45.9201 46.5071 46.5815 46.6724 47.1681 47.0031C47.7548 47.3284 48.2161 47.7818 48.5521 48.3631C48.8881 48.9391 49.0561 49.6031 49.0561 50.3551C49.0561 50.9044 48.9815 51.3658 48.8321 51.7391C48.6828 52.1124 48.4588 52.4564 48.1601 52.7711C47.8668 53.0858 47.5015 53.4351 47.0641 53.8191L43.5681 56.9151L43.3921 56.4351H49.0561V58.2511H41.1281ZM55.1234 58.5071C54.3074 58.5071 53.5874 58.3338 52.9634 57.9871C52.3394 57.6351 51.8514 57.1471 51.4994 56.5231C51.1527 55.8991 50.9794 55.1791 50.9794 54.3631V50.6511C50.9794 49.8351 51.1527 49.1151 51.4994 48.4911C51.8514 47.8671 52.3394 47.3818 52.9634 47.0351C53.5874 46.6831 54.3074 46.5071 55.1234 46.5071C55.9394 46.5071 56.6567 46.6831 57.2754 47.0351C57.8994 47.3818 58.3874 47.8671 58.7394 48.4911C59.0914 49.1151 59.2674 49.8351 59.2674 50.6511V54.3631C59.2674 55.1791 59.0914 55.8991 58.7394 56.5231C58.3874 57.1471 57.8994 57.6351 57.2754 57.9871C56.6567 58.3338 55.9394 58.5071 55.1234 58.5071ZM55.1234 56.6751C55.5287 56.6751 55.8967 56.5791 56.2274 56.3871C56.558 56.1898 56.8194 55.9284 57.0114 55.6031C57.2034 55.2724 57.2994 54.9044 57.2994 54.4991V50.5071C57.2994 50.0964 57.2034 49.7284 57.0114 49.4031C56.8194 49.0724 56.558 48.8111 56.2274 48.6191C55.8967 48.4218 55.5287 48.3231 55.1234 48.3231C54.718 48.3231 54.35 48.4218 54.0194 48.6191C53.6887 48.8111 53.4274 49.0724 53.2354 49.4031C53.0434 49.7284 52.9474 50.0964 52.9474 50.5071V54.4991C52.9474 54.9044 53.0434 55.2724 53.2354 55.6031C53.4274 55.9284 53.6887 56.1898 54.0194 56.3871C54.35 56.5791 54.718 56.6751 55.1234 56.6751ZM65.6546 58.5071C64.8386 58.5071 64.1186 58.3338 63.4946 57.9871C62.8706 57.6351 62.3826 57.1471 62.0306 56.5231C61.684 55.8991 61.5106 55.1791 61.5106 54.3631V50.6511C61.5106 49.8351 61.684 49.1151 62.0306 48.4911C62.3826 47.8671 62.8706 47.3818 63.4946 47.0351C64.1186 46.6831 64.8386 46.5071 65.6546 46.5071C66.4706 46.5071 67.188 46.6831 67.8066 47.0351C68.4306 47.3818 68.9186 47.8671 69.2706 48.4911C69.6226 49.1151 69.7986 49.8351 69.7986 50.6511V54.3631C69.7986 55.1791 69.6226 55.8991 69.2706 56.5231C68.9186 57.1471 68.4306 57.6351 67.8066 57.9871C67.188 58.3338 66.4706 58.5071 65.6546 58.5071ZM65.6546 56.6751C66.06 56.6751 66.428 56.5791 66.7586 56.3871C67.0893 56.1898 67.3506 55.9284 67.5426 55.6031C67.7346 55.2724 67.8306 54.9044 67.8306 54.4991V50.5071C67.8306 50.0964 67.7346 49.7284 67.5426 49.4031C67.3506 49.0724 67.0893 48.8111 66.7586 48.6191C66.428 48.4218 66.06 48.3231 65.6546 48.3231C65.2493 48.3231 64.8813 48.4218 64.5506 48.6191C64.22 48.8111 63.9586 49.0724 63.7666 49.4031C63.5746 49.7284 63.4786 50.0964 63.4786 50.5071V54.4991C63.4786 54.9044 63.5746 55.2724 63.7666 55.6031C63.9586 55.9284 64.22 56.1898 64.5506 56.3871C64.8813 56.5791 65.2493 56.6751 65.6546 56.6751Z" fill="black"/>
<path d="M80.435 49.0272V50.3532H78.238V52.5502H76.912V50.3532H74.715V49.0272H76.912V46.8302H78.238V49.0272H80.435ZM83.7085 45.1402H85.0085V54.2402H83.5135V46.7392L81.6805 47.2592L81.3165 45.9852L83.7085 45.1402ZM93.3034 51.2112V52.6022H92.2634V54.2402H90.7554V52.6022H86.2834V51.2112L89.4164 45.1402H91.0414L87.9084 51.2112H90.7554V48.8452H92.2634V51.2112H93.3034ZM97.1679 48.5332C96.7693 48.9319 96.2666 49.1312 95.6599 49.1312C95.0533 49.1312 94.5463 48.9319 94.1389 48.5332C93.7316 48.1259 93.5279 47.6319 93.5279 47.0512C93.5279 46.4706 93.7316 45.9809 94.1389 45.5822C94.5463 45.1749 95.0533 44.9712 95.6599 44.9712C96.2666 44.9712 96.7693 45.1706 97.1679 45.5692C97.5753 45.9679 97.7789 46.4619 97.7789 47.0512C97.7789 47.6319 97.5753 48.1259 97.1679 48.5332ZM95.6469 47.9872C95.9243 47.9872 96.1496 47.8962 96.3229 47.7142C96.4963 47.5322 96.5829 47.3112 96.5829 47.0512C96.5829 46.7826 96.4963 46.5572 96.3229 46.3752C96.1496 46.1932 95.9243 46.1022 95.6469 46.1022C95.3783 46.1022 95.1573 46.1932 94.9839 46.3752C94.8106 46.5572 94.7239 46.7826 94.7239 47.0512C94.7239 47.3112 94.8106 47.5322 94.9839 47.7142C95.1573 47.8962 95.3783 47.9872 95.6469 47.9872ZM94.2949 52.9012L100.288 46.2322L100.99 46.6352L94.9969 53.3172L94.2949 52.9012ZM99.8199 54.3962C99.2133 54.3962 98.7063 54.1969 98.2989 53.7982C97.8916 53.3909 97.6879 52.8969 97.6879 52.3162C97.6879 51.7356 97.8916 51.2459 98.2989 50.8472C98.7063 50.4399 99.2133 50.2362 99.8199 50.2362C100.418 50.2362 100.921 50.4399 101.328 50.8472C101.735 51.2459 101.939 51.7356 101.939 52.3162C101.939 52.8969 101.735 53.3909 101.328 53.7982C100.921 54.1969 100.418 54.3962 99.8199 54.3962ZM99.8069 53.2522C100.084 53.2522 100.31 53.1612 100.483 52.9792C100.656 52.7972 100.743 52.5762 100.743 52.3162C100.743 52.0476 100.656 51.8222 100.483 51.6402C100.31 51.4582 100.084 51.3672 99.8069 51.3672C99.5383 51.3672 99.3173 51.4582 99.1439 51.6402C98.9706 51.8222 98.8839 52.0476 98.8839 52.3162C98.8839 52.5762 98.9706 52.7972 99.1439 52.9792C99.3173 53.1612 99.5383 53.2522 99.8069 53.2522Z" fill="#00E1F0"/>
<path d="M16.4432 70.8949H17.2432V76.4949H16.3232V71.8789L15.1952 72.1989L14.9712 71.4149L16.4432 70.8949ZM21.9798 75.8069C21.5958 76.3349 21.0571 76.5989 20.3638 76.5989C19.6704 76.5989 19.1291 76.3349 18.7398 75.8069C18.3558 75.2789 18.1638 74.5749 18.1638 73.6949C18.1638 72.8149 18.3558 72.1109 18.7398 71.5829C19.1291 71.0549 19.6704 70.7909 20.3638 70.7909C21.0571 70.7909 21.5958 71.0549 21.9798 71.5829C22.3691 72.1109 22.5638 72.8149 22.5638 73.6949C22.5638 74.5749 22.3691 75.2789 21.9798 75.8069ZM20.3638 75.7029C20.7798 75.7029 21.0971 75.5295 21.3158 75.1829C21.5344 74.8362 21.6438 74.3402 21.6438 73.6949C21.6438 73.0495 21.5344 72.5535 21.3158 72.2069C21.0971 71.8602 20.7798 71.6869 20.3638 71.6869C19.9531 71.6869 19.6358 71.8602 19.4118 72.2069C19.1931 72.5535 19.0838 73.0495 19.0838 73.6949C19.0838 74.3402 19.1931 74.8362 19.4118 75.1829C19.6358 75.5295 19.9531 75.7029 20.3638 75.7029ZM26.9228 76.4949H25.8908L24.2508 74.6469V76.4949H23.3868V70.8949H24.2508V74.2629L25.8028 72.4949H26.8588L25.0988 74.4549L26.9228 76.4949Z" fill="#718EBF"/>
<path d="M22.7462 93.1248V93.9808H22.1062V94.9888H21.1782V93.9808H18.4262V93.1248L20.3542 89.3888H21.3542L19.4262 93.1248H21.1782V91.6688H22.1062V93.1248H22.7462ZM26.9228 94.9888H25.8908L24.2508 93.1408V94.9888H23.3868V89.3888H24.2508V92.7568L25.8028 90.9888H26.8588L25.0988 92.9488L26.9228 94.9888Z" fill="#718EBF"/>
<path d="M18.8964 113.483V112.763L20.8484 110.771C21.3231 110.296 21.5604 109.885 21.5604 109.539C21.5604 109.267 21.4778 109.056 21.3124 108.907C21.1524 108.752 20.9471 108.675 20.6964 108.675C20.2271 108.675 19.8804 108.907 19.6564 109.371L18.8804 108.915C19.0564 108.541 19.3044 108.259 19.6244 108.067C19.9444 107.875 20.2991 107.779 20.6884 107.779C21.1791 107.779 21.6004 107.933 21.9524 108.243C22.3044 108.552 22.4804 108.973 22.4804 109.507C22.4804 110.077 22.1631 110.685 21.5284 111.331L20.2644 112.595H22.5844V113.483H18.8964ZM26.9228 113.483H25.8908L24.2508 111.635V113.483H23.3868V107.883H24.2508V111.251L25.8028 109.483H26.8588L25.0988 111.443L26.9228 113.483Z" fill="#718EBF"/>
<path d="M26.0969 132.262C25.7129 132.79 25.1743 133.054 24.4809 133.054C23.7876 133.054 23.2463 132.79 22.8569 132.262C22.4729 131.734 22.2809 131.03 22.2809 130.15C22.2809 129.27 22.4729 128.566 22.8569 128.038C23.2463 127.51 23.7876 127.246 24.4809 127.246C25.1743 127.246 25.7129 127.51 26.0969 128.038C26.4863 128.566 26.6809 129.27 26.6809 130.15C26.6809 131.03 26.4863 131.734 26.0969 132.262ZM24.4809 132.158C24.8969 132.158 25.2143 131.985 25.4329 131.638C25.6516 131.291 25.7609 130.795 25.7609 130.15C25.7609 129.505 25.6516 129.009 25.4329 128.662C25.2143 128.315 24.8969 128.142 24.4809 128.142C24.0703 128.142 23.7529 128.315 23.5289 128.662C23.3103 129.009 23.2009 129.505 23.2009 130.15C23.2009 130.795 23.3103 131.291 23.5289 131.638C23.7529 131.985 24.0703 132.158 24.4809 132.158Z" fill="#718EBF"/>
<path d="M45.5998 144.734C45.0611 144.734 44.6024 144.612 44.2238 144.366C43.8504 144.121 43.5891 143.785 43.4398 143.358L44.2318 142.894C44.4558 143.524 44.9198 143.838 45.6238 143.838C45.9704 143.838 46.2291 143.772 46.3998 143.638C46.5758 143.5 46.6638 143.321 46.6638 143.102C46.6638 142.873 46.5704 142.7 46.3838 142.582C46.1971 142.46 45.8664 142.326 45.3918 142.182C45.1251 142.102 44.9091 142.028 44.7438 141.958C44.5784 141.889 44.4024 141.793 44.2158 141.67C44.0344 141.542 43.8984 141.385 43.8078 141.198C43.7171 141.012 43.6718 140.793 43.6718 140.542C43.6718 140.046 43.8478 139.654 44.1998 139.366C44.5518 139.073 44.9758 138.926 45.4718 138.926C45.9198 138.926 46.3118 139.036 46.6478 139.254C46.9838 139.473 47.2424 139.774 47.4238 140.158L46.6478 140.606C46.4131 140.084 46.0211 139.822 45.4718 139.822C45.2051 139.822 44.9918 139.886 44.8318 140.014C44.6718 140.137 44.5918 140.305 44.5918 140.518C44.5918 140.726 44.6718 140.892 44.8318 141.014C44.9971 141.132 45.2931 141.257 45.7198 141.39C45.9331 141.46 46.0878 141.513 46.1838 141.55C46.2851 141.582 46.4238 141.636 46.5998 141.71C46.7811 141.785 46.9171 141.86 47.0078 141.934C47.0984 142.009 47.1944 142.102 47.2958 142.214C47.4024 142.326 47.4771 142.454 47.5198 142.598C47.5624 142.742 47.5838 142.905 47.5838 143.086C47.5838 143.593 47.3998 143.996 47.0318 144.294C46.6691 144.588 46.1918 144.734 45.5998 144.734Z" fill="#718EBF"/>
<path d="M35 126.03C35 124.373 36.3431 123.03 38 123.03H52C53.6569 123.03 55 124.373 55 126.03V134.71H35V126.03Z" fill="#E8F2FF"/>
<path d="M72.1817 139.03V144.63H71.2617V140.638L69.5577 143.454H69.4457L67.7417 140.63V144.63H66.8217V139.03H67.8137L69.5017 141.83L71.1977 139.03H72.1817Z" fill="#718EBF"/>
<path d="M59 120.19C59 118.533 60.3431 117.19 62 117.19H76C77.6569 117.19 79 118.533 79 120.19V134.71H59V120.19Z" fill="#E8F2FF"/>
<path d="M95.5398 139.03V139.91H93.9638V144.63H93.0438V139.91H91.4598V139.03H95.5398Z" fill="#718EBF"/>
<path d="M83 96.8291C83 95.1722 84.3431 93.8291 86 93.8291H100C101.657 93.8291 103 95.1722 103 96.8291V134.71H83V96.8291Z" fill="#E8F2FF"/>
<path d="M114.748 144.63L113.164 139.03H114.132L115.308 143.406L116.58 139.03H117.428L118.692 143.406L119.868 139.03H120.836L119.252 144.63H118.188L117.004 140.542L115.812 144.63H114.748Z" fill="#718EBF"/>
<path d="M107 107.536C107 105.879 108.343 104.536 110 104.536H124C125.657 104.536 127 105.879 127 107.536V134.71H107V107.536Z" fill="#3734A9"/>
<path d="M143.54 139.03V139.91H141.964V144.63H141.044V139.91H139.46V139.03H143.54Z" fill="#718EBF"/>
<path d="M131 80.282C131 78.6251 132.343 77.282 134 77.282H148C149.657 77.282 151 78.6251 151 80.282V134.71H131V80.282Z" fill="#3734A9"/>
<path d="M168.27 139.91H165.91V141.478H168.19V142.358H165.91V144.63H164.99V139.03H168.27V139.91Z" fill="#718EBF"/>
<path d="M155 126.03C155 124.373 156.343 123.03 158 123.03H172C173.657 123.03 175 124.373 175 126.03V134.71H155V126.03Z" fill="#E8F2FF"/>
<path d="M189.6 144.734C189.061 144.734 188.602 144.612 188.224 144.366C187.85 144.121 187.589 143.785 187.44 143.358L188.232 142.894C188.456 143.524 188.92 143.838 189.624 143.838C189.97 143.838 190.229 143.772 190.4 143.638C190.576 143.5 190.664 143.321 190.664 143.102C190.664 142.873 190.57 142.7 190.384 142.582C190.197 142.46 189.866 142.326 189.392 142.182C189.125 142.102 188.909 142.028 188.744 141.958C188.578 141.889 188.402 141.793 188.216 141.67C188.034 141.542 187.898 141.385 187.808 141.198C187.717 141.012 187.672 140.793 187.672 140.542C187.672 140.046 187.848 139.654 188.2 139.366C188.552 139.073 188.976 138.926 189.472 138.926C189.92 138.926 190.312 139.036 190.648 139.254C190.984 139.473 191.242 139.774 191.424 140.158L190.648 140.606C190.413 140.084 190.021 139.822 189.472 139.822C189.205 139.822 188.992 139.886 188.832 140.014C188.672 140.137 188.592 140.305 188.592 140.518C188.592 140.726 188.672 140.892 188.832 141.014C188.997 141.132 189.293 141.257 189.72 141.39C189.933 141.46 190.088 141.513 190.184 141.55C190.285 141.582 190.424 141.636 190.6 141.71C190.781 141.785 190.917 141.86 191.008 141.934C191.098 142.009 191.194 142.102 191.296 142.214C191.402 142.326 191.477 142.454 191.52 142.598C191.562 142.742 191.584 142.905 191.584 143.086C191.584 143.593 191.4 143.996 191.032 144.294C190.669 144.588 190.192 144.734 189.6 144.734Z" fill="#718EBF"/>
<path d="M179 107.536C179 105.879 180.343 104.536 182 104.536H196C197.657 104.536 199 105.879 199 107.536V134.71H179V107.536Z" fill="#3734A9"/>
<path d="M214.6 144.734C214.061 144.734 213.602 144.612 213.224 144.366C212.85 144.121 212.589 143.785 212.44 143.358L213.232 142.894C213.456 143.524 213.92 143.838 214.624 143.838C214.97 143.838 215.229 143.772 215.4 143.638C215.576 143.5 215.664 143.321 215.664 143.102C215.664 142.873 215.57 142.7 215.384 142.582C215.197 142.46 214.866 142.326 214.392 142.182C214.125 142.102 213.909 142.028 213.744 141.958C213.578 141.889 213.402 141.793 213.216 141.67C213.034 141.542 212.898 141.385 212.808 141.198C212.717 141.012 212.672 140.793 212.672 140.542C212.672 140.046 212.848 139.654 213.2 139.366C213.552 139.073 213.976 138.926 214.472 138.926C214.92 138.926 215.312 139.036 215.648 139.254C215.984 139.473 216.242 139.774 216.424 140.158L215.648 140.606C215.413 140.084 215.021 139.822 214.472 139.822C214.205 139.822 213.992 139.886 213.832 140.014C213.672 140.137 213.592 140.305 213.592 140.518C213.592 140.726 213.672 140.892 213.832 141.014C213.997 141.132 214.293 141.257 214.72 141.39C214.933 141.46 215.088 141.513 215.184 141.55C215.285 141.582 215.424 141.636 215.6 141.71C215.781 141.785 215.917 141.86 216.008 141.934C216.098 142.009 216.194 142.102 216.296 142.214C216.402 142.326 216.477 142.454 216.52 142.598C216.562 142.742 216.584 142.905 216.584 143.086C216.584 143.593 216.4 143.996 216.032 144.294C215.669 144.588 215.192 144.734 214.6 144.734Z" fill="#718EBF"/>
<path d="M203 92.9355C203 91.2787 204.343 89.9355 206 89.9355H220C221.657 89.9355 223 91.2787 223 92.9355V134.71H203V92.9355Z" fill="#3734A9"/>
</svg>
