<svg width="196" height="110" viewBox="0 0 196 110" fill="none" xmlns="http://www.w3.org/2000/svg">
<rect y="0.115723" width="196" height="109.017" rx="10" fill="white"/>
<ellipse cx="22" cy="24.45" rx="8" ry="7.7869" fill="#00E1F0"/>
<path d="M38.98 31.6631V21.5831H42.872C42.97 21.5831 43.0797 21.5878 43.201 21.5971C43.327 21.6018 43.453 21.6158 43.579 21.6391C44.1063 21.7184 44.552 21.9028 44.916 22.1921C45.2847 22.4768 45.5623 22.8361 45.749 23.2701C45.9403 23.7041 46.036 24.1848 46.036 24.7121C46.036 25.4728 45.8353 26.1331 45.434 26.6931C45.0327 27.2531 44.4587 27.6054 43.712 27.7501L43.355 27.8341H40.009V31.6631H38.98ZM45.084 31.6631L43.096 27.5611L44.083 27.1831L46.267 31.6631H45.084ZM40.009 26.8541H42.844C42.928 26.8541 43.026 26.8494 43.138 26.8401C43.25 26.8308 43.3597 26.8144 43.467 26.7911C43.8123 26.7164 44.0947 26.5741 44.314 26.3641C44.538 26.1541 44.7037 25.9044 44.811 25.6151C44.923 25.3258 44.979 25.0248 44.979 24.7121C44.979 24.3994 44.923 24.0984 44.811 23.8091C44.7037 23.5151 44.538 23.2631 44.314 23.0531C44.0947 22.8431 43.8123 22.7008 43.467 22.6261C43.3597 22.6028 43.25 22.5888 43.138 22.5841C43.026 22.5748 42.928 22.5701 42.844 22.5701H40.009V26.8541ZM51.011 31.8731C50.2737 31.8731 49.6344 31.7098 49.093 31.3831C48.5564 31.0564 48.1387 30.5968 47.84 30.0041C47.5414 29.4114 47.392 28.7161 47.392 27.9181C47.392 27.0921 47.539 26.3781 47.833 25.7761C48.127 25.1741 48.54 24.7098 49.072 24.3831C49.6087 24.0564 50.241 23.8931 50.969 23.8931C51.7157 23.8931 52.3527 24.0658 52.88 24.4111C53.4074 24.7518 53.8064 25.2418 54.077 25.8811C54.3477 26.5204 54.4714 27.2834 54.448 28.1701H53.398V27.8061C53.3794 26.8261 53.167 26.0864 52.761 25.5871C52.3597 25.0878 51.7717 24.8381 50.997 24.8381C50.185 24.8381 49.562 25.1018 49.128 25.6291C48.6987 26.1564 48.484 26.9078 48.484 27.8831C48.484 28.8351 48.6987 29.5748 49.128 30.1021C49.562 30.6248 50.1757 30.8861 50.969 30.8861C51.5104 30.8861 51.9817 30.7624 52.383 30.5151C52.789 30.2631 53.1087 29.9014 53.342 29.4301L54.301 29.8011C54.0024 30.4591 53.5614 30.9701 52.978 31.3341C52.3994 31.6934 51.7437 31.8731 51.011 31.8731ZM48.12 28.1701V27.3091H53.895V28.1701H48.12ZM57.772 31.6631L55.028 24.1031H56.071L58.304 30.3191L60.523 24.1031H61.58L58.836 31.6631H57.772ZM65.763 31.8731C65.0257 31.8731 64.3863 31.7098 63.845 31.3831C63.3083 31.0564 62.8907 30.5968 62.592 30.0041C62.2933 29.4114 62.144 28.7161 62.144 27.9181C62.144 27.0921 62.291 26.3781 62.585 25.7761C62.879 25.1741 63.292 24.7098 63.824 24.3831C64.3607 24.0564 64.993 23.8931 65.721 23.8931C66.4677 23.8931 67.1047 24.0658 67.632 24.4111C68.1593 24.7518 68.5583 25.2418 68.829 25.8811C69.0997 26.5204 69.2233 27.2834 69.2 28.1701H68.15V27.8061C68.1313 26.8261 67.919 26.0864 67.513 25.5871C67.1117 25.0878 66.5237 24.8381 65.749 24.8381C64.937 24.8381 64.314 25.1018 63.88 25.6291C63.4507 26.1564 63.236 26.9078 63.236 27.8831C63.236 28.8351 63.4507 29.5748 63.88 30.1021C64.314 30.6248 64.9277 30.8861 65.721 30.8861C66.2623 30.8861 66.7337 30.7624 67.135 30.5151C67.541 30.2631 67.8607 29.9014 68.094 29.4301L69.053 29.8011C68.7543 30.4591 68.3133 30.9701 67.73 31.3341C67.1513 31.6934 66.4957 31.8731 65.763 31.8731ZM62.872 28.1701V27.3091H68.647V28.1701H62.872ZM76.0084 31.6631V27.8061C76.0084 27.3861 75.9687 27.0011 75.8894 26.6511C75.81 26.2964 75.6817 25.9884 75.5044 25.7271C75.3317 25.4611 75.1054 25.2558 74.8254 25.1111C74.55 24.9664 74.214 24.8941 73.8174 24.8941C73.4534 24.8941 73.1314 24.9571 72.8514 25.0831C72.576 25.2091 72.3427 25.3911 72.1514 25.6291C71.9647 25.8624 71.8224 26.1471 71.7244 26.4831C71.6264 26.8191 71.5774 27.2018 71.5774 27.6311L70.8494 27.4701C70.8494 26.6954 70.9847 26.0444 71.2554 25.5171C71.526 24.9898 71.8994 24.5908 72.3754 24.3201C72.8514 24.0494 73.3974 23.9141 74.0134 23.9141C74.466 23.9141 74.8604 23.9841 75.1964 24.1241C75.537 24.2641 75.824 24.4531 76.0574 24.6911C76.2954 24.9291 76.4867 25.2021 76.6314 25.5101C76.776 25.8134 76.881 26.1378 76.9464 26.4831C77.0117 26.8238 77.0444 27.1644 77.0444 27.5051V31.6631H76.0084ZM70.5414 31.6631V24.1031H71.4724V25.9651H71.5774V31.6631H70.5414ZM81.7519 31.8521C81.2992 31.8521 80.9025 31.7821 80.5619 31.6421C80.2259 31.5021 79.9389 31.3131 79.7009 31.0751C79.4675 30.8371 79.2785 30.5664 79.1339 30.2631C78.9892 29.9551 78.8842 29.6308 78.8189 29.2901C78.7535 28.9448 78.7209 28.6018 78.7209 28.2611V24.1031H79.7569V27.9601C79.7569 28.3754 79.7965 28.7604 79.8759 29.1151C79.9552 29.4698 80.0812 29.7801 80.2539 30.0461C80.4312 30.3074 80.6575 30.5104 80.9329 30.6551C81.2129 30.7998 81.5512 30.8721 81.9479 30.8721C82.3119 30.8721 82.6315 30.8091 82.9069 30.6831C83.1869 30.5571 83.4202 30.3774 83.6069 30.1441C83.7982 29.9061 83.9429 29.6191 84.0409 29.2831C84.1389 28.9424 84.1879 28.5598 84.1879 28.1351L84.9159 28.2961C84.9159 29.0708 84.7805 29.7218 84.5099 30.2491C84.2392 30.7764 83.8659 31.1754 83.3899 31.4461C82.9139 31.7168 82.3679 31.8521 81.7519 31.8521ZM84.2929 31.6631V29.8011H84.1879V24.1031H85.2169V31.6631H84.2929ZM90.3724 31.8731C89.635 31.8731 88.9957 31.7098 88.4544 31.3831C87.9177 31.0564 87.5 30.5968 87.2014 30.0041C86.9027 29.4114 86.7534 28.7161 86.7534 27.9181C86.7534 27.0921 86.9004 26.3781 87.1944 25.7761C87.4884 25.1741 87.9014 24.7098 88.4334 24.3831C88.97 24.0564 89.6024 23.8931 90.3304 23.8931C91.077 23.8931 91.714 24.0658 92.2414 24.4111C92.7687 24.7518 93.1677 25.2418 93.4384 25.8811C93.709 26.5204 93.8327 27.2834 93.8094 28.1701H92.7594V27.8061C92.7407 26.8261 92.5284 26.0864 92.1224 25.5871C91.721 25.0878 91.133 24.8381 90.3584 24.8381C89.5464 24.8381 88.9234 25.1018 88.4894 25.6291C88.06 26.1564 87.8454 26.9078 87.8454 27.8831C87.8454 28.8351 88.06 29.5748 88.4894 30.1021C88.9234 30.6248 89.537 30.8861 90.3304 30.8861C90.8717 30.8861 91.343 30.7624 91.7444 30.5151C92.1504 30.2631 92.47 29.9014 92.7034 29.4301L93.6624 29.8011C93.3637 30.4591 92.9227 30.9701 92.3394 31.3341C91.7607 31.6934 91.105 31.8731 90.3724 31.8731ZM87.4814 28.1701V27.3091H93.2564V28.1701H87.4814Z" fill="black"/>
<path d="M18.136 69.3225V67.4265H20.064V69.3225H18.136ZM18.136 56.5225V54.6265H20.064V56.5225H18.136ZM19.144 67.9705C18.3333 67.9705 17.608 67.8211 16.968 67.5225C16.328 67.2238 15.8027 66.8025 15.392 66.2585C14.9867 65.7145 14.728 65.0691 14.616 64.3225L16.52 64.0185C16.6693 64.6745 16.9893 65.1971 17.48 65.5865C17.976 65.9705 18.568 66.1625 19.256 66.1625C19.9173 66.1625 20.4613 66.0078 20.888 65.6985C21.3147 65.3838 21.528 64.9865 21.528 64.5065C21.528 64.1705 21.4267 63.8985 21.224 63.6905C21.0213 63.4771 20.696 63.3011 20.248 63.1625L17.472 62.2985C15.856 61.7971 15.048 60.8158 15.048 59.3545C15.048 58.6718 15.2107 58.0771 15.536 57.5705C15.8667 57.0585 16.3307 56.6665 16.928 56.3945C17.5253 56.1171 18.2293 55.9811 19.04 55.9865C19.792 55.9918 20.4613 56.1278 21.048 56.3945C21.64 56.6611 22.1307 57.0451 22.52 57.5465C22.9147 58.0478 23.1947 58.6505 23.36 59.3545L21.384 59.7145C21.3093 59.3358 21.1627 59.0025 20.944 58.7145C20.7253 58.4265 20.4507 58.2025 20.12 58.0425C19.7893 57.8825 19.4213 57.7971 19.016 57.7865C18.6267 57.7811 18.2773 57.8425 17.968 57.9705C17.6587 58.0931 17.4133 58.2691 17.232 58.4985C17.0507 58.7225 16.96 58.9758 16.96 59.2585C16.96 59.5731 17.0853 59.8425 17.336 60.0665C17.592 60.2905 17.9947 60.4825 18.544 60.6425L20.616 61.2425C21.6133 61.5305 22.3307 61.9225 22.768 62.4185C23.2107 62.9091 23.432 63.5625 23.432 64.3785C23.432 65.0931 23.2533 65.7198 22.896 66.2585C22.5387 66.7971 22.0373 67.2185 21.392 67.5225C20.7467 67.8211 19.9973 67.9705 19.144 67.9705ZM28.4629 67.9465C27.8869 67.9465 27.3429 67.8345 26.8309 67.6105C26.3189 67.3865 25.8735 67.0691 25.4949 66.6585C25.1215 66.2478 24.8522 65.7625 24.6869 65.2025L26.5509 64.6985C26.6842 65.1571 26.9269 65.5118 27.2789 65.7625C27.6362 66.0078 28.0282 66.1278 28.4549 66.1225C28.8335 66.1225 29.1722 66.0345 29.4709 65.8585C29.7695 65.6825 30.0042 65.4451 30.1749 65.1465C30.3455 64.8425 30.4309 64.5038 30.4309 64.1305C30.4309 63.5598 30.2469 63.0825 29.8789 62.6985C29.5109 62.3145 29.0362 62.1225 28.4549 62.1225C28.2789 62.1225 28.1055 62.1465 27.9349 62.1945C27.7695 62.2425 27.6095 62.3091 27.4549 62.3945L26.5749 60.8745L30.4469 57.5625L30.6149 58.0265H25.1349V56.2105H32.1989V58.0345L29.0869 61.0265L29.0709 60.4585C29.7695 60.5065 30.3642 60.7011 30.8549 61.0425C31.3509 61.3838 31.7295 61.8238 31.9909 62.3625C32.2575 62.9011 32.3909 63.4905 32.3909 64.1305C32.3909 64.8558 32.2122 65.5065 31.8549 66.0825C31.5029 66.6585 31.0282 67.1145 30.4309 67.4505C29.8389 67.7811 29.1829 67.9465 28.4629 67.9465ZM38.4478 67.9705C37.6958 67.9705 37.0184 67.7945 36.4158 67.4425C35.8184 67.0851 35.3438 66.5918 34.9918 65.9625C34.6398 65.3331 34.4638 64.6105 34.4638 63.7945V60.2905C34.4638 59.4158 34.6371 58.6558 34.9838 58.0105C35.3358 57.3651 35.8264 56.8665 36.4558 56.5145C37.0904 56.1625 37.8264 55.9865 38.6638 55.9865C39.2451 55.9865 39.7971 56.0851 40.3198 56.2825C40.8424 56.4745 41.3064 56.7838 41.7118 57.2105L40.3198 58.5625C40.1171 58.3225 39.8691 58.1331 39.5758 57.9945C39.2878 57.8558 38.9838 57.7865 38.6638 57.7865C38.2158 57.7865 37.8238 57.8931 37.4878 58.1065C37.1518 58.3145 36.8904 58.5891 36.7038 58.9305C36.5224 59.2718 36.4318 59.6371 36.4318 60.0265V61.9385L36.0798 61.5545C36.4104 61.1705 36.8078 60.8718 37.2718 60.6585C37.7358 60.4398 38.2211 60.3305 38.7278 60.3305C39.4531 60.3305 40.0931 60.4958 40.6478 60.8265C41.2024 61.1518 41.6398 61.5998 41.9598 62.1705C42.2798 62.7358 42.4398 63.3811 42.4398 64.1065C42.4398 64.8265 42.2558 65.4798 41.8878 66.0665C41.5251 66.6478 41.0424 67.1118 40.4398 67.4585C39.8371 67.7998 39.1731 67.9705 38.4478 67.9705ZM38.4478 66.1225C38.8211 66.1225 39.1624 66.0345 39.4718 65.8585C39.7811 65.6771 40.0264 65.4345 40.2078 65.1305C40.3944 64.8211 40.4878 64.4798 40.4878 64.1065C40.4878 63.7331 40.3971 63.3918 40.2158 63.0825C40.0344 62.7731 39.7891 62.5278 39.4798 62.3465C39.1758 62.1598 38.8371 62.0665 38.4638 62.0665C38.0904 62.0665 37.7491 62.1598 37.4398 62.3465C37.1304 62.5278 36.8851 62.7731 36.7038 63.0825C36.5224 63.3918 36.4318 63.7331 36.4318 64.1065C36.4318 64.4691 36.5198 64.8051 36.6958 65.1145C36.8771 65.4185 37.1198 65.6638 37.4238 65.8505C37.7331 66.0318 38.0744 66.1225 38.4478 66.1225ZM44.2413 69.7705L44.3533 68.9385C44.5986 68.9598 44.7933 68.9171 44.9373 68.8105C45.0813 68.7091 45.1773 68.5625 45.2253 68.3705C45.2786 68.1838 45.2919 67.9705 45.2653 67.7305H44.2413V65.6745H46.2173V67.8105C46.2173 68.5091 46.0519 69.0371 45.7213 69.3945C45.3906 69.7518 44.8973 69.8771 44.2413 69.7705ZM53.2446 67.9705C52.4926 67.9705 51.8153 67.7945 51.2126 67.4425C50.6153 67.0851 50.1406 66.5918 49.7886 65.9625C49.4366 65.3331 49.2606 64.6105 49.2606 63.7945V60.2905C49.2606 59.4158 49.434 58.6558 49.7806 58.0105C50.1326 57.3651 50.6233 56.8665 51.2526 56.5145C51.8873 56.1625 52.6233 55.9865 53.4606 55.9865C54.042 55.9865 54.594 56.0851 55.1166 56.2825C55.6393 56.4745 56.1033 56.7838 56.5086 57.2105L55.1166 58.5625C54.914 58.3225 54.666 58.1331 54.3726 57.9945C54.0846 57.8558 53.7806 57.7865 53.4606 57.7865C53.0126 57.7865 52.6206 57.8931 52.2846 58.1065C51.9486 58.3145 51.6873 58.5891 51.5006 58.9305C51.3193 59.2718 51.2286 59.6371 51.2286 60.0265V61.9385L50.8766 61.5545C51.2073 61.1705 51.6046 60.8718 52.0686 60.6585C52.5326 60.4398 53.018 60.3305 53.5246 60.3305C54.25 60.3305 54.89 60.4958 55.4446 60.8265C55.9993 61.1518 56.4366 61.5998 56.7566 62.1705C57.0766 62.7358 57.2366 63.3811 57.2366 64.1065C57.2366 64.8265 57.0526 65.4798 56.6846 66.0665C56.322 66.6478 55.8393 67.1118 55.2366 67.4585C54.634 67.7998 53.97 67.9705 53.2446 67.9705ZM53.2446 66.1225C53.618 66.1225 53.9593 66.0345 54.2686 65.8585C54.578 65.6771 54.8233 65.4345 55.0046 65.1305C55.1913 64.8211 55.2846 64.4798 55.2846 64.1065C55.2846 63.7331 55.194 63.3918 55.0126 63.0825C54.8313 62.7731 54.586 62.5278 54.2766 62.3465C53.9726 62.1598 53.634 62.0665 53.2606 62.0665C52.8873 62.0665 52.546 62.1598 52.2366 62.3465C51.9273 62.5278 51.682 62.7731 51.5006 63.0825C51.3193 63.3918 51.2286 63.7331 51.2286 64.1065C51.2286 64.4691 51.3166 64.8051 51.4926 65.1145C51.674 65.4185 51.9166 65.6638 52.2206 65.8505C52.53 66.0318 52.8713 66.1225 53.2446 66.1225ZM62.9661 67.9705C62.2035 67.9705 61.5261 67.8158 60.9341 67.5065C60.3421 67.1971 59.8781 66.7678 59.5421 66.2185C59.2061 65.6691 59.0381 65.0398 59.0381 64.3305C59.0381 63.6958 59.1848 63.1065 59.4781 62.5625C59.7715 62.0185 60.2008 61.5838 60.7661 61.2585L60.7261 61.8745C60.2835 61.5385 59.9395 61.1518 59.6941 60.7145C59.4541 60.2718 59.3341 59.7758 59.3341 59.2265C59.3341 58.5651 59.4888 57.9918 59.7981 57.5065C60.1128 57.0211 60.5421 56.6451 61.0861 56.3785C61.6301 56.1065 62.2568 55.9705 62.9661 55.9705C63.6755 55.9705 64.3021 56.1065 64.8461 56.3785C65.3955 56.6451 65.8248 57.0211 66.1341 57.5065C66.4488 57.9918 66.6061 58.5651 66.6061 59.2265C66.6061 59.7758 66.4888 60.2691 66.2541 60.7065C66.0248 61.1438 65.6755 61.5385 65.2061 61.8905L65.1981 61.2665C65.7528 61.5811 66.1768 62.0131 66.4701 62.5625C66.7688 63.1065 66.9181 63.6958 66.9181 64.3305C66.9181 65.0398 66.7475 65.6691 66.4061 66.2185C66.0701 66.7678 65.6035 67.1971 65.0061 67.5065C64.4141 67.8158 63.7341 67.9705 62.9661 67.9705ZM62.9661 66.1545C63.5315 66.1545 63.9901 65.9998 64.3421 65.6905C64.6995 65.3811 64.8781 64.9278 64.8781 64.3305C64.8781 63.7331 64.7021 63.2798 64.3501 62.9705C63.9981 62.6558 63.5368 62.4985 62.9661 62.4985C62.4008 62.4985 61.9448 62.6558 61.5981 62.9705C61.2515 63.2798 61.0781 63.7331 61.0781 64.3305C61.0781 64.9278 61.2515 65.3811 61.5981 65.6905C61.9448 65.9998 62.4008 66.1545 62.9661 66.1545ZM62.9661 60.6665C63.4408 60.6665 63.8248 60.5491 64.1181 60.3145C64.4168 60.0745 64.5661 59.7118 64.5661 59.2265C64.5661 58.7411 64.4168 58.3811 64.1181 58.1465C63.8248 57.9065 63.4408 57.7865 62.9661 57.7865C62.4968 57.7865 62.1128 57.9065 61.8141 58.1465C61.5208 58.3811 61.3741 58.7411 61.3741 59.2265C61.3741 59.7118 61.5208 60.0745 61.8141 60.3145C62.1128 60.5491 62.4968 60.6665 62.9661 60.6665ZM73.139 67.9705C72.323 67.9705 71.603 67.7971 70.979 67.4505C70.355 67.0985 69.867 66.6105 69.515 65.9865C69.1683 65.3625 68.995 64.6425 68.995 63.8265V60.1145C68.995 59.2985 69.1683 58.5785 69.515 57.9545C69.867 57.3305 70.355 56.8451 70.979 56.4985C71.603 56.1465 72.323 55.9705 73.139 55.9705C73.955 55.9705 74.6723 56.1465 75.291 56.4985C75.915 56.8451 76.403 57.3305 76.755 57.9545C77.107 58.5785 77.283 59.2985 77.283 60.1145V63.8265C77.283 64.6425 77.107 65.3625 76.755 65.9865C76.403 66.6105 75.915 67.0985 75.291 67.4505C74.6723 67.7971 73.955 67.9705 73.139 67.9705ZM73.139 66.1385C73.5443 66.1385 73.9123 66.0425 74.243 65.8505C74.5737 65.6531 74.835 65.3918 75.027 65.0665C75.219 64.7358 75.315 64.3678 75.315 63.9625V59.9705C75.315 59.5598 75.219 59.1918 75.027 58.8665C74.835 58.5358 74.5737 58.2745 74.243 58.0825C73.9123 57.8851 73.5443 57.7865 73.139 57.7865C72.7337 57.7865 72.3657 57.8851 72.035 58.0825C71.7043 58.2745 71.443 58.5358 71.251 58.8665C71.059 59.1918 70.963 59.5598 70.963 59.9705V63.9625C70.963 64.3678 71.059 64.7358 71.251 65.0665C71.443 65.3918 71.7043 65.6531 72.035 65.8505C72.3657 66.0425 72.7337 66.1385 73.139 66.1385Z" fill="black"/>
<path d="M86.435 58.4906V59.8166H84.238V62.0136H82.912V59.8166H80.715V58.4906H82.912V56.2936H84.238V58.4906H86.435ZM89.7085 54.6036H91.0085V63.7036H89.5135V56.2026L87.6805 56.7226L87.3165 55.4486L89.7085 54.6036ZM92.3874 63.7036V62.5336L95.5594 59.2966C96.3307 58.5253 96.7164 57.8579 96.7164 57.2946C96.7164 56.8526 96.582 56.5103 96.3134 56.2676C96.0534 56.0163 95.7197 55.8906 95.3124 55.8906C94.5497 55.8906 93.9864 56.2676 93.6224 57.0216L92.3614 56.2806C92.6474 55.6739 93.0504 55.2146 93.5704 54.9026C94.0904 54.5906 94.6667 54.4346 95.2994 54.4346C96.0967 54.4346 96.7814 54.6859 97.3534 55.1886C97.9254 55.6913 98.2114 56.3759 98.2114 57.2426C98.2114 58.1699 97.6957 59.1579 96.6644 60.2066L94.6104 62.2606H98.3804V63.7036H92.3874ZM103.028 57.9966C102.63 58.3953 102.127 58.5946 101.52 58.5946C100.914 58.5946 100.407 58.3953 99.9993 57.9966C99.5919 57.5893 99.3883 57.0953 99.3883 56.5146C99.3883 55.9339 99.5919 55.4443 99.9993 55.0456C100.407 54.6383 100.914 54.4346 101.52 54.4346C102.127 54.4346 102.63 54.6339 103.028 55.0326C103.436 55.4313 103.639 55.9253 103.639 56.5146C103.639 57.0953 103.436 57.5893 103.028 57.9966ZM101.507 57.4506C101.785 57.4506 102.01 57.3596 102.183 57.1776C102.357 56.9956 102.443 56.7746 102.443 56.5146C102.443 56.2459 102.357 56.0206 102.183 55.8386C102.01 55.6566 101.785 55.5656 101.507 55.5656C101.239 55.5656 101.018 55.6566 100.844 55.8386C100.671 56.0206 100.584 56.2459 100.584 56.5146C100.584 56.7746 100.671 56.9956 100.844 57.1776C101.018 57.3596 101.239 57.4506 101.507 57.4506ZM100.155 62.3646L106.148 55.6956L106.85 56.0986L100.857 62.7806L100.155 62.3646ZM105.68 63.8596C105.074 63.8596 104.567 63.6603 104.159 63.2616C103.752 62.8543 103.548 62.3603 103.548 61.7796C103.548 61.1989 103.752 60.7093 104.159 60.3106C104.567 59.9033 105.074 59.6996 105.68 59.6996C106.278 59.6996 106.781 59.9033 107.188 60.3106C107.596 60.7093 107.799 61.1989 107.799 61.7796C107.799 62.3603 107.596 62.8543 107.188 63.2616C106.781 63.6603 106.278 63.8596 105.68 63.8596ZM105.667 62.7156C105.945 62.7156 106.17 62.6246 106.343 62.4426C106.517 62.2606 106.603 62.0396 106.603 61.7796C106.603 61.5109 106.517 61.2856 106.343 61.1036C106.17 60.9216 105.945 60.8306 105.667 60.8306C105.399 60.8306 105.178 60.9216 105.004 61.1036C104.831 61.2856 104.744 61.5109 104.744 61.7796C104.744 62.0396 104.831 62.2606 105.004 62.4426C105.178 62.6246 105.399 62.7156 105.667 62.7156Z" fill="#00E1F0"/>
<path d="M17.615 84.2682C16.8983 84.2682 16.2933 84.1098 15.8 83.7932C15.3067 83.4732 14.9333 83.0315 14.68 82.4682C14.4267 81.9048 14.3 81.2548 14.3 80.5182C14.3 79.7815 14.4267 79.1315 14.68 78.5682C14.9333 78.0048 15.3067 77.5648 15.8 77.2482C16.2933 76.9282 16.8983 76.7682 17.615 76.7682C18.4517 76.7682 19.135 76.9832 19.665 77.4132C20.195 77.8398 20.5583 78.4132 20.755 79.1332L20.005 79.3282C19.8517 78.7582 19.5767 78.3065 19.18 77.9732C18.7833 77.6398 18.2617 77.4732 17.615 77.4732C17.0517 77.4732 16.5833 77.6015 16.21 77.8582C15.8367 78.1148 15.555 78.4732 15.365 78.9332C15.1783 79.3898 15.0817 79.9182 15.075 80.5182C15.0717 81.1182 15.1633 81.6465 15.35 82.1032C15.54 82.5598 15.8233 82.9182 16.2 83.1782C16.58 83.4348 17.0517 83.5632 17.615 83.5632C18.2617 83.5632 18.7833 83.3965 19.18 83.0632C19.5767 82.7265 19.8517 82.2748 20.005 81.7082L20.755 81.9032C20.5583 82.6232 20.195 83.1982 19.665 83.6282C19.135 84.0548 18.4517 84.2682 17.615 84.2682ZM24.1132 84.2682C23.5765 84.2682 23.1182 84.1465 22.7382 83.9032C22.3582 83.6598 22.0665 83.3232 21.8632 82.8932C21.6599 82.4632 21.5582 81.9698 21.5582 81.4132C21.5582 80.8465 21.6615 80.3498 21.8682 79.9232C22.0749 79.4965 22.3682 79.1648 22.7482 78.9282C23.1315 78.6882 23.5865 78.5682 24.1132 78.5682C24.6532 78.5682 25.1132 78.6898 25.4932 78.9332C25.8765 79.1732 26.1682 79.5082 26.3682 79.9382C26.5715 80.3648 26.6732 80.8565 26.6732 81.4132C26.6732 81.9798 26.5715 82.4782 26.3682 82.9082C26.1649 83.3348 25.8715 83.6682 25.4882 83.9082C25.1049 84.1482 24.6465 84.2682 24.1132 84.2682ZM24.1132 83.5632C24.7132 83.5632 25.1599 83.3648 25.4532 82.9682C25.7465 82.5682 25.8932 82.0498 25.8932 81.4132C25.8932 80.7598 25.7449 80.2398 25.4482 79.8532C25.1549 79.4665 24.7099 79.2732 24.1132 79.2732C23.7099 79.2732 23.3765 79.3648 23.1132 79.5482C22.8532 79.7282 22.6582 79.9798 22.5282 80.3032C22.4015 80.6232 22.3382 80.9932 22.3382 81.4132C22.3382 82.0632 22.4882 82.5848 22.7882 82.9782C23.0882 83.3682 23.5299 83.5632 24.1132 83.5632ZM34.2162 84.1182L34.2212 80.5732C34.2212 80.1565 34.1045 79.8298 33.8712 79.5932C33.6412 79.3532 33.3478 79.2332 32.9912 79.2332C32.7878 79.2332 32.5895 79.2798 32.3962 79.3732C32.2028 79.4665 32.0428 79.6165 31.9162 79.8232C31.7928 80.0298 31.7312 80.2998 31.7312 80.6332L31.2962 80.5082C31.2862 80.1215 31.3612 79.7832 31.5212 79.4932C31.6845 79.2032 31.9078 78.9782 32.1912 78.8182C32.4778 78.6548 32.8012 78.5732 33.1612 78.5732C33.7045 78.5732 34.1395 78.7415 34.4662 79.0782C34.7928 79.4115 34.9562 79.8632 34.9562 80.4332L34.9512 84.1182H34.2162ZM27.7712 84.1182V78.7182H28.4312V80.0482H28.5112V84.1182H27.7712ZM31.0012 84.1182L31.0062 80.6232C31.0062 80.1932 30.8912 79.8548 30.6612 79.6082C30.4345 79.3582 30.1345 79.2332 29.7612 79.2332C29.3878 79.2332 29.0862 79.3615 28.8562 79.6182C28.6262 79.8715 28.5112 80.2098 28.5112 80.6332L28.0712 80.3932C28.0712 80.0465 28.1528 79.7365 28.3162 79.4632C28.4795 79.1865 28.7028 78.9698 28.9862 78.8132C29.2695 78.6532 29.5912 78.5732 29.9512 78.5732C30.2945 78.5732 30.5995 78.6465 30.8662 78.7932C31.1362 78.9398 31.3478 79.1532 31.5012 79.4332C31.6545 79.7132 31.7312 80.0532 31.7312 80.4532L31.7262 84.1182H31.0012ZM38.6777 84.2682C38.1811 84.2682 37.7611 84.1432 37.4177 83.8932C37.0744 83.6398 36.8144 83.2982 36.6377 82.8682C36.4611 82.4348 36.3727 81.9498 36.3727 81.4132C36.3727 80.8665 36.4611 80.3798 36.6377 79.9532C36.8177 79.5232 37.0811 79.1848 37.4277 78.9382C37.7744 78.6915 38.2011 78.5682 38.7077 78.5682C39.2011 78.5682 39.6244 78.6932 39.9777 78.9432C40.3311 79.1932 40.6011 79.5332 40.7877 79.9632C40.9777 80.3932 41.0727 80.8765 41.0727 81.4132C41.0727 81.9532 40.9777 82.4382 40.7877 82.8682C40.5977 83.2982 40.3244 83.6398 39.9677 83.8932C39.6111 84.1432 39.1811 84.2682 38.6777 84.2682ZM36.2477 86.5182V78.7182H36.9077V82.7832H36.9877V86.5182H36.2477ZM38.6027 83.5832C38.9794 83.5832 39.2927 83.4882 39.5427 83.2982C39.7927 83.1082 39.9794 82.8498 40.1027 82.5232C40.2294 82.1932 40.2927 81.8232 40.2927 81.4132C40.2927 81.0065 40.2311 80.6398 40.1077 80.3132C39.9844 79.9865 39.7961 79.7282 39.5427 79.5382C39.2927 79.3482 38.9744 79.2532 38.5877 79.2532C38.2111 79.2532 37.8977 79.3448 37.6477 79.5282C37.4011 79.7115 37.2161 79.9665 37.0927 80.2932C36.9694 80.6165 36.9077 80.9898 36.9077 81.4132C36.9077 81.8298 36.9694 82.2032 37.0927 82.5332C37.2161 82.8598 37.4027 83.1165 37.6527 83.3032C37.9027 83.4898 38.2194 83.5832 38.6027 83.5832ZM43.7157 84.2682C43.309 84.2682 42.9674 84.1948 42.6907 84.0482C42.4174 83.9015 42.2124 83.7065 42.0757 83.4632C41.939 83.2198 41.8707 82.9548 41.8707 82.6682C41.8707 82.3748 41.929 82.1248 42.0457 81.9182C42.1657 81.7082 42.3274 81.5365 42.5307 81.4032C42.7374 81.2698 42.9757 81.1682 43.2457 81.0982C43.519 81.0315 43.8207 80.9732 44.1507 80.9232C44.484 80.8698 44.809 80.8248 45.1257 80.7882C45.4457 80.7482 45.7257 80.7098 45.9657 80.6732L45.7057 80.8332C45.7157 80.2998 45.6124 79.9048 45.3957 79.6482C45.179 79.3915 44.8024 79.2632 44.2657 79.2632C43.8957 79.2632 43.5824 79.3465 43.3257 79.5132C43.0724 79.6798 42.894 79.9432 42.7907 80.3032L42.0757 80.0932C42.199 79.6098 42.4474 79.2348 42.8207 78.9682C43.194 78.7015 43.679 78.5682 44.2757 78.5682C44.769 78.5682 45.1874 78.6615 45.5307 78.8482C45.8774 79.0315 46.1224 79.2982 46.2657 79.6482C46.3324 79.8048 46.3757 79.9798 46.3957 80.1732C46.4157 80.3665 46.4257 80.5632 46.4257 80.7632V84.1182H45.7707V82.7632L45.9607 82.8432C45.7774 83.3065 45.4924 83.6598 45.1057 83.9032C44.719 84.1465 44.2557 84.2682 43.7157 84.2682ZM43.8007 83.6332C44.144 83.6332 44.444 83.5715 44.7007 83.4482C44.9574 83.3248 45.164 83.1565 45.3207 82.9432C45.4774 82.7265 45.579 82.4832 45.6257 82.2132C45.6657 82.0398 45.6874 81.8498 45.6907 81.6432C45.694 81.4332 45.6957 81.2765 45.6957 81.1732L45.9757 81.3182C45.7257 81.3515 45.454 81.3848 45.1607 81.4182C44.8707 81.4515 44.584 81.4898 44.3007 81.5332C44.0207 81.5765 43.7674 81.6282 43.5407 81.6882C43.3874 81.7315 43.239 81.7932 43.0957 81.8732C42.9524 81.9498 42.834 82.0532 42.7407 82.1832C42.6507 82.3132 42.6057 82.4748 42.6057 82.6682C42.6057 82.8248 42.644 82.9765 42.7207 83.1232C42.8007 83.2698 42.9274 83.3915 43.1007 83.4882C43.2774 83.5848 43.5107 83.6332 43.8007 83.6332ZM47.7273 84.1182V78.7182H48.3873V80.0182L48.2573 79.8482C48.3173 79.6882 48.3957 79.5415 48.4923 79.4082C48.589 79.2715 48.694 79.1598 48.8073 79.0732C48.9473 78.9498 49.1107 78.8565 49.2973 78.7932C49.484 78.7265 49.6723 78.6882 49.8623 78.6782C50.0523 78.6648 50.2257 78.6782 50.3823 78.7182V79.4082C50.1857 79.3582 49.9707 79.3465 49.7373 79.3732C49.504 79.3998 49.289 79.4932 49.0923 79.6532C48.9123 79.7932 48.7773 79.9615 48.6873 80.1582C48.5973 80.3515 48.5373 80.5582 48.5073 80.7782C48.4773 80.9948 48.4623 81.2098 48.4623 81.4232V84.1182H47.7273ZM53.5182 84.2682C52.9915 84.2682 52.5349 84.1515 52.1482 83.9182C51.7649 83.6848 51.4665 83.3565 51.2532 82.9332C51.0399 82.5098 50.9332 82.0132 50.9332 81.4432C50.9332 80.8532 51.0382 80.3432 51.2482 79.9132C51.4582 79.4832 51.7532 79.1515 52.1332 78.9182C52.5165 78.6848 52.9682 78.5682 53.4882 78.5682C54.0215 78.5682 54.4765 78.6915 54.8532 78.9382C55.2299 79.1815 55.5149 79.5315 55.7082 79.9882C55.9015 80.4448 55.9899 80.9898 55.9732 81.6232H55.2232V81.3632C55.2099 80.6632 55.0582 80.1348 54.7682 79.7782C54.4815 79.4215 54.0615 79.2432 53.5082 79.2432C52.9282 79.2432 52.4832 79.4315 52.1732 79.8082C51.8665 80.1848 51.7132 80.7215 51.7132 81.4182C51.7132 82.0982 51.8665 82.6265 52.1732 83.0032C52.4832 83.3765 52.9215 83.5632 53.4882 83.5632C53.8749 83.5632 54.2115 83.4748 54.4982 83.2982C54.7882 83.1182 55.0165 82.8598 55.1832 82.5232L55.8682 82.7882C55.6549 83.2582 55.3399 83.6232 54.9232 83.8832C54.5099 84.1398 54.0415 84.2682 53.5182 84.2682ZM51.4532 81.6232V81.0082H55.5782V81.6232H51.4532ZM59.1778 84.2682C58.6745 84.2682 58.2445 84.1432 57.8878 83.8932C57.5311 83.6398 57.2578 83.2982 57.0678 82.8682C56.8778 82.4382 56.7828 81.9532 56.7828 81.4132C56.7828 80.8765 56.8761 80.3932 57.0628 79.9632C57.2528 79.5332 57.5245 79.1932 57.8778 78.9432C58.2311 78.6932 58.6545 78.5682 59.1478 78.5682C59.6545 78.5682 60.0811 78.6915 60.4278 78.9382C60.7745 79.1848 61.0361 79.5232 61.2128 79.9532C61.3928 80.3798 61.4828 80.8665 61.4828 81.4132C61.4828 81.9498 61.3945 82.4348 61.2178 82.8682C61.0411 83.2982 60.7811 83.6398 60.4378 83.8932C60.0945 84.1432 59.6745 84.2682 59.1778 84.2682ZM59.2528 83.5832C59.6361 83.5832 59.9528 83.4898 60.2028 83.3032C60.4528 83.1165 60.6395 82.8598 60.7628 82.5332C60.8861 82.2032 60.9478 81.8298 60.9478 81.4132C60.9478 80.9898 60.8861 80.6165 60.7628 80.2932C60.6395 79.9665 60.4528 79.7115 60.2028 79.5282C59.9561 79.3448 59.6445 79.2532 59.2678 79.2532C58.8811 79.2532 58.5611 79.3482 58.3078 79.5382C58.0545 79.7282 57.8661 79.9865 57.7428 80.3132C57.6228 80.6398 57.5628 81.0065 57.5628 81.4132C57.5628 81.8232 57.6245 82.1932 57.7478 82.5232C57.8745 82.8498 58.0628 83.1082 58.3128 83.2982C58.5628 83.4882 58.8761 83.5832 59.2528 83.5832ZM60.9478 84.1182V80.0532H60.8678V76.9182H61.6078V84.1182H60.9478ZM67.9525 84.1182C67.6492 84.1815 67.3492 84.2065 67.0525 84.1932C66.7592 84.1798 66.4958 84.1165 66.2625 84.0032C66.0325 83.8898 65.8575 83.7132 65.7375 83.4732C65.6408 83.2732 65.5875 83.0715 65.5775 82.8682C65.5708 82.6615 65.5675 82.4265 65.5675 82.1632V77.2182H66.2975V82.1332C66.2975 82.3598 66.2992 82.5498 66.3025 82.7032C66.3092 82.8532 66.3442 82.9865 66.4075 83.1032C66.5275 83.3265 66.7175 83.4598 66.9775 83.5032C67.2408 83.5465 67.5658 83.5365 67.9525 83.4732V84.1182ZM64.4125 79.3482V78.7182H67.9525V79.3482H64.4125ZM71.0761 84.2682C70.5394 84.2682 70.0811 84.1465 69.7011 83.9032C69.3211 83.6598 69.0294 83.3232 68.8261 82.8932C68.6228 82.4632 68.5211 81.9698 68.5211 81.4132C68.5211 80.8465 68.6244 80.3498 68.8311 79.9232C69.0378 79.4965 69.3311 79.1648 69.7111 78.9282C70.0944 78.6882 70.5494 78.5682 71.0761 78.5682C71.6161 78.5682 72.0761 78.6898 72.4561 78.9332C72.8394 79.1732 73.1311 79.5082 73.3311 79.9382C73.5344 80.3648 73.6361 80.8565 73.6361 81.4132C73.6361 81.9798 73.5344 82.4782 73.3311 82.9082C73.1278 83.3348 72.8344 83.6682 72.4511 83.9082C72.0678 84.1482 71.6094 84.2682 71.0761 84.2682ZM71.0761 83.5632C71.6761 83.5632 72.1228 83.3648 72.4161 82.9682C72.7094 82.5682 72.8561 82.0498 72.8561 81.4132C72.8561 80.7598 72.7078 80.2398 72.4111 79.8532C72.1178 79.4665 71.6728 79.2732 71.0761 79.2732C70.6728 79.2732 70.3394 79.3648 70.0761 79.5482C69.8161 79.7282 69.6211 79.9798 69.4911 80.3032C69.3644 80.6232 69.3011 80.9932 69.3011 81.4132C69.3011 82.0632 69.4511 82.5848 69.7511 82.9782C70.0511 83.3682 70.4928 83.5632 71.0761 83.5632ZM78.641 85.1032V83.9632H79.376V85.1032H78.641ZM78.641 77.0682V75.9232H79.376V77.0682H78.641ZM79.096 84.2682C78.6193 84.2682 78.1893 84.1832 77.806 84.0132C77.426 83.8432 77.111 83.6032 76.861 83.2932C76.6143 82.9832 76.4527 82.6165 76.376 82.1932L77.091 82.0682C77.201 82.5282 77.4377 82.8932 77.801 83.1632C78.1677 83.4298 78.6093 83.5632 79.126 83.5632C79.6493 83.5632 80.0727 83.4365 80.396 83.1832C80.7193 82.9265 80.881 82.5915 80.881 82.1782C80.881 81.8715 80.791 81.6265 80.611 81.4432C80.431 81.2598 80.126 81.1032 79.696 80.9732L78.096 80.4732C77.1293 80.1698 76.646 79.5965 76.646 78.7532C76.646 78.3598 76.7427 78.0148 76.936 77.7182C77.1327 77.4182 77.4043 77.1848 77.751 77.0182C78.101 76.8515 78.5093 76.7698 78.976 76.7732C79.4327 76.7732 79.841 76.8598 80.201 77.0332C80.5643 77.2032 80.8627 77.4448 81.096 77.7582C81.3293 78.0715 81.4843 78.4432 81.561 78.8732L80.826 79.0132C80.7793 78.7065 80.671 78.4382 80.501 78.2082C80.3343 77.9782 80.1193 77.7998 79.856 77.6732C79.5927 77.5432 79.2993 77.4765 78.976 77.4732C78.6693 77.4732 78.396 77.5265 78.156 77.6332C77.916 77.7398 77.726 77.8882 77.586 78.0782C77.4493 78.2648 77.381 78.4798 77.381 78.7232C77.381 78.9898 77.476 79.2165 77.666 79.4032C77.8593 79.5865 78.1643 79.7415 78.581 79.8682L79.956 80.2832C80.536 80.4565 80.9543 80.6898 81.211 80.9832C81.4677 81.2765 81.596 81.6682 81.596 82.1582C81.596 82.5815 81.4927 82.9515 81.286 83.2682C81.0793 83.5848 80.7877 83.8315 80.411 84.0082C80.0377 84.1815 79.5993 84.2682 79.096 84.2682ZM82.4297 84.1132L82.4347 83.4432L85.6897 80.5032C85.9697 80.2498 86.1547 80.0098 86.2447 79.7832C86.338 79.5532 86.3847 79.3132 86.3847 79.0632C86.3847 78.7665 86.3147 78.4982 86.1747 78.2582C86.0347 78.0182 85.8464 77.8282 85.6097 77.6882C85.373 77.5448 85.108 77.4732 84.8147 77.4732C84.508 77.4732 84.2347 77.5465 83.9947 77.6932C83.7547 77.8398 83.5647 78.0332 83.4247 78.2732C83.288 78.5132 83.2214 78.7748 83.2247 79.0582H82.4747C82.4747 78.6215 82.578 78.2298 82.7847 77.8832C82.9914 77.5365 83.2714 77.2648 83.6247 77.0682C83.978 76.8682 84.378 76.7682 84.8247 76.7682C85.2614 76.7682 85.653 76.8715 85.9997 77.0782C86.3497 77.2815 86.6247 77.5582 86.8247 77.9082C87.028 78.2548 87.1297 78.6415 87.1297 79.0682C87.1297 79.3682 87.093 79.6332 87.0197 79.8632C86.9497 80.0898 86.838 80.3015 86.6847 80.4982C86.5347 80.6915 86.343 80.8915 86.1097 81.0982L83.2197 83.7082L83.1047 83.4082H87.1297V84.1132H82.4297ZM90.5278 84.2682C90.0778 84.2682 89.6795 84.1782 89.3328 83.9982C88.9895 83.8182 88.7195 83.5665 88.5228 83.2432C88.3295 82.9165 88.2328 82.5348 88.2328 82.0982C88.2328 81.6515 88.3411 81.2548 88.5578 80.9082C88.7745 80.5582 89.1045 80.2932 89.5478 80.1132L89.5378 80.4032C89.1678 80.2665 88.8861 80.0432 88.6928 79.7332C88.4995 79.4232 88.4028 79.0798 88.4028 78.7032C88.4028 78.3032 88.4945 77.9598 88.6778 77.6732C88.8611 77.3832 89.1111 77.1598 89.4278 77.0032C89.7478 76.8465 90.1145 76.7682 90.5278 76.7682C90.9411 76.7682 91.3078 76.8465 91.6278 77.0032C91.9478 77.1598 92.1995 77.3832 92.3828 77.6732C92.5661 77.9598 92.6578 78.3032 92.6578 78.7032C92.6578 79.0798 92.5645 79.4215 92.3778 79.7282C92.1945 80.0348 91.9128 80.2598 91.5328 80.4032L91.5078 80.1132C91.9511 80.2898 92.2828 80.5532 92.5028 80.9032C92.7261 81.2532 92.8378 81.6515 92.8378 82.0982C92.8378 82.5348 92.7395 82.9165 92.5428 83.2432C92.3461 83.5665 92.0745 83.8182 91.7278 83.9982C91.3811 84.1782 90.9811 84.2682 90.5278 84.2682ZM90.5278 83.5632C90.9811 83.5632 91.3495 83.4382 91.6328 83.1882C91.9161 82.9348 92.0578 82.5715 92.0578 82.0982C92.0578 81.6182 91.9178 81.2548 91.6378 81.0082C91.3578 80.7582 90.9878 80.6332 90.5278 80.6332C90.0678 80.6332 89.6995 80.7582 89.4228 81.0082C89.1461 81.2548 89.0078 81.6182 89.0078 82.0982C89.0078 82.5715 89.1478 82.9348 89.4278 83.1882C89.7078 83.4382 90.0745 83.5632 90.5278 83.5632ZM90.5278 79.9232C90.9278 79.9232 91.2528 79.8215 91.5028 79.6182C91.7528 79.4115 91.8778 79.1065 91.8778 78.7032C91.8778 78.2998 91.7528 77.9982 91.5028 77.7982C91.2528 77.5948 90.9278 77.4932 90.5278 77.4932C90.1278 77.4932 89.8028 77.5948 89.5528 77.7982C89.3061 77.9982 89.1828 78.2998 89.1828 78.7032C89.1828 79.1065 89.3061 79.4115 89.5528 79.6182C89.8028 79.8215 90.1278 79.9232 90.5278 79.9232ZM94.0336 85.1632L94.0786 84.7982C94.2119 84.8082 94.3086 84.7815 94.3686 84.7182C94.4286 84.6548 94.4653 84.5698 94.4786 84.4632C94.4919 84.3565 94.4953 84.2415 94.4886 84.1182H94.0336V83.0632H94.8886V84.3182C94.8886 84.6248 94.8103 84.8548 94.6536 85.0082C94.5003 85.1615 94.2936 85.2132 94.0336 85.1632ZM99.1398 84.2682C98.6965 84.2682 98.2965 84.1648 97.9398 83.9582C97.5865 83.7515 97.3065 83.4715 97.0998 83.1182C96.8932 82.7615 96.7898 82.3615 96.7898 81.9182V79.1182C96.7898 78.6748 96.8932 78.2765 97.0998 77.9232C97.3065 77.5665 97.5865 77.2848 97.9398 77.0782C98.2965 76.8715 98.6965 76.7682 99.1398 76.7682C99.5832 76.7682 99.9815 76.8715 100.335 77.0782C100.692 77.2848 100.973 77.5665 101.18 77.9232C101.387 78.2765 101.49 78.6748 101.49 79.1182V81.9182C101.49 82.3615 101.387 82.7615 101.18 83.1182C100.973 83.4715 100.692 83.7515 100.335 83.9582C99.9815 84.1648 99.5832 84.2682 99.1398 84.2682ZM99.1398 83.5582C99.4365 83.5582 99.7065 83.4865 99.9498 83.3432C100.193 83.1965 100.387 83.0015 100.53 82.7582C100.673 82.5148 100.745 82.2465 100.745 81.9532V79.0832C100.745 78.7865 100.673 78.5165 100.53 78.2732C100.387 78.0298 100.193 77.8365 99.9498 77.6932C99.7065 77.5465 99.4365 77.4732 99.1398 77.4732C98.8432 77.4732 98.5732 77.5465 98.3298 77.6932C98.0865 77.8365 97.8932 78.0298 97.7498 78.2732C97.6065 78.5165 97.5348 78.7865 97.5348 79.0832V81.9532C97.5348 82.2465 97.6065 82.5148 97.7498 82.7582C97.8932 83.0015 98.0865 83.1965 98.3298 83.3432C98.5732 83.4865 98.8432 83.5582 99.1398 83.5582ZM105.243 84.2682C104.8 84.2682 104.4 84.1648 104.043 83.9582C103.69 83.7515 103.41 83.4715 103.203 83.1182C102.997 82.7615 102.893 82.3615 102.893 81.9182V79.1182C102.893 78.6748 102.997 78.2765 103.203 77.9232C103.41 77.5665 103.69 77.2848 104.043 77.0782C104.4 76.8715 104.8 76.7682 105.243 76.7682C105.687 76.7682 106.085 76.8715 106.438 77.0782C106.795 77.2848 107.077 77.5665 107.283 77.9232C107.49 78.2765 107.593 78.6748 107.593 79.1182V81.9182C107.593 82.3615 107.49 82.7615 107.283 83.1182C107.077 83.4715 106.795 83.7515 106.438 83.9582C106.085 84.1648 105.687 84.2682 105.243 84.2682ZM105.243 83.5582C105.54 83.5582 105.81 83.4865 106.053 83.3432C106.297 83.1965 106.49 83.0015 106.633 82.7582C106.777 82.5148 106.848 82.2465 106.848 81.9532V79.0832C106.848 78.7865 106.777 78.5165 106.633 78.2732C106.49 78.0298 106.297 77.8365 106.053 77.6932C105.81 77.5465 105.54 77.4732 105.243 77.4732C104.947 77.4732 104.677 77.5465 104.433 77.6932C104.19 77.8365 103.997 78.0298 103.853 78.2732C103.71 78.5165 103.638 78.7865 103.638 79.0832V81.9532C103.638 82.2465 103.71 82.5148 103.853 82.7582C103.997 83.0015 104.19 83.1965 104.433 83.3432C104.677 83.4865 104.947 83.5582 105.243 83.5582ZM111.347 84.2682C110.904 84.2682 110.504 84.1648 110.147 83.9582C109.794 83.7515 109.514 83.4715 109.307 83.1182C109.1 82.7615 108.997 82.3615 108.997 81.9182V79.1182C108.997 78.6748 109.1 78.2765 109.307 77.9232C109.514 77.5665 109.794 77.2848 110.147 77.0782C110.504 76.8715 110.904 76.7682 111.347 76.7682C111.79 76.7682 112.189 76.8715 112.542 77.0782C112.899 77.2848 113.18 77.5665 113.387 77.9232C113.594 78.2765 113.697 78.6748 113.697 79.1182V81.9182C113.697 82.3615 113.594 82.7615 113.387 83.1182C113.18 83.4715 112.899 83.7515 112.542 83.9582C112.189 84.1648 111.79 84.2682 111.347 84.2682ZM111.347 83.5582C111.644 83.5582 111.914 83.4865 112.157 83.3432C112.4 83.1965 112.594 83.0015 112.737 82.7582C112.88 82.5148 112.952 82.2465 112.952 81.9532V79.0832C112.952 78.7865 112.88 78.5165 112.737 78.2732C112.594 78.0298 112.4 77.8365 112.157 77.6932C111.914 77.5465 111.644 77.4732 111.347 77.4732C111.05 77.4732 110.78 77.5465 110.537 77.6932C110.294 77.8365 110.1 78.0298 109.957 78.2732C109.814 78.5165 109.742 78.7865 109.742 79.0832V81.9532C109.742 82.2465 109.814 82.5148 109.957 82.7582C110.1 83.0015 110.294 83.1965 110.537 83.3432C110.78 83.4865 111.05 83.5582 111.347 83.5582ZM117.202 84.1182V76.9182H117.937V83.4132H121.357V84.1182H117.202ZM123.755 84.2682C123.348 84.2682 123.006 84.1948 122.73 84.0482C122.456 83.9015 122.251 83.7065 122.115 83.4632C121.978 83.2198 121.91 82.9548 121.91 82.6682C121.91 82.3748 121.968 82.1248 122.085 81.9182C122.205 81.7082 122.366 81.5365 122.57 81.4032C122.776 81.2698 123.015 81.1682 123.285 81.0982C123.558 81.0315 123.86 80.9732 124.19 80.9232C124.523 80.8698 124.848 80.8248 125.165 80.7882C125.485 80.7482 125.765 80.7098 126.005 80.6732L125.745 80.8332C125.755 80.2998 125.651 79.9048 125.435 79.6482C125.218 79.3915 124.841 79.2632 124.305 79.2632C123.935 79.2632 123.621 79.3465 123.365 79.5132C123.111 79.6798 122.933 79.9432 122.83 80.3032L122.115 80.0932C122.238 79.6098 122.486 79.2348 122.86 78.9682C123.233 78.7015 123.718 78.5682 124.315 78.5682C124.808 78.5682 125.226 78.6615 125.57 78.8482C125.916 79.0315 126.161 79.2982 126.305 79.6482C126.371 79.8048 126.415 79.9798 126.435 80.1732C126.455 80.3665 126.465 80.5632 126.465 80.7632V84.1182H125.81V82.7632L126 82.8432C125.816 83.3065 125.531 83.6598 125.145 83.9032C124.758 84.1465 124.295 84.2682 123.755 84.2682ZM123.84 83.6332C124.183 83.6332 124.483 83.5715 124.74 83.4482C124.996 83.3248 125.203 83.1565 125.36 82.9432C125.516 82.7265 125.618 82.4832 125.665 82.2132C125.705 82.0398 125.726 81.8498 125.73 81.6432C125.733 81.4332 125.735 81.2765 125.735 81.1732L126.015 81.3182C125.765 81.3515 125.493 81.3848 125.2 81.4182C124.91 81.4515 124.623 81.4898 124.34 81.5332C124.06 81.5765 123.806 81.6282 123.58 81.6882C123.426 81.7315 123.278 81.7932 123.135 81.8732C122.991 81.9498 122.873 82.0532 122.78 82.1832C122.69 82.3132 122.645 82.4748 122.645 82.6682C122.645 82.8248 122.683 82.9765 122.76 83.1232C122.84 83.2698 122.966 83.3915 123.14 83.4882C123.316 83.5848 123.55 83.6332 123.84 83.6332ZM129.781 84.2632C129.148 84.2632 128.626 84.1265 128.216 83.8532C127.81 83.5798 127.56 83.1998 127.466 82.7132L128.216 82.5882C128.296 82.8948 128.478 83.1398 128.761 83.3232C129.048 83.5032 129.401 83.5932 129.821 83.5932C130.231 83.5932 130.555 83.5082 130.791 83.3382C131.028 83.1648 131.146 82.9298 131.146 82.6332C131.146 82.4665 131.108 82.3315 131.031 82.2282C130.958 82.1215 130.806 82.0232 130.576 81.9332C130.346 81.8432 130.003 81.7365 129.546 81.6132C129.056 81.4798 128.673 81.3465 128.396 81.2132C128.12 81.0798 127.923 80.9265 127.806 80.7532C127.69 80.5765 127.631 80.3615 127.631 80.1082C127.631 79.8015 127.718 79.5332 127.891 79.3032C128.065 79.0698 128.305 78.8898 128.611 78.7632C128.918 78.6332 129.275 78.5682 129.681 78.5682C130.088 78.5682 130.451 78.6348 130.771 78.7682C131.095 78.8982 131.355 79.0815 131.551 79.3182C131.748 79.5548 131.865 79.8298 131.901 80.1432L131.151 80.2782C131.101 79.9615 130.943 79.7115 130.676 79.5282C130.413 79.3415 130.078 79.2448 129.671 79.2382C129.288 79.2282 128.976 79.3015 128.736 79.4582C128.496 79.6115 128.376 79.8165 128.376 80.0732C128.376 80.2165 128.42 80.3398 128.506 80.4432C128.593 80.5432 128.75 80.6382 128.976 80.7282C129.206 80.8182 129.533 80.9165 129.956 81.0232C130.453 81.1498 130.843 81.2832 131.126 81.4232C131.41 81.5632 131.611 81.7282 131.731 81.9182C131.851 82.1082 131.911 82.3432 131.911 82.6232C131.911 83.1332 131.721 83.5348 131.341 83.8282C130.965 84.1182 130.445 84.2632 129.781 84.2632ZM135.96 84.1182C135.657 84.1815 135.357 84.2065 135.06 84.1932C134.767 84.1798 134.504 84.1165 134.27 84.0032C134.04 83.8898 133.865 83.7132 133.745 83.4732C133.649 83.2732 133.595 83.0715 133.585 82.8682C133.579 82.6615 133.575 82.4265 133.575 82.1632V77.2182H134.305V82.1332C134.305 82.3598 134.307 82.5498 134.31 82.7032C134.317 82.8532 134.352 82.9865 134.415 83.1032C134.535 83.3265 134.725 83.4598 134.985 83.5032C135.249 83.5465 135.574 83.5365 135.96 83.4732V84.1182ZM132.42 79.3482V78.7182H135.96V79.3482H132.42ZM140.741 84.1182V81.1032L138.326 76.9182H139.176L141.111 80.2632L143.036 76.9182H143.886L141.481 81.1032V84.1182H140.741ZM146.067 84.2682C145.54 84.2682 145.084 84.1515 144.697 83.9182C144.314 83.6848 144.015 83.3565 143.802 82.9332C143.589 82.5098 143.482 82.0132 143.482 81.4432C143.482 80.8532 143.587 80.3432 143.797 79.9132C144.007 79.4832 144.302 79.1515 144.682 78.9182C145.065 78.6848 145.517 78.5682 146.037 78.5682C146.57 78.5682 147.025 78.6915 147.402 78.9382C147.779 79.1815 148.064 79.5315 148.257 79.9882C148.45 80.4448 148.539 80.9898 148.522 81.6232H147.772V81.3632C147.759 80.6632 147.607 80.1348 147.317 79.7782C147.03 79.4215 146.61 79.2432 146.057 79.2432C145.477 79.2432 145.032 79.4315 144.722 79.8082C144.415 80.1848 144.262 80.7215 144.262 81.4182C144.262 82.0982 144.415 82.6265 144.722 83.0032C145.032 83.3765 145.47 83.5632 146.037 83.5632C146.424 83.5632 146.76 83.4748 147.047 83.2982C147.337 83.1182 147.565 82.8598 147.732 82.5232L148.417 82.7882C148.204 83.2582 147.889 83.6232 147.472 83.8832C147.059 84.1398 146.59 84.2682 146.067 84.2682ZM144.002 81.6232V81.0082H148.127V81.6232H144.002ZM151.079 84.2682C150.672 84.2682 150.331 84.1948 150.054 84.0482C149.781 83.9015 149.576 83.7065 149.439 83.4632C149.302 83.2198 149.234 82.9548 149.234 82.6682C149.234 82.3748 149.292 82.1248 149.409 81.9182C149.529 81.7082 149.691 81.5365 149.894 81.4032C150.101 81.2698 150.339 81.1682 150.609 81.0982C150.882 81.0315 151.184 80.9732 151.514 80.9232C151.847 80.8698 152.172 80.8248 152.489 80.7882C152.809 80.7482 153.089 80.7098 153.329 80.6732L153.069 80.8332C153.079 80.2998 152.976 79.9048 152.759 79.6482C152.542 79.3915 152.166 79.2632 151.629 79.2632C151.259 79.2632 150.946 79.3465 150.689 79.5132C150.436 79.6798 150.257 79.9432 150.154 80.3032L149.439 80.0932C149.562 79.6098 149.811 79.2348 150.184 78.9682C150.557 78.7015 151.042 78.5682 151.639 78.5682C152.132 78.5682 152.551 78.6615 152.894 78.8482C153.241 79.0315 153.486 79.2982 153.629 79.6482C153.696 79.8048 153.739 79.9798 153.759 80.1732C153.779 80.3665 153.789 80.5632 153.789 80.7632V84.1182H153.134V82.7632L153.324 82.8432C153.141 83.3065 152.856 83.6598 152.469 83.9032C152.082 84.1465 151.619 84.2682 151.079 84.2682ZM151.164 83.6332C151.507 83.6332 151.807 83.5715 152.064 83.4482C152.321 83.3248 152.527 83.1565 152.684 82.9432C152.841 82.7265 152.942 82.4832 152.989 82.2132C153.029 82.0398 153.051 81.8498 153.054 81.6432C153.057 81.4332 153.059 81.2765 153.059 81.1732L153.339 81.3182C153.089 81.3515 152.817 81.3848 152.524 81.4182C152.234 81.4515 151.947 81.4898 151.664 81.5332C151.384 81.5765 151.131 81.6282 150.904 81.6882C150.751 81.7315 150.602 81.7932 150.459 81.8732C150.316 81.9498 150.197 82.0532 150.104 82.1832C150.014 82.3132 149.969 82.4748 149.969 82.6682C149.969 82.8248 150.007 82.9765 150.084 83.1232C150.164 83.2698 150.291 83.3915 150.464 83.4882C150.641 83.5848 150.874 83.6332 151.164 83.6332ZM155.091 84.1182V78.7182H155.751V80.0182L155.621 79.8482C155.681 79.6882 155.759 79.5415 155.856 79.4082C155.952 79.2715 156.057 79.1598 156.171 79.0732C156.311 78.9498 156.474 78.8565 156.661 78.7932C156.847 78.7265 157.036 78.6882 157.226 78.6782C157.416 78.6648 157.589 78.6782 157.746 78.7182V79.4082C157.549 79.3582 157.334 79.3465 157.101 79.3732C156.867 79.3998 156.652 79.4932 156.456 79.6532C156.276 79.7932 156.141 79.9615 156.051 80.1582C155.961 80.3515 155.901 80.5582 155.871 80.7782C155.841 80.9948 155.826 81.2098 155.826 81.4232V84.1182H155.091Z" fill="#718EBF"/>
</svg>
