<svg width="21" height="21" viewBox="0 0 21 21" fill="none" xmlns="http://www.w3.org/2000/svg">
<g clip-path="url(#clip0_1_448)">
<path d="M20.5798 20.4999V20.4991H20.5849V13.1641C20.5849 9.57577 19.795 6.8116 15.5056 6.8116C13.4436 6.8116 12.0598 7.91827 11.4949 8.96743H11.4353V7.1466H7.36829V20.4991H11.6031V13.8874C11.6031 12.1466 11.9405 10.4633 14.1449 10.4633C16.3168 10.4633 16.3492 12.4499 16.3492 13.9991V20.4999H20.5798Z" fill="#3734A9"/>
<path d="M0.472656 7.14774H4.71261V20.5002H0.472656V7.14774Z" fill="#3734A9"/>
<path d="M2.5907 0.5C1.23504 0.5 0.13501 1.57583 0.13501 2.90167C0.13501 4.2275 1.23504 5.32583 2.5907 5.32583C3.94636 5.32583 5.0464 4.2275 5.0464 2.90167C5.04555 1.57583 3.94551 0.5 2.5907 0.5V0.5Z" fill="#3734A9"/>
</g>
<defs>
<clipPath id="clip0_1_448">
<rect width="20.4499" height="20" fill="white" transform="translate(0.13501 0.5)"/>
</clipPath>
</defs>
</svg>
