<svg width="96" height="17" viewBox="0 0 96 17" fill="none" xmlns="http://www.w3.org/2000/svg">
<path d="M8.72727 0.5L11.0357 5.70317L17.0274 6.1535L12.4623 9.81956L13.857 15.3011L8.72727 12.3636L3.59751 15.3011L4.99222 9.81956L0.427143 6.1535L6.41888 5.70317L8.72727 0.5Z" fill="#FE8B75"/>
<path d="M28.3636 0.5L30.672 5.70317L36.6638 6.1535L32.0987 9.81956L33.4934 15.3011L28.3636 12.3636L23.2339 15.3011L24.6286 9.81956L20.0635 6.1535L26.0552 5.70317L28.3636 0.5Z" fill="#FE8B75"/>
<path d="M48.0001 0.5L50.3085 5.70317L56.3002 6.1535L51.7352 9.81956L53.1299 15.3011L48.0001 12.3636L42.8703 15.3011L44.265 9.81956L39.7 6.1535L45.6917 5.70317L48.0001 0.5Z" fill="#FE8B75"/>
<path d="M67.6363 0.5L69.9447 5.70317L75.9365 6.1535L71.3714 9.81956L72.7661 15.3011L67.6363 12.3636L62.5066 15.3011L63.9013 9.81956L59.3362 6.1535L65.3279 5.70317L67.6363 0.5Z" fill="#FE8B75"/>
<path d="M87.2727 0.5L89.5811 5.70317L95.5728 6.1535L91.0077 9.81956L92.4024 15.3011L87.2727 12.3636L82.1429 15.3011L83.5376 9.81956L78.9726 6.1535L84.9643 5.70317L87.2727 0.5Z" fill="#FE8B75"/>
</svg>
