<svg width="106" height="127" viewBox="0 0 106 127" fill="none" xmlns="http://www.w3.org/2000/svg">
<path fill-rule="evenodd" clip-rule="evenodd" d="M16.2885 23.9401C20.6185 15.5526 25.9263 7.77718 31.5359 0.209725C32.1769 0.369192 31.6137 0.755642 31.8423 0.999606C32.2056 1.16197 32.61 0.314518 33.0773 1.06836C33.507 1.76091 33.2524 2.28156 32.9498 2.81878C31.3574 5.64653 29.0576 8.03481 27.6698 11.0171C27.1948 12.0368 26.9872 13.2856 25.8159 14.0801C25.0948 14.5688 25.2647 15.8048 24.6275 16.6187C24.2286 17.1286 24.007 17.8419 23.5632 18.4172C21.7949 20.7077 20.776 23.2985 20.4854 26.1462C20.4332 26.659 20.2123 27.1233 19.7211 27.139C18.3816 27.1825 17.0511 27.7197 15.7381 26.5852C14.7851 25.7614 14.6965 25.0154 14.9661 24.0222C15.6162 21.6293 16.9056 19.5177 18.171 17.4078C19.6513 14.94 21.3323 12.5885 22.9003 10.1754C25.0092 6.92972 27.3702 3.86464 29.6097 0.713808C29.8228 0.41434 30.0269 -0.204891 30.4942 0.0676538C30.846 0.272683 30.4754 0.763098 30.2747 1.06132C29.0088 2.9418 27.6535 4.75848 26.2652 6.55943C24.9348 8.28541 23.8195 10.1762 22.7086 12.0493C20.9133 15.0771 18.9353 18.0034 17.3109 21.1256C16.8478 22.0158 16.3895 22.9175 16.2885 23.9401Z" fill="black"/>
<path fill-rule="evenodd" clip-rule="evenodd" d="M9.44461 60.1374C8.63108 60.7703 8.04266 59.7853 7.78546 59.5853C7.08961 59.0443 5.99877 59.6023 5.72703 58.9619C5.31577 57.9923 4.42863 57.1717 4.79667 55.8728C5.50792 53.3603 6.58592 50.9952 7.58817 48.5965C8.31483 46.8577 9.00725 45.1019 10.0686 43.5122C10.5419 42.8035 11.0858 42.1785 11.8891 41.8223C12.7129 41.4565 13.4361 41.4304 14.2295 42.0878C14.8167 42.574 15.5737 42.8934 16.1172 43.465C16.6346 44.0084 17.0454 44.5771 16.4352 45.3177C16.0068 45.8371 16.0842 46.5181 15.8685 47.1104C15.0015 49.4904 14.6716 52.0534 13.2807 54.2541C12.2494 55.8865 11.4872 57.6431 10.6921 59.3861C10.4644 59.8852 10.244 60.4882 9.44461 60.1374Z" fill="black"/>
<path fill-rule="evenodd" clip-rule="evenodd" d="M60.7351 42.313C60.5438 42.7305 60.4205 42.9989 60.3016 43.2582C60.4428 43.4367 60.5733 43.3303 60.7137 43.2922C61.0017 43.2135 61.1005 42.6796 61.4493 42.8929C61.8713 43.1509 61.3286 43.4599 61.3612 43.7656C61.8229 43.8696 61.9457 43.3175 62.3223 43.3021C62.9061 44.1711 62.5997 44.8707 62.0562 45.6502C60.5793 47.7685 59.2993 49.9948 58.4374 52.4311C58.1122 53.3511 56.8947 53.8005 56.8711 54.8683C56.8412 56.2227 56.1881 57.3986 55.4542 58.367C54.1866 60.0396 53.9157 62.0075 53.1613 63.8254C52.949 64.3369 53.24 64.9669 52.7179 65.3861C52.5493 65.5215 52.2844 65.8301 52.1744 65.57C51.797 64.6811 51.0613 65.1094 50.4523 64.962C49.3221 64.6882 49.0996 63.6154 48.9892 62.6718C48.8154 61.1849 49.2588 59.7467 49.8823 58.4213C52.2685 53.3461 55.0438 48.4772 58.4772 43.986C59.0002 43.3017 59.4692 42.4431 60.7351 42.313Z" fill="black"/>
<path fill-rule="evenodd" clip-rule="evenodd" d="M44.9235 22.1608C44.6616 22.9507 44.4087 23.7774 44.1143 24.5905C42.2497 29.7448 39.8309 34.6576 37.211 39.4856C36.2066 41.3362 35.049 43.1123 34.289 45.0872C34.0716 45.653 33.6809 46.0995 32.9837 45.4977C32.8194 45.3556 32.5755 45.2914 32.3581 45.2169C30.912 44.7215 30.3472 43.6487 30.8008 42.1928C31.2655 40.6992 32.1253 39.3911 32.9585 38.0798C36.4839 32.5332 39.8001 26.8823 42.3314 20.8299C42.6524 20.0628 42.7453 20.0637 43.308 20.6477C43.3692 20.7111 43.4933 20.757 43.5823 20.7492C44.6321 20.6585 44.7275 21.4032 44.9235 22.1608Z" fill="black"/>
<path fill-rule="evenodd" clip-rule="evenodd" d="M9.57339 80.0504C8.61222 82.3397 7.04079 84.0918 6.12498 86.1649C5.19933 88.2603 4.07853 90.2804 3.49738 92.5171C4.34001 90.724 5.17793 88.9284 6.02613 87.1374C7.00014 85.0826 8.2352 83.1735 9.44929 81.2467C10.0587 80.2799 10.743 80.3292 11.429 80.8615C12.0987 81.3817 12.2378 82.2577 11.607 82.8683C10.3219 84.1121 9.59907 85.7014 9.12961 87.2625C8.31223 89.9813 6.87518 92.5013 6.44209 95.3407C6.34238 95.9951 5.85324 96.553 5.75267 97.282C5.63969 98.1022 5.59561 98.8046 6.01586 99.5688C6.25936 100.013 6.8602 100.597 6.32655 101.092C5.89004 101.498 5.25069 101.795 4.52317 101.426C4.24543 101.285 3.8406 101.377 3.49353 101.366C1.4642 101.299 0.266371 100.019 0.56893 98.0384C0.974625 95.3817 2.00555 92.8969 3.09425 90.4432C4.52061 87.2277 6.07149 84.0744 8.18256 81.2106C8.49411 80.7881 8.75515 80.3213 9.57339 80.0504Z" fill="black"/>
<path fill-rule="evenodd" clip-rule="evenodd" d="M64.9043 105.105C62.156 105.099 61.3279 103.935 62.2578 101.729C62.9849 100.004 64.2217 98.5827 65.4157 97.1587C68.2029 93.8352 71.1039 90.6069 74.1925 87.5356C74.9478 86.7842 75.8649 86.5154 76.8064 86.2366C77.135 86.1397 77.8677 85.9484 77.8399 86.2255C77.7817 86.7921 78.3692 87.3069 77.8403 87.9133C75.478 90.621 73.3699 93.5195 71.1857 96.361C70.2228 97.6139 69.1572 98.7952 68.2298 100.071C67.6029 100.935 66.9618 101.867 67.5978 103.03C67.6739 103.168 67.6346 103.532 67.567 103.554C66.4817 103.904 65.8256 105.023 64.9043 105.105Z" fill="black"/>
<path fill-rule="evenodd" clip-rule="evenodd" d="M92.9978 44.8725C94.4092 43.3378 95.2873 41.4714 96.679 39.9464C97.089 39.4974 97.5803 39.1076 97.9308 38.6205C98.5094 37.8157 99.1046 38.4291 99.4872 38.6826C99.8587 38.9283 100.033 39.499 99.6344 40.0391C98.0074 42.2448 96.6987 44.6591 95.5997 47.1162C94.8166 48.8678 93.5165 50.402 93.2452 52.4403C93.142 53.212 92.5973 54.1025 92.2951 54.9665C91.8911 56.1217 91.0614 55.1654 90.4211 55.1231C90.3201 55.1165 90.2307 54.829 90.1383 54.8307C89.7441 54.8361 89.5122 55.8074 89.0504 55.1335C88.4239 54.2189 87.755 53.3561 88.1932 52.0042C88.8895 49.8582 89.959 47.9222 91.1294 46.0223C92.7162 43.4464 94.1798 40.7797 96.4381 38.6541C96.6046 38.4975 96.7573 38.3256 96.9354 38.1823C97.119 38.0344 97.3659 37.9081 97.5627 38.0899C97.8131 38.3214 97.6804 38.6014 97.4613 38.7754C95.5463 40.293 94.5924 42.4821 93.2503 44.399C93.1485 44.5448 93.0813 44.7142 92.9978 44.8725Z" fill="black"/>
<path fill-rule="evenodd" clip-rule="evenodd" d="M45.7584 82.9959C46.349 82.4566 47.0157 81.9753 47.51 81.3636C48.0869 80.6499 48.7292 80.4933 49.5419 80.8044C50.0251 80.99 49.9223 81.4804 49.8757 81.7931C49.7555 82.5979 49.2633 83.2179 48.4596 83.5046C48.2675 83.5729 47.9782 83.4321 47.9786 83.7684C47.9829 85.4115 46.4941 86.2863 45.8543 87.6027C45.6578 88.0061 45.2919 88.3892 45.0343 88.803C44.282 90.0113 43.6666 91.3239 42.0721 91.7865C41.7006 91.8942 41.1117 92.216 41.3125 92.7624C41.9249 94.4287 40.7189 95.5417 40.0346 96.7772C38.91 98.8072 37.4832 100.672 36.4403 102.752C36.3226 102.986 36.2498 103.32 35.9117 103.238C35.4894 103.136 36.0491 102.774 35.756 102.56C35.2296 102.831 34.7674 103.564 34.0335 102.699C33.7716 102.391 33.3869 102.912 33.1986 103.24C33.0552 103.489 32.8977 103.723 32.5746 103.54C32.1839 103.319 32.5207 103.087 32.6238 102.884C34.5034 99.1763 36.825 95.7285 39.2343 92.332C41.3561 89.3407 43.4774 86.3489 45.5988 83.3584C45.6514 83.2382 45.7049 83.1173 45.7584 82.9959Z" fill="black"/>
<path fill-rule="evenodd" clip-rule="evenodd" d="M66.3025 69.8361C67.6035 67.8877 68.9143 65.9418 70.362 64.0845C68.7106 65.2832 66.7197 68.0649 66.3025 69.8361ZM68.8483 72.7936C68.4435 72.9079 69.4757 71.546 68.3724 72.3823C68.3429 72.4047 68.2847 72.4391 68.2714 72.4291C67.5443 71.8828 66.9041 71.9134 66.2387 72.5811C66.0641 72.7563 64.7092 71.2867 64.6801 70.8527C64.6364 70.1974 64.8076 69.5769 65.1055 69.0033C66.7864 65.7634 69.1513 63.0715 72.1392 60.8932C73.6028 59.8258 75.1383 59.9422 76.6708 60.737C77.4937 61.1641 77.4899 61.6773 76.8056 62.3164C76.0853 62.9886 75.4002 63.7015 74.7553 64.4421C74.0111 65.2966 73.388 66.2347 72.5689 67.0478C71.493 68.1152 71.1224 69.6291 70.3401 70.8966C69.9075 71.5962 69.5266 72.3061 68.8483 72.7936Z" fill="black"/>
<path fill-rule="evenodd" clip-rule="evenodd" d="M102.946 74.7408C102.775 75.3062 102.672 75.6463 102.514 76.1649C102.776 75.9694 102.935 75.9101 102.983 75.8037C103.372 74.9421 104.088 75.165 104.651 75.4437C105.255 75.742 105.411 76.4155 105.17 76.9962C104.776 77.9439 104.321 78.8824 103.765 79.7494C102.999 80.9456 102.132 82.1016 101.61 83.408C101.064 84.7724 100.269 86.0999 100.609 87.7041C100.77 88.4613 100.116 88.9061 99.4016 88.5963C99.0134 88.4273 98.6642 88.4463 98.2804 88.465C95.8479 88.5826 94.5919 86.913 95.5368 84.6651C96.869 81.4969 99.019 78.8187 101.258 76.2137C101.686 75.7159 101.981 75.0536 102.946 74.7408Z" fill="black"/>
<path fill-rule="evenodd" clip-rule="evenodd" d="M14.2739 124.22C14.2594 125.066 14.9967 125.477 15.0986 126.152C14.021 126.294 13.3419 125.729 13.1061 124.564C12.8501 123.299 13.2588 122.134 13.8948 121.126C15.2479 118.98 16.3773 116.711 18.2675 114.858C19.007 114.133 19.5184 112.96 20.2378 112.083C22.2881 109.582 24.4283 107.15 26.5424 104.698C26.9669 104.205 27.4706 103.792 28.0517 103.471C28.3491 103.306 28.6423 103.269 28.9192 103.484C29.2166 103.716 29.1836 104.012 29.0176 104.297C28.7707 104.722 28.549 105.17 28.2404 105.55C25.3839 109.062 22.4499 112.519 19.6738 116.089C18.5924 117.481 17.748 119.079 17.166 120.75C16.8973 121.521 17.1853 122.368 17.2764 123.179C17.3008 123.4 17.6196 123.701 17.2156 123.867C16.4398 124.186 15.7897 124.501 16.4723 125.479C16.6276 125.702 16.2746 125.819 16.0289 125.825C15.5899 125.835 15.0845 125.828 15.0327 125.3C14.9856 124.815 14.7019 124.569 14.2739 124.22Z" fill="black"/>
<path fill-rule="evenodd" clip-rule="evenodd" d="M32.8751 66.5308C32.6235 66.3581 32.4822 66.325 32.3723 66.5839C31.9717 67.527 31.6379 68.5099 31.115 69.3859C30.7987 69.9153 30.8667 71.0071 29.6556 70.6886C29.4631 70.6381 29.5024 70.8729 29.5897 71.0059C29.7939 71.3165 29.6672 71.5443 29.446 71.8057C29.0685 72.251 28.9645 72.7451 29.0625 73.3556C29.2444 74.4831 28.4339 75.0327 27.3683 74.5701C27.2403 74.5142 27.0131 74.3261 27.0015 74.404C26.7293 76.2414 25.7005 73.805 25.2807 74.6952C24.9658 74.4417 24.8177 74.119 24.7817 73.7205C24.6996 72.8072 25.0856 72.0347 25.5234 71.2763C27.1821 68.403 29.5581 66.1096 31.9948 63.8775C32.5815 63.3394 33.4657 63.3104 34.2261 63.0938C34.6725 62.9666 34.9357 63.3245 35.1047 63.6666C35.3362 64.1355 35.0812 64.1844 34.6849 64.0593C34.6323 64.9005 34.0639 65.4829 33.5975 66.1216C33.3921 66.4029 33.259 66.7429 32.8751 66.5308Z" fill="black"/>
<path fill-rule="evenodd" clip-rule="evenodd" d="M67.5636 20.344C67.4678 20.2752 67.3723 20.2065 67.2769 20.1377C66.7265 20.9814 66.1711 21.8218 65.634 22.6734C65.5715 22.7728 65.4491 22.9522 65.6348 23.0607C65.7641 23.1361 65.9858 23.1576 66.0298 22.9994C66.3093 21.9908 67.2872 21.3492 67.5636 20.344ZM63.5079 30.5857C63.1677 31.0616 63.4104 31.8751 62.3383 31.9405C61.5633 31.9881 61.7033 31.6257 61.7028 31.2397C61.0365 31.2977 61.3031 32.0639 60.713 32.216C60.4699 31.1792 60.8649 30.1868 60.817 29.1906C60.8243 29.1612 60.829 29.1289 60.832 29.0941C61.6596 28.4065 61.8505 27.3777 62.3092 26.4938C62.4984 26.1284 62.5647 25.6927 62.7971 25.3618C64.6672 22.6989 66.189 19.8235 68.2034 17.2434C69.7821 15.2213 71.1802 13.0683 72.8663 11.1203C73.254 10.6725 73.5968 10.1817 74.4287 9.7124C73.7868 10.8374 73.2981 11.6931 72.8098 12.5489C72.8218 12.5149 72.8325 12.4801 72.8419 12.4441C71.5551 13.4303 71.0308 14.9529 69.9289 16.0894C70.3055 16.398 70.4184 16.0762 70.5995 16.0397C70.9093 15.978 71.1006 16.1661 71.2204 16.4241C71.2795 16.5504 71.3972 16.7368 71.1887 16.7886C70.2644 17.0185 70.4861 17.7607 70.4591 18.3493C70.4291 19 70.0637 19.3575 69.5382 19.6483C68.7285 20.096 68.247 20.731 68.3339 21.6791C68.1918 21.8825 68.0502 22.0862 67.9081 22.2896C67.0231 22.7096 65.7572 24.7554 65.8471 25.6198C65.3421 25.6451 65.1427 26.5712 64.4554 26.0634C64.2517 25.5158 64.1362 25.2565 63.6072 25.9383C62.9388 26.799 63.0462 27.9712 62.2399 28.7404C62.1201 28.8543 62.1282 29.0225 62.2926 29.1198C62.5061 29.2465 62.7042 29.1538 62.7368 28.9508C62.8788 28.0735 63.6025 27.4568 63.8216 26.6222C63.9145 26.2701 64.0125 25.9619 64.4879 26.0315C64.7768 27.6573 63.4835 28.7677 63.0402 30.1557C62.9816 30.3396 62.269 29.8442 62.5275 30.4631C62.6533 30.765 63.1279 30.9149 63.5079 30.5857Z" fill="black"/>
<path fill-rule="evenodd" clip-rule="evenodd" d="M89.9778 105.677C89.7407 106.309 89.9243 106.88 90.1331 107.428C90.2431 107.716 90.3261 107.935 89.9692 108.055C89.6435 108.164 89.4433 107.942 89.3277 107.702C89.0329 107.089 89.106 106.405 89.2811 105.821C89.9482 103.59 91.1991 101.654 92.7419 99.8878C93.1998 99.3643 93.7424 98.89 94.1011 98.3089C94.7528 97.2527 95.8621 96.9516 96.9195 96.6177C97.4134 96.4616 97.508 97.1027 97.6094 97.4478C97.6672 97.6453 97.5169 98.0285 97.3351 98.1436C95.5775 99.2562 95.2946 101.329 94.1023 102.82C93.7095 103.311 93.8897 104.307 93.3821 104.959C92.9811 105.475 92.765 106.119 92.0195 106.364C91.5894 106.506 91.9151 107.041 91.7208 107.36C91.6211 107.524 91.5599 107.72 91.3476 107.747C91.1362 107.773 90.8696 107.599 90.9077 107.468C91.164 106.588 90.0912 106.364 89.9778 105.677Z" fill="black"/>
<path fill-rule="evenodd" clip-rule="evenodd" d="M45.7584 82.9957C45.7049 83.1171 45.6514 83.2381 45.5988 83.3582C44.0552 84.6749 42.8098 86.2625 41.6013 87.8427C39.9387 90.0165 38.4353 92.3124 36.9876 94.6286C35.7624 96.589 34.1995 98.3506 33.3402 100.534C32.9914 101.421 32.4128 102.23 31.4029 102.835C31.1649 101.5 32.0431 100.645 32.5493 99.7046C33.8828 97.2256 35.5672 94.9541 37.2238 92.6744C40.2126 88.5618 43.0204 84.3096 46.7452 80.7454C46.9584 80.5416 47.1287 80.2612 47.6414 80.4128C47.3067 81.4922 46.2368 82.0588 45.7584 82.9957Z" fill="black"/>
<path fill-rule="evenodd" clip-rule="evenodd" d="M90.9936 67.249C90.5353 67.5741 91.0753 68.4523 90.3735 68.3094C89.7752 68.1872 89.9913 67.481 90.1415 67.0328C91.074 64.2576 92.9121 62.204 95.5735 60.8591C95.9766 60.6553 96.5616 60.3443 96.9344 60.9212C97.2656 61.4328 96.7533 61.7439 96.4611 62.064C95.2358 63.4077 94.0735 64.7795 93.7676 66.6314C93.6909 67.0966 93.3011 67.2643 92.904 67.4217C92.7653 67.4768 92.6258 67.5667 92.5274 67.6748C91.7498 68.5305 91.1631 68.6208 90.9936 67.249Z" fill="black"/>
<path fill-rule="evenodd" clip-rule="evenodd" d="M66.998 17.4523C66.8696 18.8345 65.6486 19.5974 64.9849 20.6735C64.4932 21.4704 64.0922 22.3746 63.3065 23.0075C63.1109 23.1649 63.0326 23.512 62.7099 23.3364C62.4532 23.1964 62.4009 22.9131 62.5743 22.6468C63.618 21.0451 64.6331 19.4239 65.8802 17.9572C66.1746 17.6109 66.6389 17.6204 67.0313 17.4796L66.998 17.4523Z" fill="black"/>
<path fill-rule="evenodd" clip-rule="evenodd" d="M67.0313 17.4798C66.8853 17.1737 66.7159 16.8891 66.9812 16.5399C68.4846 14.5596 69.9567 12.5561 71.6993 10.7589C71.8341 10.6198 71.9086 10.29 72.2133 10.4963C72.4063 10.6272 72.3584 10.8298 72.2261 10.9917C70.5225 13.0764 68.8693 15.1967 67.3218 17.3936C67.2782 17.4553 67.1087 17.4346 66.9979 17.4524L67.0313 17.4798Z" fill="black"/>
<path fill-rule="evenodd" clip-rule="evenodd" d="M60.8319 29.0938C60.8293 29.1286 60.8242 29.1613 60.8173 29.1907C60.6115 29.6948 60.1621 30.1028 60.2006 30.705C60.2143 30.9196 60.2439 31.2245 59.9062 31.1963C59.6045 31.171 59.6452 30.8997 59.6717 30.6686C59.9084 28.6137 60.6299 26.6923 61.434 24.7998C61.5722 24.475 61.9766 24.1263 62.3459 24.2928C62.7833 24.49 62.4529 24.9083 62.298 25.1535C61.5273 26.3733 61.1913 27.7356 60.8319 29.0938Z" fill="black"/>
<path fill-rule="evenodd" clip-rule="evenodd" d="M72.8423 12.4442C72.8329 12.4798 72.8222 12.5146 72.8098 12.5486C73.3019 12.0644 74.1582 11.921 74.2413 11.028C74.255 10.8806 74.6427 10.3413 75.0347 10.6739C75.4074 10.9899 75.0094 11.3238 74.7937 11.5213C73.8189 12.4148 73.0452 13.4242 72.6022 14.7795C72.2278 14.3561 71.6684 14.0799 72.4131 13.5658C72.8132 13.2896 72.6532 12.8021 72.8423 12.4442Z" fill="black"/>
<path fill-rule="evenodd" clip-rule="evenodd" d="M67.908 22.2896C68.0501 22.0862 68.1922 21.8824 68.3339 21.6791C68.5046 21.549 68.6754 21.4194 68.8457 21.2893C68.906 21.3295 68.9655 21.3697 69.0254 21.4098C68.633 22.0879 68.2401 22.7655 67.8477 23.4436C67.7638 23.4171 67.6799 23.3901 67.5961 23.3632C67.7001 23.0058 67.8041 22.6475 67.908 22.2896Z" fill="black"/>
<path fill-rule="evenodd" clip-rule="evenodd" d="M63.9625 30.0002C63.734 29.222 64.3199 28.7054 64.6271 28.1053C64.9284 27.5167 65.2793 26.9517 65.6088 26.376C65.7253 26.6688 65.6979 26.9281 65.5293 27.2147C64.9888 28.1334 64.4821 29.0704 63.9625 30.0002Z" fill="black"/>
</svg>
