<svg width="22" height="21" viewBox="0 0 22 21" fill="none" xmlns="http://www.w3.org/2000/svg">
<g clip-path="url(#clip0_1_452)">
<path d="M19.0766 6.42748C19.9082 5.84999 20.6078 5.12915 21.1778 4.29915V4.29832C20.4169 4.62415 19.6074 4.84082 18.7622 4.94582C19.6313 4.43832 20.2951 3.64082 20.6069 2.67998C19.7966 3.15248 18.9019 3.48582 17.9484 3.67248C17.179 2.87082 16.0824 2.37498 14.8861 2.37498C12.565 2.37498 10.6964 4.21748 10.6964 6.47582C10.6964 6.80082 10.7245 7.11332 10.7935 7.41082C7.30852 7.24415 4.22399 5.61082 2.15173 3.12165C1.79045 3.73582 1.57743 4.43832 1.57743 5.19415C1.57743 6.61415 2.3247 7.87249 3.44008 8.60165C2.76608 8.58915 2.10572 8.39749 1.5459 8.09665V8.14165C1.5459 10.1342 2.9987 11.7892 4.9048 12.1708C4.56312 12.2625 4.19161 12.3058 3.80562 12.3058C3.53721 12.3058 3.26625 12.2908 3.01233 12.2358C3.55511 13.8592 5.09737 15.0533 6.92934 15.0925C5.50296 16.1833 3.69144 16.8408 1.7308 16.8408C1.38742 16.8408 1.05766 16.8258 0.727905 16.785C2.58544 17.9558 4.78551 18.625 7.1594 18.625C14.558 18.625 19.3799 12.5883 19.0766 6.42748Z" fill="#3734A9"/>
</g>
<defs>
<clipPath id="clip0_1_452">
<rect width="20.4499" height="20" fill="white" transform="translate(0.727905 0.5)"/>
</clipPath>
</defs>
</svg>
