<svg width="21" height="21" viewBox="0 0 21 21" fill="none" xmlns="http://www.w3.org/2000/svg">
<g clip-path="url(#clip0_1_454)">
<path d="M9.14476 14.5991C9.19929 14.5541 9.25468 14.5075 9.3058 14.4583C6.45901 17.19 1.81687 15.915 0.728768 12.0625V12.0566C-0.730845 6.81496 5.42373 2.83329 9.3041 6.49996C9.38505 6.58412 14.7455 12.175 14.4046 11.8191H14.42C15.2201 12.6258 16.3772 12.5375 17.0657 11.8325C17.8062 11.0758 17.8326 9.84079 17.1057 9.07162C15.958 7.77912 13.7042 8.74496 13.9198 10.6608L12.6298 9.37579L11.1335 7.97662C11.442 7.37746 11.8467 6.85329 12.3537 6.39996C12.2992 6.44579 12.2438 6.49329 12.1927 6.54079C15.0505 3.79912 19.6892 5.10412 20.7697 8.93996V8.94496C22.2327 14.1858 16.0713 18.1675 12.1944 14.5008C12.1151 14.4175 6.75809 8.79162 7.09721 9.14829L7.0938 9.13579C7.08017 9.13579 7.08017 9.12329 7.08017 9.12329C6.24002 8.27579 5.10079 8.40329 4.43446 9.09746C3.69315 9.85412 3.66759 11.0891 4.39612 11.8466C5.4936 13.1091 7.79592 12.1733 7.57949 10.2191C7.66299 10.3033 10.5524 13.2041 10.3683 13.02C9.90056 13.9325 9.37738 14.3516 9.14476 14.5991Z" fill="#3734A9"/>
</g>
<defs>
<clipPath id="clip0_1_454">
<rect width="20.4499" height="20" fill="white" transform="translate(0.524536 0.5)"/>
</clipPath>
</defs>
</svg>
