<svg width="22" height="15" viewBox="0 0 22 15" fill="none" xmlns="http://www.w3.org/2000/svg">
<path fill-rule="evenodd" clip-rule="evenodd" d="M14.2664 7.74579L20.0284 2.80676V12.273L14.2664 7.74579ZM8.9795 8.65811L10.6433 10.0847C10.9011 10.3054 11.2806 10.3054 11.5384 10.0847L13.2022 8.65811L18.7276 13.0004H3.45265L8.9795 8.65811ZM11.0908 8.65743L3.32408 2.00031H18.8576L11.0908 8.65743ZM2.15334 2.80745L7.91532 7.7458L2.15334 12.273V2.80745ZM21.4035 13.6879V1.31281C21.4035 0.927807 21.0467 0.625305 20.716 0.625305H1.46583C1.11795 0.625305 0.77832 0.923682 0.77832 1.31281V13.6879C0.77832 14.0488 1.10626 14.3754 1.46583 14.3754H20.716C21.1023 14.3754 21.4035 14.0337 21.4035 13.6879V13.6879Z" fill="#181433"/>
</svg>
