<svg width="23" height="23" viewBox="0 0 23 23" fill="none" xmlns="http://www.w3.org/2000/svg">
<g clip-path="url(#clip0_1_460)">
<rect width="22.4951" height="22.0002" transform="translate(0.0908203 0.5)" fill="white"/>
<path fill-rule="evenodd" clip-rule="evenodd" d="M13.1534 20.4377C12.0163 20.4377 11.0909 19.5123 11.0909 18.3751C11.0909 17.238 12.0163 16.3126 13.1534 16.3126C14.2906 16.3126 15.2159 17.238 15.2159 18.3751C15.2159 19.5123 14.2906 20.4377 13.1534 20.4377ZM4.21585 7.37505C5.35298 7.37505 6.27837 8.30043 6.27837 9.43757C6.27837 10.5747 5.35298 11.5001 4.21585 11.5001C3.07872 11.5001 2.15334 10.5747 2.15334 9.43757C2.15334 8.30043 3.07872 7.37505 4.21585 7.37505ZM13.1534 14.9376C11.4202 14.9376 9.99639 16.2322 9.76333 17.9021L4.68816 12.8277C6.3588 12.5939 7.65337 11.1708 7.65337 9.43756C7.65337 7.54211 6.1113 6.00004 4.21585 6.00004C2.32039 6.00004 0.77832 7.54211 0.77832 9.43756C0.77832 10.3801 1.16126 11.2347 1.77727 11.8562C1.7807 11.8596 1.78208 11.8645 1.78552 11.8686L10.7231 20.8061C10.7272 20.8096 10.732 20.8103 10.7355 20.8144C11.3576 21.4304 12.2115 21.8127 13.1534 21.8127C15.0489 21.8127 16.5909 20.2706 16.5909 18.3751C16.5909 16.4797 15.0489 14.9376 13.1534 14.9376Z" fill="#181433"/>
<path fill-rule="evenodd" clip-rule="evenodd" d="M11.0908 1.18751C10.7106 1.18751 10.4033 1.49551 10.4033 1.87501C10.4033 2.25452 10.7106 2.56252 11.0908 2.56252C16.0189 2.56252 20.0284 6.57205 20.0284 11.5001C20.0284 11.8796 20.3357 12.1876 20.7159 12.1876C21.0961 12.1876 21.4034 11.8796 21.4034 11.5001C21.4034 5.81373 16.7772 1.18751 11.0908 1.18751Z" fill="#181433"/>
<path fill-rule="evenodd" clip-rule="evenodd" d="M11.0908 4.62503C10.7106 4.62503 10.4033 4.93303 10.4033 5.31254C10.4033 5.69204 10.7106 6.00004 11.0908 6.00004C14.1234 6.00004 16.5909 8.4675 16.5909 11.5001C16.5909 11.8796 16.8982 12.1876 17.2784 12.1876C17.6586 12.1876 17.9659 11.8796 17.9659 11.5001C17.9659 7.70918 14.8817 4.62503 11.0908 4.62503Z" fill="#181433"/>
<path fill-rule="evenodd" clip-rule="evenodd" d="M13.1533 11.5001C13.1533 11.8796 13.4607 12.1876 13.8408 12.1876C14.221 12.1876 14.5284 11.8796 14.5284 11.5001C14.5284 9.60464 12.9863 8.06256 11.0908 8.06256C10.7106 8.06256 10.4033 8.37056 10.4033 8.75007C10.4033 9.12957 10.7106 9.43757 11.0908 9.43757C12.228 9.43757 13.1533 10.363 13.1533 11.5001Z" fill="#181433"/>
</g>
<defs>
<clipPath id="clip0_1_460">
<rect width="22.4951" height="22.0002" fill="white" transform="translate(0.0908203 0.5)"/>
</clipPath>
</defs>
</svg>
